OutlineCutoutDetail-SemiBold.ufo
<glyph name="exclamation" format="2">
  <advance width="383.928559142857"/>
  <unicode hex="0021"/>
  <outline>
    <contour>
      <point x="254.76425210560822" y="250.49502563476562" type="line"/>
      <point x="284.45440713490507" y="865" type="line"/>
      <point x="99.47415200795197" y="865" type="line"/>
      <point x="129.16430703724885" y="250.49502563476562" type="line"/>
    </contour>
    <contour>
      <point x="293.5555591428571" y="86.59127957142857" type="curve" smooth="yes"/>
      <point x="293.5555591428571" y="142.66103266791916"/>
      <point x="248.03403266791912" y="188.18255914285714"/>
      <point x="191.96427957142853" y="188.18255914285714" type="curve" smooth="yes"/>
      <point x="135.89452647493795" y="188.18255914285714"/>
      <point x="90.37299999999996" y="142.6610326679192"/>
      <point x="90.37299999999996" y="86.59127957142857" type="curve" smooth="yes"/>
      <point x="90.37299999999996" y="30.521526474937993"/>
      <point x="135.89452647493792" y="-15.0"/>
      <point x="191.96427957142853" y="-15.0" type="curve" smooth="yes"/>
      <point x="248.0340326679191" y="-15.000000000000014"/>
      <point x="293.5555591428571" y="30.521526474937957"/>
    </contour>
  </outline>
</glyph>
<glyph name="quote_dbl" format="2">
  <advance width="541.5100228271483"/>
  <unicode hex="0022"/>
  <outline>
    <contour>
      <point x="215.52604565429684" y="549.3662490844727" type="line"/>
      <point x="236.64419445800777" y="850" type="line"/>
      <point x="83.37299999999996" y="850" type="line"/>
      <point x="104.4911488037109" y="549.3662490844727" type="line"/>
    </contour>
    <contour>
      <point x="439.01888165283196" y="549.3662490844727" type="line"/>
      <point x="460.13702282714837" y="850" type="line"/>
      <point x="306.8658359985351" y="850" type="line"/>
      <point x="327.983984802246" y="549.3662490844727" type="line"/>
    </contour>
  </outline>
</glyph>
<glyph name="numbersign" format="2">
  <advance width="751.3051583251953"/>
  <unicode hex="0023"/>
  <outline>
    <contour>
      <point x="541.1752689819336" y="186.2848129272461" type="line"/>
      <point x="663.0833576660157" y="186.2848129272461" type="line"/>
      <point x="663.0833576660157" y="329.96703338623047" type="line"/>
      <point x="566.510321472168" y="329.96703338623047" type="line"/>
      <point x="600.0240696411133" y="520.0329666137695" type="line"/>
      <point x="721.9321583251954" y="520.0329666137695" type="line"/>
      <point x="721.9321583251954" y="663.7151870727539" type="line"/>
      <point x="625.3591221313477" y="663.7151870727539" type="line"/>
      <point x="658.2061604003907" y="850" type="line"/>
      <point x="504.6285236816407" y="850" type="line"/>
      <point x="471.7814854125977" y="663.7151870727539" type="line"/>
      <point x="363.70752606201165" y="663.7151870727539" type="line"/>
      <point x="396.5545643310546" y="850" type="line"/>
      <point x="242.97692761230465" y="850" type="line"/>
      <point x="210.12988934326168" y="663.7151870727539" type="line"/>
      <point x="88.22180065917965" y="663.7151870727539" type="line"/>
      <point x="88.22180065917965" y="520.0329666137695" type="line"/>
      <point x="184.7948368530273" y="520.0329666137695" type="line"/>
      <point x="151.281088684082" y="329.96703338623047" type="line"/>
      <point x="29.372999999999962" y="329.96703338623047" type="line"/>
      <point x="29.372999999999962" y="186.2848129272461" type="line"/>
      <point x="125.94603619384762" y="186.2848129272461" type="line"/>
      <point x="93.09899792480465" y="0" type="line"/>
      <point x="246.67663464355465" y="0" type="line"/>
      <point x="279.5236729125976" y="186.2848129272461" type="line"/>
      <point x="387.5976322631835" y="186.2848129272461" type="line"/>
      <point x="354.75059399414056" y="0" type="line"/>
      <point x="508.3282307128907" y="0" type="line"/>
    </contour>
    <contour>
      <point x="304.85872540283196" y="329.96703338623047" type="line"/>
      <point x="338.3724735717773" y="520.0329666137695" type="line"/>
      <point x="446.4464329223632" y="520.0329666137695" type="line"/>
      <point x="412.9326847534179" y="329.96703338623047" type="line"/>
    </contour>
  </outline>
</glyph>
<glyph name="dollar" format="2">
  <advance width="586.3055476190477"/>
  <unicode hex="0024"/>
  <outline>
    <contour>
      <point x="209.0852726440429" y="-100" type="line"/>
      <point x="362.22027478027337" y="-100" type="line"/>
      <point x="362.22027478027337" y="26.888938903808594" type="line"/>
      <point x="476.0310513404772" y="57.43576706550256"/>
      <point x="557.9325476190477" y="144.23984933143748"/>
      <point x="557.9325476190478" y="256.6994833333333" type="curve"/>
      <point x="557.9325476190477" y="404.267945444909"/>
      <point x="436.1827941227121" y="458.48735731549897"/>
      <point x="356.2788828783035" y="490.6087725513686" type="curve"/>
      <point x="266.58353241627924" y="526.666351611607" type="line"/>
      <point x="225.05280075899526" y="543.3617280435892"/>
      <point x="179.67962500000004" y="559.4653982377099"/>
      <point x="179.67962499999993" y="605.7091216666666" type="curve"/>
      <point x="179.679625" y="655.4550316930525"/>
      <point x="232.1855535554409" y="688.84056"/>
      <point x="311.0713071428571" y="688.84056" type="curve"/>
      <point x="394.35811958723497" y="688.840560413459"/>
      <point x="468.9314849048416" y="661.1214247085"/>
      <point x="519.3902119140625" y="617.3876800537109" type="curve"/>
      <point x="519.3902119140625" y="777.994140625" type="line"/>
      <point x="478.3106696406259" y="807.5045460044549"/>
      <point x="423.76420428852225" y="825.0133454348793"/>
      <point x="362.22027478027337" y="831.7696533203124" type="curve"/>
      <point x="362.22027478027337" y="950" type="line"/>
      <point x="209.0852726440429" y="950" type="line"/>
      <point x="209.0852726440429" y="821.6263427734375" type="line"/>
      <point x="104.86254358536057" y="790.1448471832949"/>
      <point x="30.37299999999999" y="706.0217009007495"/>
      <point x="30.372999999999962" y="601.6327833333332" type="curve"/>
      <point x="30.372999999999976" y="459.41572994221286"/>
      <point x="149.10410712855065" y="408.21990567752573"/>
      <point x="227.66058701092567" y="376.71868352100415" type="curve"/>
      <point x="317.47181058039814" y="340.70429858360404" type="line"/>
      <point x="367.39909256065727" y="320.683411653762"/>
      <point x="408.62592261904757" y="299.69132113310434"/>
      <point x="408.62592261904757" y="252.97737833333338" type="curve"/>
      <point x="408.62592261904757" y="195.45990089679466"/>
      <point x="346.1249823378049" y="161.58452"/>
      <point x="260.23424047619045" y="161.58452" type="curve"/>
      <point x="165.165413680877" y="161.58451939176774"/>
      <point x="81.21315913090602" y="196.95880628162308"/>
      <point x="30.372999999999962" y="251.00025177001953" type="curve"/>
      <point x="30.372999999999962" y="84.88811492919922" type="line"/>
      <point x="74.89959310694663" y="47.55127383786711"/>
      <point x="137.54901660255172" y="25.81603263837008"/>
      <point x="209.0852726440429" y="18.16297912597654" type="curve"/>
    </contour>
  </outline>
</glyph>
<glyph name="ampersand" format="2">
  <advance width="814.4838400919596"/>
  <unicode hex="0026"/>
  <outline>
    <contour>
      <point x="195.36119867350257" y="490.3622589111328" type="curve"/>
      <point x="197.60359216715491" y="487.67787170410156" type="line"/>
      <point x="104.26893655094742" y="446.42213182209247"/>
      <point x="39.372999999999905" y="355.1119766772335"/>
      <point x="39.37299999999996" y="248.09954166666677" type="curve" smooth="yes"/>
      <point x="39.372999999999905" y="101.89470788966915"/>
      <point x="160.5087895892793" y="-14.999999999999982"/>
      <point x="309.8058354166666" y="-15.0" type="curve"/>
      <point x="396.0070971401715" y="-15.0"/>
      <point x="475.80119900268164" y="27.12696129172177"/>
      <point x="524.6186068155924" y="96.21977996826172" type="curve"/>
      <point x="604.998382816569" y="0" type="line"/>
      <point x="803.1108400919596" y="0" type="line"/>
      <point x="601.5905611612956" y="241.23278045654297" type="line"/>
      <point x="739.0793917277018" y="511.0697937011719" type="line"/>
      <point x="575.8053362467448" y="511.0697937011719" type="line"/>
      <point x="500.17400384928385" y="362.63494873046875" type="line"/>
      <point x="325.64018319412605" y="571.6013715690315" type="line"/>
      <point x="305.99088314745154" y="595.1271497054527"/>
      <point x="293.0395389880953" y="612.1569579748327"/>
      <point x="293.0395389880953" y="640.544625" type="curve"/>
      <point x="293.03953898809516" y="689.6795274474551"/>
      <point x="327.5177786503202" y="719.52175"/>
      <point x="372.1104854166666" y="719.52175" type="curve"/>
      <point x="417.166298897038" y="719.52175"/>
      <point x="453.3637354166666" y="682.4170320762603"/>
      <point x="453.3637354166666" y="636.71625" type="curve"/>
      <point x="598.8419878580729" y="636.7162475585938" type="line"/>
      <point x="598.8419854166666" y="762.709480446925"/>
      <point x="496.5514658635917" y="865.0"/>
      <point x="370.55823541666666" y="865.0" type="curve" smooth="yes"/>
      <point x="244.56500496974158" y="865.0"/>
      <point x="142.27448541666664" y="762.7094804469251"/>
      <point x="142.27448541666664" y="636.71625" type="curve"/>
      <point x="142.27448541666664" y="554.4323000846216"/>
      <point x="185.79378010942648" y="501.81521205092804"/>
    </contour>
    <contour>
      <point x="312.35808541666665" y="132.3924375" type="curve"/>
      <point x="245.1361611841132" y="132.39243749999997"/>
      <point x="190.59381249999993" y="186.3018287335922"/>
      <point x="190.59381249999993" y="253.2018291666667" type="curve" smooth="yes"/>
      <point x="190.59381249999993" y="313.81216443997755"/>
      <point x="235.36256234802576" y="363.75971478275085"/>
      <point x="293.7693712809245" y="372.5612335205078" type="curve"/>
      <point x="425.1177370646159" y="215.32875061035156" type="line"/>
      <point x="422.84676447506195" y="210.8742378987865" type="line"/>
      <point x="408.69333036396586" y="183.11227703224895"/>
      <point x="381.2007138803333" y="132.39243749999997"/>
    </contour>
  </outline>
</glyph>
<glyph name="quote" format="2">
  <advance width="318.01719445800774"/>
  <unicode hex="0027"/>
  <outline>
    <contour>
      <point x="215.52604565429684" y="549.3662490844727" type="line"/>
      <point x="236.64419445800777" y="850" type="line"/>
      <point x="83.37299999999996" y="850" type="line"/>
      <point x="104.4911488037109" y="549.3662490844727" type="line"/>
    </contour>
  </outline>
</glyph>
<glyph name="parenleft" format="2">
  <advance width="416.07537926136376"/>
  <unicode hex="0028"/>
  <outline>
    <contour>
      <point x="212.50799999999995" y="424.9999999999999" type="curve" smooth="yes"/>
      <point x="212.50799999999995" y="627.9404694233668"/>
      <point x="280.8116365179277" y="814.831947352716"/>
      <point x="395.70237926136383" y="963.2837524414062" type="curve"/>
      <point x="213.00808147083652" y="963.2837524414062" type="line"/>
      <point x="115.64081923283109" y="807.0070436779308"/>
      <point x="59.373000000000076" y="622.5226980917129"/>
      <point x="59.37299999999996" y="424.99999999999994" type="curve" smooth="yes"/>
      <point x="59.37299999999996" y="227.4773019082873"/>
      <point x="115.64081923283098" y="42.992956322069375"/>
      <point x="213.00811961780917" y="-113.28375244140625" type="curve"/>
      <point x="395.7023487437857" y="-113.28375244140625" type="line"/>
      <point x="280.8116365179278" y="35.168052647283986"/>
      <point x="212.50800000000007" y="222.0595305766332"/>
    </contour>
  </outline>
</glyph>
<glyph name="parenright" format="2">
  <advance width="415.07537926136376"/>
  <unicode hex="0029"/>
  <outline>
    <contour>
      <point x="356.70237926136383" y="425.00000000000006" type="curve" smooth="yes"/>
      <point x="356.70237926136383" y="622.522698091713"/>
      <point x="300.4345600285328" y="807.0070436779309"/>
      <point x="203.06725964355465" y="963.2837524414062" type="curve"/>
      <point x="20.373030517578087" y="963.2837524414062" type="line"/>
      <point x="135.2637427434361" y="814.831947352716"/>
      <point x="203.56737926136387" y="627.9404694233668"/>
      <point x="203.56737926136387" y="425.0" type="curve" smooth="yes"/>
      <point x="203.56737926136387" y="222.0595305766333"/>
      <point x="135.2637427434361" y="35.16805264728407"/>
      <point x="20.372999999999962" y="-113.28375244140625" type="curve"/>
      <point x="203.0672977905273" y="-113.28375244140625" type="line"/>
      <point x="300.4345600285329" y="42.992956322069375"/>
      <point x="356.70237926136394" y="227.47730190828733"/>
    </contour>
  </outline>
</glyph>
<glyph name="asterisk" format="2">
  <advance width="450.23558333333324"/>
  <unicode hex="002A"/>
  <outline>
    <contour>
      <point x="409.8625833333333" y="680.2552083333334" type="curve" smooth="yes"/>
      <point x="409.86258333333325" y="723.3521913053374"/>
      <point x="395.0736281548509" y="763.0222845660638"/>
      <point x="370.29810223388665" y="794.4508972167969" type="curve"/>
      <point x="270.20774731445306" y="742.3162078857422" type="line"/>
      <point x="288.86978039550775" y="853.6697235107422" type="line"/>
      <point x="268.9946394265435" y="861.0043015621192"/>
      <point x="247.51915622432324" y="864.9999999999999"/>
      <point x="225.11779166666662" y="864.9999999999999" type="curve" smooth="yes"/>
      <point x="202.71550943818147" y="865.0"/>
      <point x="181.2391844240575" y="861.0039741882229"/>
      <point x="161.363249633789" y="853.6849670410156" type="curve"/>
      <point x="180.02783856201165" y="742.3162078857422" type="line"/>
      <point x="79.94660839843745" y="794.4461364746094" type="line"/>
      <point x="55.165594287741214" y="763.0320455096249"/>
      <point x="40.37299999999996" y="723.3574934034576"/>
      <point x="40.37299999999996" y="680.2552083333335" type="curve" smooth="yes"/>
      <point x="40.37299999999996" y="677.7555749599562"/>
      <point x="40.422750378039" y="675.2674697206884"/>
      <point x="40.52131542968746" y="673.2068786621094" type="curve"/>
      <point x="152.1607120971679" y="656.5500183105469" type="line"/>
      <point x="71.64497265624996" y="577.4659042358398" type="line"/>
      <point x="95.76134268812343" y="541.5279959472501"/>
      <point x="132.1401542718549" y="514.5330677158004"/>
      <point x="174.76296124267571" y="502.4858932495117" type="curve"/>
      <point x="225.1177891235351" y="603.5435943603516" type="line"/>
      <point x="275.4723270874023" y="502.4864730834961" type="line"/>
      <point x="318.09629826438226" y="514.5332404757787"/>
      <point x="354.475944002379" y="541.529220411066"/>
      <point x="378.59236798095696" y="577.4641799926758" type="curve"/>
      <point x="298.0748737792968" y="656.5500183105469" type="line"/>
      <point x="409.7100971679687" y="673.2062530517578" type="line"/>
      <point x="409.81142694226475" y="675.1976446846971"/>
      <point x="409.86258333333325" y="677.720499541623"/>
    </contour>
  </outline>
</glyph>
<glyph name="plus" format="2">
  <advance width="805.313497253418"/>
  <unicode hex="002B"/>
  <outline>
    <contour>
      <point x="327.95674786376946" y="111.71624755859375" type="line"/>
      <point x="477.35674938964837" y="111.71624755859375" type="line"/>
      <point x="477.35674938964837" y="350.3000030517578" type="line"/>
      <point x="715.940497253418" y="350.3000030517578" type="line"/>
      <point x="715.940497253418" y="499.6999969482422" type="line"/>
      <point x="477.35674938964837" y="499.6999969482422" type="line"/>
      <point x="477.35674938964837" y="738.2837524414062" type="line"/>
      <point x="327.95674786376946" y="738.2837524414062" type="line"/>
      <point x="327.95674786376946" y="499.6999969482422" type="line"/>
      <point x="89.37299999999996" y="499.6999969482422" type="line"/>
      <point x="89.37299999999996" y="350.3000030517578" type="line"/>
      <point x="327.95674786376946" y="350.3000030517578" type="line"/>
    </contour>
  </outline>
</glyph>
<glyph name="comma" format="2">
  <advance width="374.79822997667804"/>
  <unicode hex="002C"/>
  <outline>
    <contour>
      <point x="73.37299999999996" y="86.59127957142857" type="curve" smooth="yes"/>
      <point x="73.37299999999996" y="30.521526474937993"/>
      <point x="118.89452647493792" y="-15.0"/>
      <point x="174.96427957142853" y="-15.0" type="curve"/>
      <point x="195.76475622639913" y="-15.0"/>
      <point x="215.1135600839638" y="-8.735215970328216"/>
      <point x="231.2251590880301" y="2.0304031372070312" type="curve"/>
      <point x="217.91532604137808" y="-77.24437662126937"/>
      <point x="170.1604206667621" y="-144.84285669752973"/>
      <point x="103.91210214222929" y="-184.85797119140622" type="curve"/>
      <point x="174.485023895159" y="-184.85797119140625" type="line"/>
      <point x="252.41001264598273" y="-136.99731691200154"/>
      <point x="304.4252299766781" y="-50.97439082200897"/>
      <point x="304.4252299766781" y="47.10147651167617" type="curve"/>
      <point x="304.4252299766782" y="91.11750162803976"/>
      <point x="285.83945948355733" y="123.05131296296652"/>
      <point x="272.93498210821565" y="139.86875530176707" type="curve"/>
      <point x="244.8146876668413" y="176.51583650953165"/>
      <point x="204.70287106858973" y="188.18255914285714"/>
      <point x="174.96427957142853" y="188.18255914285714" type="curve"/>
      <point x="118.89452647493792" y="188.18255914285714"/>
      <point x="73.37299999999996" y="142.66103266791916"/>
    </contour>
  </outline>
</glyph>
<glyph name="hyphen" format="2">
  <advance width="539.7480238095237"/>
  <unicode hex="002D"/>
  <outline>
    <contour>
      <point x="89.37299999999996" y="231.94187500000004" type="line"/>
      <point x="450.3750238095237" y="231.94187500000004" type="line"/>
      <point x="450.3750238095237" y="381.3418750000001" type="line"/>
      <point x="89.37299999999996" y="381.3418750000001" type="line"/>
    </contour>
  </outline>
</glyph>
<glyph name="period" format="2">
  <advance width="347.928559142857"/>
  <unicode hex="002E"/>
  <outline>
    <contour>
      <point x="275.5555591428571" y="86.59127957142857" type="curve" smooth="yes"/>
      <point x="275.5555591428571" y="142.66103266791916"/>
      <point x="230.03403266791912" y="188.18255914285714"/>
      <point x="173.96427957142853" y="188.18255914285714" type="curve" smooth="yes"/>
      <point x="117.89452647493795" y="188.18255914285714"/>
      <point x="72.37299999999996" y="142.6610326679192"/>
      <point x="72.37299999999996" y="86.59127957142857" type="curve" smooth="yes"/>
      <point x="72.37299999999996" y="30.521526474937993"/>
      <point x="117.89452647493792" y="-15.0"/>
      <point x="173.96427957142853" y="-15.0" type="curve" smooth="yes"/>
      <point x="230.0340326679191" y="-15.000000000000014"/>
      <point x="275.5555591428571" y="30.521526474937957"/>
    </contour>
  </outline>
</glyph>
<glyph name="slash" format="2">
  <advance width="436.52736444091784"/>
  <unicode hex="002F"/>
  <outline>
    <contour>
      <point x="436.1543644409179" y="963.2837524414062" type="line"/>
      <point x="281.4841068725585" y="963.2837524414062" type="line"/>
      <point x="23.372999999999962" y="0" type="line"/>
      <point x="178.0432575683593" y="0" type="line"/>
    </contour>
  </outline>
</glyph>
<glyph name="zero" format="2">
  <advance width="763.3624285714286"/>
  <unicode hex="0030"/>
  <outline>
    <contour>
      <point x="698.9894285714287" y="425.0" type="curve" smooth="yes"/>
      <point x="698.9894285714287" y="668.1400049456703"/>
      <point x="587.8515204164246" y="865.0"/>
      <point x="381.68121428571425" y="865.0" type="curve" smooth="yes"/>
      <point x="175.51090815500407" y="865.0"/>
      <point x="64.37299999999996" y="668.1400049456703"/>
      <point x="64.37299999999996" y="425.0" type="curve" smooth="yes"/>
      <point x="64.37299999999996" y="181.85999505432972"/>
      <point x="175.51090815500407" y="-15.0"/>
      <point x="381.68121428571425" y="-15.0" type="curve" smooth="yes"/>
      <point x="587.8515204164246" y="-15.0"/>
      <point x="698.9894285714287" y="181.85999505432972"/>
    </contour>
    <contour>
      <point x="545.8544285714287" y="425.0" type="curve" smooth="yes"/>
      <point x="545.8544285714287" y="262.0938504792816"/>
      <point x="492.23665899469705" y="130.47825"/>
      <point x="381.68121428571425" y="130.47825" type="curve" smooth="yes"/>
      <point x="271.1257695767315" y="130.47825"/>
      <point x="217.50799999999992" y="262.0938504792816"/>
      <point x="217.50799999999992" y="425.0" type="curve" smooth="yes"/>
      <point x="217.50799999999992" y="587.9061495207184"/>
      <point x="271.1257695767315" y="719.52175"/>
      <point x="381.68121428571425" y="719.52175" type="curve" smooth="yes"/>
      <point x="492.23665899469705" y="719.52175"/>
      <point x="545.8544285714287" y="587.9061495207184"/>
    </contour>
  </outline>
</glyph>
<glyph name="one" format="2">
  <advance width="632.15265435791"/>
  <unicode hex="0031"/>
  <outline>
    <contour>
      <point x="303.59405407714837" y="0" type="line"/>
      <point x="462.7796543579101" y="0" type="line"/>
      <point x="462.7796543579101" y="850" type="line"/>
      <point x="191.56430706787106" y="850" type="line"/>
      <point x="114.37299999999996" y="704.5217514038086" type="line"/>
      <point x="303.59405407714837" y="704.5217514038086" type="line"/>
    </contour>
  </outline>
</glyph>
<glyph name="two" format="2">
  <advance width="704.5842568359375"/>
  <unicode hex="0032"/>
  <outline>
    <contour>
      <point x="58.37299999999996" y="0" type="line"/>
      <point x="633.2112568359375" y="0" type="line"/>
      <point x="633.2112568359375" y="145.4782485961914" type="line"/>
      <point x="355.4297245483398" y="145.4782485961914" type="line"/>
      <point x="513.3766115623503" y="350.8104954385037" type="line"/>
      <point x="566.9562471754012" y="420.46446059987"/>
      <point x="613.2112587241521" y="492.77092351031547"/>
      <point x="613.2112587241521" y="594.3380079365079" type="curve"/>
      <point x="613.2112587241522" y="743.7117789346282"/>
      <point x="490.63864083054585" y="865.0"/>
      <point x="339.54926666066" y="865.0" type="curve"/>
      <point x="247.44426166327628" y="865.0"/>
      <point x="164.71441528682487" y="834.601561388611"/>
      <point x="107.9719379882812" y="781.8809967041016" type="curve"/>
      <point x="107.9719379882812" y="608.8275146484375" type="line"/>
      <point x="153.45069934332514" y="675.3687885734408"/>
      <point x="235.871493281865" y="719.8759833333335"/>
      <point x="330.0069333273267" y="719.8759833333334" type="curve"/>
      <point x="403.23869754002345" y="719.8759833333334"/>
      <point x="462.69707953955606" y="670.3707521384183"/>
      <point x="462.69707953955606" y="596.8902579365079" type="curve"/>
      <point x="462.697079539556" y="539.5094655639725"/>
      <point x="430.81090737114954" y="494.176592127728"/>
      <point x="398.90042755820895" y="451.8355418344646" type="curve"/>
    </contour>
  </outline>
</glyph>
<glyph name="three" format="2">
  <advance width="671.5476204833984"/>
  <unicode hex="0033"/>
  <outline>
    <contour>
      <point x="283.79097401355557" y="129.84791280416667" type="curve"/>
      <point x="195.6139122921515" y="129.84791280416667"/>
      <point x="117.52205136635986" y="166.00398202547177"/>
      <point x="69.37299999999996" y="221.54106903076172" type="curve"/>
      <point x="69.37299999999996" y="52.54193115234375" type="line"/>
      <point x="127.85354638256926" y="9.092458233524376"/>
      <point x="207.13220418726542" y="-14.99999999999999"/>
      <point x="294.4179740135555" y="-14.999999999999979" type="curve"/>
      <point x="468.6705069990157" y="-15.0"/>
      <point x="610.0899502040319" y="114.9955504853688"/>
      <point x="610.0899502040319" y="275.87964285714287" type="curve"/>
      <point x="610.0899502040319" y="407.0764074372862"/>
      <point x="527.1718629378578" y="505.0701773844006"/>
      <point x="409.06299481201165" y="545.8777389526367" type="curve"/>
      <point x="622.1746204833985" y="850" type="line"/>
      <point x="87.28832897949215" y="850" type="line"/>
      <point x="87.28832897949215" y="704.5217514038086" type="line"/>
      <point x="354.4715031127929" y="704.5217514038086" type="line"/>
      <point x="150.17991528320306" y="417.54237365722656" type="line"/>
      <point x="185.10339146706144" y="427.4280251097736"/>
      <point x="225.14723711818715" y="431.4756729101191"/>
      <point x="265.2486406802222" y="431.4756729101191" type="curve"/>
      <point x="372.8143407120138" y="431.4756729101191"/>
      <point x="456.9549502040318" y="373.26802455223935"/>
      <point x="456.9549502040318" y="280.66179285714287" type="curve"/>
      <point x="456.9549502040318" y="193.09522949277329"/>
      <point x="379.40527634222207" y="129.84791280416667"/>
    </contour>
  </outline>
</glyph>
<glyph name="four" format="2">
  <advance width="764.8386666259765"/>
  <unicode hex="0034"/>
  <outline>
    <contour>
      <point x="18.372999999999962" y="193.43250274658203" type="line"/>
      <point x="465.68878826904296" y="193.43250274658203" type="line"/>
      <point x="465.68878826904296" y="0" type="line"/>
      <point x="618.8237904052735" y="0" type="line"/>
      <point x="618.8237904052735" y="193.43250274658203" type="line"/>
      <point x="725.4656666259766" y="193.43250274658203" type="line"/>
      <point x="725.4656666259766" y="332.7336959838867" type="line"/>
      <point x="618.8237904052735" y="332.7336959838867" type="line"/>
      <point x="618.8237904052735" y="580.5753555297852" type="line"/>
      <point x="465.68878826904296" y="580.5753555297852" type="line"/>
      <point x="465.68878826904296" y="332.7336959838867" type="line"/>
      <point x="266.17181286621087" y="332.7336959838867" type="line"/>
      <point x="575.4953831176758" y="850" type="line"/>
      <point x="406.7521961669921" y="850" type="line"/>
    </contour>
  </outline>
</glyph>
<glyph name="five" format="2">
  <advance width="664.4824572347007"/>
  <unicode hex="0035"/>
  <outline>
    <contour>
      <point x="290.47006140136716" y="-15.000000000000028" type="curve"/>
      <point x="464.7242857742668" y="-15.0"/>
      <point x="606.1094572347008" y="116.66515073514793"/>
      <point x="606.1094572347008" y="278.70209583333343" type="curve"/>
      <point x="606.1094572347008" y="443.10552243881443"/>
      <point x="470.7630188032834" y="572.4041916666669"/>
      <point x="304.01239473470054" y="572.4041916666669" type="curve"/>
      <point x="296.3409796968418" y="572.4041916666669"/>
      <point x="279.3215240005536" y="572.2216822721205"/>
      <point x="260.5122211914062" y="570.8915710449219" type="curve"/>
      <point x="268.197478149414" y="704.5217514038086" type="line"/>
      <point x="566.1094578247071" y="704.5217514038086" type="line"/>
      <point x="566.1094578247071" y="850" type="line"/>
      <point x="127.42212567138667" y="850" type="line"/>
      <point x="109.39676937866206" y="536.5776138305664" type="line"/>
      <point x="101.18836865234371" y="393.85111236572266" type="line"/>
      <point x="151.40617107712524" y="420.7442573895627"/>
      <point x="213.75138609141152" y="435.0447041666668"/>
      <point x="281.3007280680339" y="435.0447041666668" type="curve"/>
      <point x="376.076598695953" y="435.04470416666686"/>
      <point x="452.9744572347007" y="373.04417239343366"/>
      <point x="452.9744572347007" y="281.89019583333345" type="curve"/>
      <point x="452.97445723470065" y="193.11065873683106"/>
      <point x="374.8059509204852" y="128.7356875"/>
      <point x="278.3853947347006" y="128.7356875" type="curve"/>
      <point x="189.1444221474212" y="128.73568750000007"/>
      <point x="110.42360999729375" y="164.5754081820696"/>
      <point x="63.37299999999996" y="219.16606903076172" type="curve"/>
      <point x="63.37299999999996" y="56.125267028808594" type="line"/>
      <point x="122.41416810262409" y="12.081155652181032"/>
      <point x="202.3644379662896" y="-15.000000000000018"/>
    </contour>
  </outline>
</glyph>
<glyph name="six" format="2">
  <advance width="724.9745272988506"/>
  <unicode hex="0036"/>
  <outline>
    <contour>
      <point x="126.82868837702507" y="493.5617472185273" type="line"/>
      <point x="83.36275373442156" y="423.3494704514818"/>
      <point x="54.37299999999996" y="367.9242805548994"/>
      <point x="54.37299999999996" y="288.8682291666668" type="curve"/>
      <point x="54.372999999999976" y="118.81533918230886"/>
      <point x="192.4343736650672" y="-14.999999999999979"/>
      <point x="362.4872636494252" y="-15.0" type="curve" smooth="yes"/>
      <point x="532.5401536337831" y="-15.0"/>
      <point x="670.6015272988507" y="118.81533918230869"/>
      <point x="670.6015272988507" y="288.86822916666665" type="curve"/>
      <point x="670.6015272988507" y="455.3606188291194"/>
      <point x="535.4308282081604" y="586.285283437051"/>
      <point x="368.9384385457076" y="586.285283437051" type="curve" smooth="yes"/>
      <point x="365.102287395495" y="586.285283437051"/>
      <point x="361.28276454495506" y="586.2157771454716"/>
      <point x="357.481299255371" y="586.0757827758789" type="curve"/>
      <point x="524.783888671875" y="850" type="line"/>
      <point x="347.48699078369134" y="850" type="line"/>
    </contour>
    <contour>
      <point x="517.4665272988507" y="288.8682291666667" type="curve" smooth="yes"/>
      <point x="517.4665272988507" y="201.42095698557063"/>
      <point x="448.5805350971482" y="130.47825"/>
      <point x="362.48726364942524" y="130.47825" type="curve" smooth="yes"/>
      <point x="276.3939922017023" y="130.47825"/>
      <point x="207.50799999999992" y="201.42095698557063"/>
      <point x="207.50799999999992" y="288.8682291666667" type="curve" smooth="yes"/>
      <point x="207.50799999999992" y="376.3155013477628"/>
      <point x="276.3939922017023" y="447.2582083333334"/>
      <point x="362.48726364942524" y="447.2582083333334" type="curve" smooth="yes"/>
      <point x="448.5805350971482" y="447.2582083333334"/>
      <point x="517.4665272988507" y="376.3155013477628"/>
    </contour>
  </outline>
</glyph>
<glyph name="seven" format="2">
  <advance width="725.0231530151367"/>
  <unicode hex="0037"/>
  <outline>
    <contour>
      <point x="449.26479992675775" y="704.5217514038086" type="line"/>
      <point x="97.284750793457" y="0" type="line"/>
      <point x="265.4037312011718" y="0" type="line"/>
      <point x="685.6501530151368" y="850" type="line"/>
      <point x="79.37299999999996" y="850" type="line"/>
      <point x="79.37299999999996" y="704.5217514038086" type="line"/>
    </contour>
  </outline>
</glyph>
<glyph name="eight" format="2">
  <advance width="718.6964166666668"/>
  <unicode hex="0038"/>
  <outline>
    <contour>
      <point x="54.37299999999996" y="237.65675" type="curve"/>
      <point x="54.372999999999976" y="98.35124053895535"/>
      <point x="190.84365639595637" y="-14.999999999999979"/>
      <point x="359.3482083333333" y="-15.0" type="curve" smooth="yes"/>
      <point x="527.8527602707104" y="-15.000000000000028"/>
      <point x="664.3234166666668" y="98.3512405389553"/>
      <point x="664.3234166666668" y="237.65675" type="curve"/>
      <point x="664.3234166666668" y="329.70080386870234"/>
      <point x="621.3339966317155" y="397.9811561323407"/>
      <point x="553.8710163574219" y="440.1933822631836" type="curve"/>
      <point x="611.6205679835755" y="480.66096558001334"/>
      <point x="647.8657500000002" y="543.0273849389869"/>
      <point x="647.8657500000002" y="625.2585833333333" type="curve"/>
      <point x="647.8657500000002" y="757.4455068370576"/>
      <point x="518.6781238616409" y="865.0"/>
      <point x="359.3482083333334" y="865.0" type="curve" smooth="yes"/>
      <point x="200.01829280502602" y="865.0"/>
      <point x="70.83066666666667" y="757.4455068370576"/>
      <point x="70.83066666666666" y="625.2585833333333" type="curve"/>
      <point x="70.83066666666666" y="543.0295590569647"/>
      <point x="107.07393212923692" y="480.6642634165309"/>
      <point x="164.82084545898437" y="440.1856002807617" type="curve"/>
      <point x="97.36042744052578" y="397.9779912332912"/>
      <point x="54.37299999999996" y="329.6986706857726"/>
    </contour>
    <contour>
      <point x="494.7307500000001" y="611.9099431426519" type="curve" smooth="yes"/>
      <point x="494.7307500000001" y="547.9699052029008"/>
      <point x="434.12149049549527" y="504.2981362853037"/>
      <point x="359.3482083333334" y="504.2981362853037" type="curve" smooth="yes"/>
      <point x="284.5749261711715" y="504.2981362853037"/>
      <point x="223.96566666666666" y="547.9699052029008"/>
      <point x="223.96566666666666" y="611.9099431426519" type="curve" smooth="yes"/>
      <point x="223.96566666666666" y="675.8499810824029"/>
      <point x="284.5749261711715" y="719.52175"/>
      <point x="359.3482083333334" y="719.52175" type="curve" smooth="yes"/>
      <point x="434.12149049549527" y="719.52175"/>
      <point x="494.7307500000001" y="675.8499810824029"/>
    </contour>
    <contour>
      <point x="511.1884166666668" y="251.00539019068145" type="curve" smooth="yes"/>
      <point x="511.1884166666668" y="179.3572616373819"/>
      <point x="443.2471041382059" y="130.47825"/>
      <point x="359.3482083333334" y="130.47825" type="curve" smooth="yes"/>
      <point x="275.44931252846084" y="130.47825"/>
      <point x="207.50799999999998" y="179.3572616373819"/>
      <point x="207.50799999999998" y="251.00539019068145" type="curve" smooth="yes"/>
      <point x="207.50799999999998" y="322.653518743981"/>
      <point x="275.44931252846084" y="371.5325303813629"/>
      <point x="359.3482083333334" y="371.5325303813629" type="curve" smooth="yes"/>
      <point x="443.2471041382059" y="371.5325303813629"/>
      <point x="511.1884166666668" y="322.653518743981"/>
    </contour>
  </outline>
</glyph>
<glyph name="nine" format="2">
  <advance width="724.9745272988506"/>
  <unicode hex="0039"/>
  <outline>
    <contour>
      <point x="598.145842506764" y="356.4382527814727" type="line"/>
      <point x="641.6117771493675" y="426.6505295485182"/>
      <point x="670.6015272988507" y="482.07571944510084"/>
      <point x="670.6015272988507" y="561.1317708333333" type="curve"/>
      <point x="670.6015272988507" y="731.1846608176913"/>
      <point x="532.5401536337833" y="865.0"/>
      <point x="362.48726364942524" y="865.0" type="curve" smooth="yes"/>
      <point x="192.43437366506737" y="865.0"/>
      <point x="54.372999999999976" y="731.1846608176913"/>
      <point x="54.37299999999996" y="561.1317708333333" type="curve"/>
      <point x="54.372999999999976" y="394.6393811708806"/>
      <point x="189.54369909069015" y="263.714716562949"/>
      <point x="356.03608875314285" y="263.714716562949" type="curve" smooth="yes"/>
      <point x="359.8722399033554" y="263.714716562949"/>
      <point x="363.6917627538954" y="263.78422285452837"/>
      <point x="367.4932316284179" y="263.9242172241211" type="curve"/>
      <point x="200.190642211914" y="0" type="line"/>
      <point x="377.4875401000976" y="0" type="line"/>
    </contour>
    <contour>
      <point x="517.4665272988507" y="561.1317708333333" type="curve" smooth="yes"/>
      <point x="517.4665272988507" y="473.68449865223727"/>
      <point x="448.5805350971482" y="402.74179166666664"/>
      <point x="362.48726364942524" y="402.74179166666664" type="curve" smooth="yes"/>
      <point x="276.3939922017023" y="402.74179166666664"/>
      <point x="207.50799999999992" y="473.68449865223727"/>
      <point x="207.50799999999992" y="561.1317708333333" type="curve" smooth="yes"/>
      <point x="207.50799999999992" y="648.5790430144294"/>
      <point x="276.3939922017023" y="719.5217500000001"/>
      <point x="362.48726364942524" y="719.5217500000001" type="curve" smooth="yes"/>
      <point x="448.5805350971482" y="719.5217500000001"/>
      <point x="517.4665272988507" y="648.5790430144294"/>
    </contour>
  </outline>
</glyph>
<glyph name="colon" format="2">
  <advance width="353.928559142857"/>
  <unicode hex="003A"/>
  <outline>
    <contour>
      <point x="278.5555591428571" y="526.6924704285715" type="curve" smooth="yes"/>
      <point x="278.5555591428571" y="582.762223525062"/>
      <point x="233.03403266791912" y="628.28375"/>
      <point x="176.96427957142853" y="628.28375" type="curve" smooth="yes"/>
      <point x="120.89452647493795" y="628.28375"/>
      <point x="75.37299999999996" y="582.762223525062"/>
      <point x="75.37299999999996" y="526.6924704285715" type="curve" smooth="yes"/>
      <point x="75.37299999999996" y="470.6227173320809"/>
      <point x="120.89452647493792" y="425.1011908571429"/>
      <point x="176.96427957142853" y="425.1011908571429" type="curve" smooth="yes"/>
      <point x="233.0340326679191" y="425.1011908571429"/>
      <point x="278.5555591428571" y="470.62271733208087"/>
    </contour>
    <contour>
      <point x="278.5555591428571" y="86.59127957142857" type="curve" smooth="yes"/>
      <point x="278.5555591428571" y="142.66103266791916"/>
      <point x="233.03403266791912" y="188.18255914285714"/>
      <point x="176.96427957142853" y="188.18255914285714" type="curve" smooth="yes"/>
      <point x="120.89452647493795" y="188.18255914285714"/>
      <point x="75.37299999999996" y="142.6610326679192"/>
      <point x="75.37299999999996" y="86.59127957142857" type="curve" smooth="yes"/>
      <point x="75.37299999999996" y="30.521526474937993"/>
      <point x="120.89452647493792" y="-15.0"/>
      <point x="176.96427957142853" y="-15.0" type="curve" smooth="yes"/>
      <point x="233.0340326679191" y="-15.000000000000014"/>
      <point x="278.5555591428571" y="30.521526474937957"/>
    </contour>
  </outline>
</glyph>
<glyph name="semicolon" format="2">
  <advance width="371.79822997667804"/>
  <unicode hex="003B"/>
  <outline>
    <contour>
      <point x="278.5555591428571" y="526.6924704285715" type="curve" smooth="yes"/>
      <point x="278.5555591428571" y="582.762223525062"/>
      <point x="233.03403266791912" y="628.28375"/>
      <point x="176.96427957142853" y="628.28375" type="curve" smooth="yes"/>
      <point x="120.89452647493795" y="628.28375"/>
      <point x="75.37299999999996" y="582.762223525062"/>
      <point x="75.37299999999996" y="526.6924704285715" type="curve" smooth="yes"/>
      <point x="75.37299999999996" y="470.6227173320809"/>
      <point x="120.89452647493792" y="425.1011908571429"/>
      <point x="176.96427957142853" y="425.1011908571429" type="curve" smooth="yes"/>
      <point x="233.0340326679191" y="425.1011908571429"/>
      <point x="278.5555591428571" y="470.62271733208087"/>
    </contour>
    <contour>
      <point x="75.37299999999996" y="86.59127957142857" type="curve" smooth="yes"/>
      <point x="75.37299999999996" y="30.521526474937993"/>
      <point x="120.89452647493792" y="-15.0"/>
      <point x="176.96427957142853" y="-15.0" type="curve"/>
      <point x="197.76475622639913" y="-15.0"/>
      <point x="217.1135600839638" y="-8.735215970328216"/>
      <point x="233.2251590880301" y="2.0304031372070312" type="curve"/>
      <point x="219.91532604137808" y="-77.24437662126937"/>
      <point x="172.1604206667621" y="-144.84285669752973"/>
      <point x="105.91210214222929" y="-184.85797119140622" type="curve"/>
      <point x="176.485023895159" y="-184.85797119140625" type="line"/>
      <point x="254.41001264598273" y="-136.99731691200154"/>
      <point x="306.4252299766781" y="-50.97439082200897"/>
      <point x="306.4252299766781" y="47.10147651167617" type="curve"/>
      <point x="306.4252299766782" y="91.11750162803976"/>
      <point x="287.83945948355733" y="123.05131296296652"/>
      <point x="274.93498210821565" y="139.86875530176707" type="curve"/>
      <point x="246.8146876668413" y="176.51583650953165"/>
      <point x="206.70287106858973" y="188.18255914285714"/>
      <point x="176.96427957142853" y="188.18255914285714" type="curve"/>
      <point x="120.89452647493792" y="188.18255914285714"/>
      <point x="75.37299999999996" y="142.66103266791916"/>
    </contour>
  </outline>
</glyph>
<glyph name="less" format="2">
  <advance width="693.0297524414062"/>
  <unicode hex="003C"/>
  <outline>
    <contour>
      <point x="633.6567524414063" y="105.07437133789062" type="line"/>
      <point x="633.6567524414063" y="271.2135543823242" type="line"/>
      <point x="336.8136661987304" y="425" type="line"/>
      <point x="633.6567524414063" y="578.7864456176758" type="line"/>
      <point x="633.6567524414063" y="744.9256286621094" type="line"/>
      <point x="20.372999999999962" y="425" type="line"/>
    </contour>
  </outline>
</glyph>
<glyph name="equal" format="2">
  <advance width="805.3135000000001"/>
  <unicode hex="003D"/>
  <outline>
    <contour>
      <point x="89.37299999999996" y="484.3595" type="line"/>
      <point x="715.9405000000002" y="484.3595" type="line"/>
      <point x="715.9405000000002" y="633.7595" type="line"/>
      <point x="89.37299999999996" y="633.7595" type="line"/>
    </contour>
    <contour>
      <point x="89.37299999999996" y="216.2405" type="line"/>
      <point x="715.9405000000002" y="216.2405" type="line"/>
      <point x="715.9405000000002" y="365.6405" type="line"/>
      <point x="89.37299999999996" y="365.6405" type="line"/>
    </contour>
  </outline>
</glyph>
<glyph name="greater" format="2">
  <advance width="693.0297524414062"/>
  <unicode hex="003E"/>
  <outline>
    <contour>
      <point x="59.37299999999996" y="105.07437133789062" type="line"/>
      <point x="672.6567524414063" y="425" type="line"/>
      <point x="59.37299999999996" y="744.9256286621094" type="line"/>
      <point x="59.37299999999996" y="578.7864532470703" type="line"/>
      <point x="356.21609387207025" y="425" type="line"/>
      <point x="59.37299999999996" y="271.2135467529297" type="line"/>
    </contour>
  </outline>
</glyph>
<glyph name="question" format="2">
  <advance width="596.5449534795852"/>
  <unicode hex="003F"/>
  <outline>
    <contour>
      <point x="235.83197728910892" y="465.0083642857143" type="curve"/>
      <point x="211.0203969736828" y="465.00836419911735"/>
      <point x="180.80344353845953" y="468.43619730176175"/>
      <point x="148.4478443603515" y="479.7653350830078" type="curve"/>
      <point x="155.94485363769525" y="250.49502563476562" type="line"/>
      <point x="280.4832905273437" y="250.49502563476562" type="line"/>
      <point x="285.25811657714837" y="323.50579833984375" type="line"/>
      <point x="422.49614598326383" y="341.7353721970444"/>
      <point x="528.1719534795852" y="455.3188383075196"/>
      <point x="528.1719534795852" y="592.9735238095238" type="curve"/>
      <point x="528.1719534795852" y="743.094715982091"/>
      <point x="408.6470831329584" y="865.0"/>
      <point x="261.45897728910893" y="865.0" type="curve"/>
      <point x="199.80077434440284" y="865.0"/>
      <point x="142.5801478355229" y="847.7866908749797"/>
      <point x="95.37299999999996" y="817.9750137329102" type="curve"/>
      <point x="95.37299999999996" y="658.888427734375" type="line"/>
      <point x="134.87703715276763" y="696.691344527626"/>
      <point x="188.33165302222892" y="719.8759833333334"/>
      <point x="247.2896439557756" y="719.8759833333332" type="curve"/>
      <point x="318.14830595981687" y="719.8759833333334"/>
      <point x="375.0369534795851" y="663.3089328323739"/>
      <point x="375.0369534795851" y="592.9735238095238" type="curve"/>
      <point x="375.0369534795851" y="520.1341857019967"/>
      <point x="312.686155767205" y="465.0083642857143"/>
    </contour>
    <contour>
      <point x="319.8053525091418" y="86.59127957142857" type="curve" smooth="yes"/>
      <point x="319.8053525091418" y="142.66103266791916"/>
      <point x="274.2838260342038" y="188.18255914285714"/>
      <point x="218.21407293771324" y="188.18255914285714" type="curve" smooth="yes"/>
      <point x="162.14431984122263" y="188.18255914285714"/>
      <point x="116.62279336628467" y="142.6610326679192"/>
      <point x="116.62279336628467" y="86.59127957142857" type="curve" smooth="yes"/>
      <point x="116.62279336628467" y="30.521526474937993"/>
      <point x="162.14431984122263" y="-15.0"/>
      <point x="218.21407293771324" y="-15.0" type="curve" smooth="yes"/>
      <point x="274.2838260342038" y="-15.000000000000014"/>
      <point x="319.80535250914176" y="30.521526474937957"/>
    </contour>
  </outline>
</glyph>
<glyph name="at" format="2">
  <advance width="1078.746"/>
  <unicode hex="0040"/>
  <outline>
    <contour>
      <point x="137.36475357142854" y="425.00000000000006" type="curve"/>
      <point x="137.36475357142854" y="646.8743893677901"/>
      <point x="317.49861063220993" y="827.0082464285714"/>
      <point x="539.373" y="827.0082464285714" type="curve" smooth="yes"/>
      <point x="761.24738936779" y="827.0082464285714"/>
      <point x="941.3812464285714" y="646.8743893677901"/>
      <point x="941.3812464285714" y="425.0" type="curve"/>
      <point x="941.3812464285714" y="360.5898204895786"/>
      <point x="927.4862464552886" y="276.80100691326527"/>
      <point x="871.2609608290817" y="276.80100691326527" type="curve"/>
      <point x="813.935830626569" y="276.80100691326527"/>
      <point x="807.208893140035" y="351.90358878223606"/>
      <point x="807.2088926415122" y="467.5" type="curve"/>
      <point x="807.2088917236329" y="680.3358917236328" type="line"/>
      <point x="664.1871784667969" y="680.3358917236328" type="line"/>
      <point x="664.1871784667969" y="653.2698135375977" type="line"/>
      <point x="625.8921265491246" y="679.7980604080705"/>
      <point x="579.4327728739786" y="695.3358928571429"/>
      <point x="529.373" y="695.3358928571429" type="curve"/>
      <point x="376.031197637032" y="695.3358928571429"/>
      <point x="251.53710714285705" y="570.8418023629679"/>
      <point x="251.53710714285705" y="417.5" type="curve" smooth="yes"/>
      <point x="251.53710714285705" y="264.158197637032"/>
      <point x="376.03119763703194" y="139.66410714285715"/>
      <point x="529.3729999999999" y="139.66410714285712" type="curve"/>
      <point x="602.4522162138768" y="139.66410714285712"/>
      <point x="668.6439874541269" y="169.3873032743288"/>
      <point x="716.50825390625" y="217.4053497314453" type="curve"/>
      <point x="748.6857300171497" y="172.2499390082737"/>
      <point x="794.7342564933542" y="144.66410714285712"/>
      <point x="853.3748894005103" y="144.66410714285712" type="curve"/>
      <point x="986.1051616523343" y="144.66410714285712"/>
      <point x="1054.373" y="270.1297589703784"/>
      <point x="1054.373" y="425.0" type="curve"/>
      <point x="1054.373" y="709.2362353000001"/>
      <point x="823.6092353000001" y="940.0"/>
      <point x="539.373" y="940.0" type="curve" smooth="yes"/>
      <point x="255.13676469999996" y="940.0"/>
      <point x="24.372999999999962" y="709.2362353000001"/>
      <point x="24.372999999999962" y="425.00000000000006" type="curve"/>
      <point x="24.372999999999976" y="140.7637646999999"/>
      <point x="255.13676469999973" y="-89.99999999999997"/>
      <point x="539.3729999999999" y="-90.0" type="curve"/>
      <point x="630.3518907467527" y="-90.0"/>
      <point x="718.9024458990054" y="-66.44741510389301"/>
      <point x="796.873" y="-22.714317321777344" type="curve"/>
      <point x="796.873" y="102.42924499511719" type="line"/>
      <point x="722.8916295134541" y="51.06403153746591"/>
      <point x="634.4771574526949" y="22.991753571428585"/>
      <point x="543.1683571428571" y="22.99175357142859" type="curve"/>
      <point x="319.34724515668614" y="22.991753571428617"/>
      <point x="137.36475357142854" y="203.13550643011442"/>
    </contour>
    <contour>
      <point x="662.3767788010205" y="417.5" type="curve" smooth="yes"/>
      <point x="662.3767788010205" y="339.803991165872"/>
      <point x="604.0321589490363" y="276.8394711989796"/>
      <point x="529.373" y="276.8394711989796" type="curve" smooth="yes"/>
      <point x="454.7138410509637" y="276.8394711989796"/>
      <point x="396.3692211989795" y="339.803991165872"/>
      <point x="396.3692211989795" y="417.5" type="curve" smooth="yes"/>
      <point x="396.3692211989795" y="495.19600883412807"/>
      <point x="454.7138410509637" y="558.1605288010204"/>
      <point x="529.373" y="558.1605288010204" type="curve" smooth="yes"/>
      <point x="604.0321589490363" y="558.1605288010204"/>
      <point x="662.3767788010205" y="495.19600883412807"/>
    </contour>
  </outline>
</glyph>
<glyph name="A" format="2">
  <advance width="812.83730859375"/>
  <unicode hex="0041"/>
  <anchor x="406.4186547619047" y="999.4372101567753" name="top" identifier="top"/>
  <anchor x="406.4186547619047" y="-174.34341184957125" name="below" identifier="below"/>
  <anchor x="824.4643095238096" y="0" name="ogonek" identifier="ogonek"/>
  <outline>
    <contour>
      <point x="-11.627000000000038" y="0" type="line"/>
      <point x="143.6398151855468" y="0" type="line"/>
      <point x="211.47270855712884" y="143.1786651611328" type="line"/>
      <point x="593.141898010254" y="143.1786651611328" type="line"/>
      <point x="660.974791381836" y="0" type="line"/>
      <point x="824.46430859375" y="0" type="line"/>
      <point x="406.41865429687493" y="877.0846633911133" type="line"/>
    </contour>
    <contour>
      <point x="402.30730328369134" y="545.9838485717773" type="line"/>
      <point x="528.9018848876954" y="278.77362060546875" type="line"/>
      <point x="275.71272167968743" y="278.77362060546875" type="line"/>
    </contour>
  </outline>
</glyph>
<glyph name="D" format="2">
  <advance width="815.1249880952381"/>
  <unicode hex="0044"/>
  <anchor x="389.96399489795914" y="999.4372101567753" name="top" identifier="top"/>
  <anchor x="389.96399489795914" y="-174.34341184957125" name="below" identifier="below"/>
  <anchor x="389.96399489795914" y="0" name="bottom" identifier="bottom"/>
  <anchor x="165.94049999999993" y="425.0" name="stroke" identifier="stroke"/>
  <outline>
    <contour>
      <point x="89.37299999999996" y="0" type="line"/>
      <point x="315.7519901733398" y="0.0" type="line"/>
      <point x="685.1400815808302" y="0.0"/>
      <point x="790.7519880952382" y="256.7957197583929"/>
      <point x="790.7519880952382" y="425.0" type="curve" smooth="yes"/>
      <point x="790.7519880952382" y="593.2042802416071"/>
      <point x="685.1400795027284" y="850.0"/>
      <point x="315.75198809523806" y="850.0" type="curve"/>
      <point x="89.37299999999996" y="850" type="line"/>
    </contour>
    <contour>
      <point x="242.5080021362304" y="145.4782485961914" type="line"/>
      <point x="242.5080021362304" y="704.5217514038086" type="line"/>
      <point x="311.92361340332025" y="704.5217514038086" type="line"/>
      <point x="592.5863772361023" y="704.5217514038086"/>
      <point x="635.0161221331692" y="519.6858606805637"/>
      <point x="635.0161221331692" y="425.0" type="curve" smooth="yes"/>
      <point x="635.0161221331692" y="330.31413931943626"/>
      <point x="592.5863769280202" y="145.47825271159164"/>
      <point x="311.92361309523807" y="145.4782494122173" type="curve"/>
    </contour>
  </outline>
</glyph>
<glyph name="E" format="2">
  <advance width="655.9087349853515"/>
  <unicode hex="0045"/>
  <anchor x="345.23983779761903" y="999.4372101567753" name="top" identifier="top"/>
  <anchor x="340.454369047619" y="-174.34341184957125" name="below" identifier="below"/>
  <anchor x="345.23983779761903" y="0" name="bottom" identifier="bottom"/>
  <anchor x="591.5357380952381" y="0" name="ogonek" identifier="ogonek"/>
  <outline>
    <contour>
      <point x="89.37299999999996" y="0" type="line"/>
      <point x="591.5357349853516" y="0" type="line"/>
      <point x="591.5357349853516" y="145.4782485961914" type="line"/>
      <point x="242.5080021362304" y="145.4782485961914" type="line"/>
      <point x="242.5080021362304" y="359.1453628540039" type="line"/>
      <point x="561.5357349853516" y="359.1453628540039" type="line"/>
      <point x="561.5357349853516" y="497.3123092651367" type="line"/>
      <point x="242.5080021362304" y="497.3123092651367" type="line"/>
      <point x="242.5080021362304" y="704.5217514038086" type="line"/>
      <point x="591.5357349853516" y="704.5217514038086" type="line"/>
      <point x="591.5357349853516" y="850" type="line"/>
      <point x="89.37299999999996" y="850" type="line"/>
    </contour>
  </outline>
</glyph>
<glyph name="F" format="2">
  <advance width="624.9563576660156"/>
  <unicode hex="0046"/>
  <anchor x="347.26364732142855" y="999.4372101567753" name="top" identifier="top"/>
  <anchor x="242.50799999999992" y="0" name="lefthook" identifier="lefthook"/>
  <outline>
    <contour>
      <point x="89.37299999999996" y="0" type="line"/>
      <point x="242.5080021362304" y="0" type="line"/>
      <point x="242.5080021362304" y="356.16407012939453" type="line"/>
      <point x="550.5833576660157" y="356.16407012939453" type="line"/>
      <point x="550.5833576660157" y="496.75125885009766" type="line"/>
      <point x="242.5080021362304" y="496.75125885009766" type="line"/>
      <point x="242.5080021362304" y="704.5217514038086" type="line"/>
      <point x="595.5833576660157" y="704.5217514038086" type="line"/>
      <point x="595.5833576660157" y="850" type="line"/>
      <point x="89.37299999999996" y="850" type="line"/>
    </contour>
  </outline>
</glyph>
<glyph name="H" format="2">
  <advance width="798.5438591918945"/>
  <unicode hex="0048"/>
  <anchor x="399.27192857142853" y="999.4372101567753" name="top" identifier="top"/>
  <anchor x="399.27192857142853" y="-174.34341184957125" name="below" identifier="below"/>
  <anchor x="399.27192857142853" y="673.8695625" name="stroke" identifier="stroke"/>
  <anchor x="165.94049999999993" y="0" name="bottom" identifier="bottom"/>
  <outline>
    <contour>
      <point x="89.37299999999996" y="0" type="line"/>
      <point x="242.5080021362304" y="0" type="line"/>
      <point x="242.5080021362304" y="357.26087188720703" type="line"/>
      <point x="556.0358570556641" y="357.26087188720703" type="line"/>
      <point x="556.0358570556641" y="0" type="line"/>
      <point x="709.1708591918946" y="0" type="line"/>
      <point x="709.1708591918946" y="850" type="line"/>
      <point x="556.0358570556641" y="850" type="line"/>
      <point x="556.0358570556641" y="502.73912811279297" type="line"/>
      <point x="242.5080021362304" y="502.73912811279297" type="line"/>
      <point x="242.5080021362304" y="850" type="line"/>
      <point x="89.37299999999996" y="850" type="line"/>
    </contour>
  </outline>
</glyph>
<glyph name="I" format="2">
  <advance width="335.70243103448263"/>
  <unicode hex="0049"/>
  <anchor x="167.85121551724131" y="999.4372101567753" name="top" identifier="top"/>
  <anchor x="167.85121551724131" y="-174.34341184957125" name="below" identifier="below"/>
  <anchor x="246.3294310344827" y="0" name="ogonek" identifier="ogonek"/>
  <anchor x="167.85121551724131" y="425.0" name="stroke" identifier="stroke"/>
  <outline>
    <contour>
      <point x="89.37299999999996" y="0" type="line"/>
      <point x="246.3294310344827" y="0" type="line"/>
      <point x="246.3294310344827" y="850" type="line"/>
      <point x="89.37299999999996" y="850" type="line"/>
    </contour>
  </outline>
</glyph>
<glyph name="J" format="2">
  <advance width="566.5731026611328"/>
  <unicode hex="004A"/>
  <anchor x="416.6325999589491" y="999.4372101567753" name="top" identifier="top"/>
  <outline>
    <contour>
      <point x="199.61739757799666" y="130.12401666666665" type="curve"/>
      <point x="128.25152145207102" y="130.12401666666673"/>
      <point x="64.17381462749496" y="161.0584886149167"/>
      <point x="20.372999999999962" y="210.0892105102539" type="curve"/>
      <point x="20.372999999999962" y="46.694358825683594" type="line"/>
      <point x="71.077547047099" y="7.916950127781831"/>
      <point x="135.98929829413248" y="-14.999999999999991"/>
      <point x="206.70206424466335" y="-15.0" type="curve"/>
      <point x="302.8416566617507" y="-15.0"/>
      <point x="493.2000988811496" y="28.876099775690363"/>
      <point x="493.2001001891204" y="313.00596674876846" type="curve"/>
      <point x="493.2001026611328" y="850" type="line"/>
      <point x="340.0651005249023" y="850" type="line"/>
      <point x="340.0651005249023" y="319.43455139581454" type="line"/>
      <point x="340.0651005249023" y="272.396671746362"/>
      <point x="336.7462573478762" y="130.12401666666665"/>
    </contour>
  </outline>
</glyph>
<glyph name="K" format="2">
  <advance width="744.1882378540039"/>
  <unicode hex="004B"/>
  <anchor x="359.7007551020407" y="999.4372101567753" name="top" identifier="top"/>
  <anchor x="367.65157142857134" y="0" name="bottom" identifier="bottom"/>
  <anchor x="367.65157142857134" y="-174.34341184957125" name="below" identifier="below"/>
  <outline>
    <contour>
      <point x="89.37299999999996" y="0" type="line"/>
      <point x="242.5080021362304" y="0" type="line"/>
      <point x="242.5080021362304" y="302.6395568847656" type="line"/>
      <point x="265.7307041625976" y="328.72530364990234" type="line"/>
      <point x="559.5116032104493" y="0" type="line"/>
      <point x="759.815237854004" y="0" type="line"/>
      <point x="364.2406681518554" y="439.38018798828125" type="line"/>
      <point x="729.792906616211" y="850" type="line"/>
      <point x="543.8120106201172" y="850" type="line"/>
      <point x="242.5080021362304" y="509.5802459716797" type="line"/>
      <point x="242.5080021362304" y="850" type="line"/>
      <point x="89.37299999999996" y="850" type="line"/>
    </contour>
  </outline>
</glyph>
<glyph name="L" format="2">
  <advance width="584.4801690063476"/>
  <unicode hex="004C"/>
  <anchor x="165.94049999999993" y="999.4372101567753" name="top" identifier="top"/>
  <anchor x="322.2400833333333" y="0" name="bottom" identifier="bottom"/>
  <anchor x="322.2400833333333" y="-174.34341184957125" name="below" identifier="below"/>
  <anchor x="350.43487400211546" y="850" name="right" identifier="right"/>
  <anchor x="165.94049999999993" y="425.0" name="stroke" identifier="stroke"/>
  <anchor x="470.534134037931" y="501.5675" name="dotmiddle" identifier="dotmiddle"/>
  <outline>
    <contour>
      <point x="89.37299999999996" y="0" type="line"/>
      <point x="555.1071690063477" y="0" type="line"/>
      <point x="555.1071690063477" y="145.4782485961914" type="line"/>
      <point x="242.5080021362304" y="145.4782485961914" type="line"/>
      <point x="242.5080021362304" y="850" type="line"/>
      <point x="89.37299999999996" y="850" type="line"/>
    </contour>
  </outline>
</glyph>
<glyph name="M" format="2">
  <advance width="974.6735894165039"/>
  <unicode hex="004D"/>
  <anchor x="487.33679464285706" y="999.4372101567753" name="top" identifier="top"/>
  <anchor x="487.33679464285706" y="-174.34341184957125" name="below" identifier="below"/>
  <outline>
    <contour>
      <point x="885.300589416504" y="0" type="line"/>
      <point x="885.300589416504" y="877.0846633911133" type="line"/>
      <point x="487.33679852294915" y="453.7114486694336" type="line"/>
      <point x="89.37299999999996" y="877.0846633911133" type="line"/>
      <point x="89.37299999999996" y="0" type="line"/>
      <point x="234.85124859619134" y="0" type="line"/>
      <point x="234.85124859619134" y="506.46031188964844" type="line"/>
      <point x="482.0826099853515" y="243.4435806274414" type="line"/>
      <point x="732.1655872802735" y="509.4939956665039" type="line"/>
      <point x="732.1655872802735" y="0" type="line"/>
    </contour>
  </outline>
</glyph>
<glyph name="N" format="2">
  <advance width="893.721212097168"/>
  <unicode hex="004E"/>
  <anchor x="446.8606041666666" y="999.4372101567753" name="top" identifier="top"/>
  <anchor x="446.8606041666666" y="-174.34341184957125" name="below" identifier="below"/>
  <anchor x="446.8606041666666" y="0" name="bottom" identifier="bottom"/>
  <anchor x="804.3482083333333" y="0" name="right" identifier="right"/>
  <anchor x="234.85124999999994" y="0" name="lefthook" identifier="lefthook"/>
  <outline>
    <contour>
      <point x="234.85124859619134" y="525.1551208496094" type="line"/>
      <point x="804.348212097168" y="-27.08466339111328" type="line"/>
      <point x="804.348212097168" y="850" type="line"/>
      <point x="658.8699558715821" y="850" type="line"/>
      <point x="658.8699558715821" y="324.8448791503906" type="line"/>
      <point x="89.37299999999996" y="877.0846633911133" type="line"/>
      <point x="89.37299999999996" y="0" type="line"/>
      <point x="234.85124859619134" y="0" type="line"/>
    </contour>
  </outline>
</glyph>
<glyph name="O" format="2">
  <advance width="941.3468659620689"/>
  <unicode hex="004F"/>
  <anchor x="470.6734329810344" y="999.4372101567753" name="top" identifier="top"/>
  <anchor x="470.6734329810344" y="-174.34341184957125" name="below" identifier="below"/>
  <anchor x="470.6734329810344" y="425.0" name="stroke" identifier="stroke"/>
  <anchor x="707.5191125000001" y="664.5766666666667" name="horn" identifier="horn"/>
  <outline>
    <contour>
      <point x="916.973865962069" y="425.0" type="curve" smooth="yes"/>
      <point x="916.973865962069" y="671.3199123947363"/>
      <point x="716.9933453757708" y="865.0"/>
      <point x="470.6734329810344" y="865.0" type="curve" smooth="yes"/>
      <point x="224.3535205862981" y="865.0"/>
      <point x="24.372999999999962" y="671.3199123947363"/>
      <point x="24.372999999999962" y="425.0" type="curve" smooth="yes"/>
      <point x="24.372999999999962" y="178.68008760526368"/>
      <point x="224.3535205862981" y="-15.0"/>
      <point x="470.6734329810344" y="-15.0" type="curve" smooth="yes"/>
      <point x="716.9933453757708" y="-15.0"/>
      <point x="916.973865962069" y="178.68008760526368"/>
    </contour>
    <contour>
      <point x="755.753675" y="425.0" type="curve" smooth="yes"/>
      <point x="755.753675" y="262.4509059285789"/>
      <point x="632.9625484511616" y="130.47825"/>
      <point x="470.6734329810344" y="130.47825" type="curve" smooth="yes"/>
      <point x="308.3843175109073" y="130.47825"/>
      <point x="185.5931909620689" y="262.4509059285789"/>
      <point x="185.5931909620689" y="425.0" type="curve" smooth="yes"/>
      <point x="185.5931909620689" y="587.5490940714211"/>
      <point x="308.3843175109073" y="719.52175"/>
      <point x="470.6734329810344" y="719.52175" type="curve" smooth="yes"/>
      <point x="632.9625484511616" y="719.52175"/>
      <point x="755.753675" y="587.5490940714211"/>
    </contour>
  </outline>
</glyph>
<glyph name="P" format="2">
  <advance width="670.5039761904762"/>
  <unicode hex="0050"/>
  <anchor x="350.75198809523806" y="999.4372101567753" name="top" identifier="top"/>
  <outline>
    <contour>
      <point x="89.37299999999996" y="0" type="line"/>
      <point x="242.5080021362304" y="0" type="line"/>
      <point x="242.5080021362304" y="297.24202728271484" type="line"/>
      <point x="315.7519901733398" y="297.24202728271484" type="line"/>
      <point x="598.7952342378786" y="297.24202728271484"/>
      <point x="642.1309761904763" y="483.7860154664071"/>
      <point x="642.1309761904763" y="573.6210119047619" type="curve" smooth="yes"/>
      <point x="642.1309761904763" y="663.4560083431165"/>
      <point x="598.7952321597769" y="850.0"/>
      <point x="315.75198809523806" y="850.0" type="curve"/>
      <point x="89.37299999999996" y="850" type="line"/>
    </contour>
    <contour>
      <point x="242.5080021362304" y="442.72027587890625" type="line"/>
      <point x="242.5080021362304" y="704.5217514038086" type="line"/>
      <point x="326.6517066184709" y="704.5217514038086" type="line"/>
      <point x="450.1728645724218" y="704.5217514038086"/>
      <point x="487.6955432094417" y="643.9542830762778"/>
      <point x="487.6955432094417" y="573.6210119047619" type="curve" smooth="yes"/>
      <point x="487.6955432094417" y="503.287740733246"/>
      <point x="450.17286426433964" y="442.72027228023074"/>
      <point x="326.65170610010705" y="442.7202744207593" type="curve"/>
    </contour>
  </outline>
</glyph>
<glyph name="Q" format="2">
  <advance width="973.5138985595703"/>
  <unicode hex="0051"/>
  <outline>
    <contour>
      <point x="916.9738659620689" y="424.99999999999994" type="curve" smooth="yes"/>
      <point x="916.973865962069" y="671.3199123947363"/>
      <point x="716.9933453757708" y="865.0"/>
      <point x="470.6734329810344" y="865.0" type="curve" smooth="yes"/>
      <point x="224.3535205862981" y="865.0"/>
      <point x="24.372999999999962" y="671.3199123947363"/>
      <point x="24.372999999999962" y="425.0" type="curve" smooth="yes"/>
      <point x="24.372999999999962" y="178.68008760526368"/>
      <point x="224.3535205862981" y="-15.0"/>
      <point x="470.6734329810344" y="-15.0" type="curve" smooth="yes"/>
      <point x="563.1621263268348" y="-15.0"/>
      <point x="649.1175802436819" y="12.306322667692182"/>
      <point x="720.4065998535157" y="59.46070098876953" type="curve"/>
      <point x="779.8673008422852" y="0" type="line"/>
      <point x="983.1408985595704" y="0" type="line"/>
      <point x="825.8959415893555" y="157.24495697021484" type="line"/>
      <point x="883.0338101282053" y="230.98251239522864"/>
      <point x="916.973865962069" y="323.52432465047764"/>
    </contour>
    <contour>
      <point x="755.753675" y="425.0" type="curve" smooth="yes"/>
      <point x="755.753675" y="262.467857160954"/>
      <point x="630.6057898071405" y="130.47825"/>
      <point x="470.6734329810344" y="130.47825" type="curve" smooth="yes"/>
      <point x="310.74107615492846" y="130.47825"/>
      <point x="185.5931909620689" y="262.467857160954"/>
      <point x="185.5931909620689" y="425.0" type="curve" smooth="yes"/>
      <point x="185.5931909620689" y="587.532142839046"/>
      <point x="310.74107615492846" y="719.52175"/>
      <point x="470.6734329810344" y="719.52175" type="curve" smooth="yes"/>
      <point x="630.6057898071405" y="719.52175"/>
      <point x="755.753675" y="587.532142839046"/>
    </contour>
  </outline>
</glyph>
<glyph name="R" format="2">
  <advance width="703.7162987670898"/>
  <unicode hex="0052"/>
  <anchor x="351.70139880952377" y="999.4372101567753" name="top" identifier="top"/>
  <anchor x="351.70139880952377" y="0" name="bottom" identifier="bottom"/>
  <anchor x="351.70139880952377" y="-174.34341184957125" name="below" identifier="below"/>
  <outline>
    <contour>
      <point x="89.37299999999996" y="0" type="line"/>
      <point x="242.5080021362304" y="0" type="line"/>
      <point x="242.5080021362304" y="307.36106872558594" type="line"/>
      <point x="326.91961560058587" y="307.36106872558594" type="line"/>
      <point x="526.0006931762696" y="0" type="line"/>
      <point x="699.3432987670899" y="0" type="line"/>
      <point x="483.3754108886718" y="330.9234619140625" type="line"/>
      <point x="578.0227842380248" y="373.29841534029754"/>
      <point x="644.0297976190477" y="468.3419185397397"/>
      <point x="644.0297976190476" y="578.6805357142857" type="curve" smooth="yes"/>
      <point x="644.0297976190477" y="666.8637583294246"/>
      <point x="601.9901880040449" y="850.0"/>
      <point x="322.7103333333333" y="850.0" type="curve"/>
      <point x="89.37299999999996" y="850" type="line"/>
    </contour>
    <contour>
      <point x="242.5080021362304" y="448.5932846069336" type="line"/>
      <point x="242.5080021362304" y="704.5217514038086" type="line"/>
      <point x="333.5127747478822" y="704.5217514038086" type="line"/>
      <point x="371.815595870249" y="704.5217514038086"/>
      <point x="489.59436463801313" y="702.3210922607004"/>
      <point x="489.59436463801313" y="576.5575184729064" type="curve" smooth="yes"/>
      <point x="489.59436463801313" y="450.7939489029452"/>
      <point x="371.81560334924336" y="448.5932870001075"/>
      <point x="333.51277589407715" y="448.59328629121393" type="curve"/>
    </contour>
  </outline>
</glyph>
<glyph name="T" format="2">
  <advance width="651.9801690063476"/>
  <unicode hex="0054"/>
  <anchor x="325.9900833333333" y="999.4372101567753" name="top" identifier="top"/>
  <anchor x="325.9900833333333" y="-174.34341184957125" name="below" identifier="below"/>
  <anchor x="325.9900833333333" y="0" name="bottom" identifier="bottom"/>
  <anchor x="325.9900833333333" y="386.71625" name="stroke" identifier="stroke"/>
  <outline>
    <contour>
      <point x="402.557585571289" y="0" type="line"/>
      <point x="402.557585571289" y="704.5217514038086" type="line"/>
      <point x="622.6071690063477" y="704.5217514038086" type="line"/>
      <point x="622.6071690063477" y="850" type="line"/>
      <point x="29.372999999999962" y="850" type="line"/>
      <point x="29.372999999999962" y="704.5217514038086" type="line"/>
      <point x="249.42258343505853" y="704.5217514038086" type="line"/>
      <point x="249.42258343505853" y="0" type="line"/>
    </contour>
  </outline>
</glyph>
<glyph name="V" format="2">
  <advance width="794.7182595214844"/>
  <unicode hex="0056"/>
  <anchor x="397.3591309523809" y="999.4372101567753" name="top" identifier="top"/>
  <anchor x="397.3591309523809" y="-174.34341184957125" name="below" identifier="below"/>
  <outline>
    <contour>
      <point x="810.3452595214844" y="850" type="line"/>
      <point x="652.1625736694336" y="850" type="line"/>
      <point x="401.5735538940429" y="311.3673629760742" type="line"/>
      <point x="150.98453411865228" y="850" type="line"/>
      <point x="-15.627000000000038" y="850" type="line"/>
      <point x="397.3591297607421" y="-27.08466339111328" type="line"/>
    </contour>
  </outline>
</glyph>
<glyph name="W" format="2">
  <advance width="1158.555524536133"/>
  <unicode hex="0057"/>
  <anchor x="579.277761904762" y="999.4372101567753" name="top" identifier="top"/>
  <anchor x="579.277761904762" y="-174.34341184957125" name="below" identifier="below"/>
  <outline>
    <contour>
      <point x="1166.1825245361329" y="850" type="line"/>
      <point x="1012.0487888793946" y="850" type="line"/>
      <point x="827.6971043090821" y="344.85948944091797" type="line"/>
      <point x="585.3838795166016" y="850" type="line"/>
      <point x="581.3914555053711" y="850" type="line"/>
      <point x="339.078223083496" y="344.85948944091797" type="line"/>
      <point x="154.72653851318353" y="850" type="line"/>
      <point x="-7.627000000000038" y="850" type="line"/>
      <point x="314.5614002685546" y="-27.08466339111328" type="line"/>
      <point x="579.2777622680665" y="521.6445693969727" type="line"/>
      <point x="843.9941242675782" y="-27.08466339111328" type="line"/>
    </contour>
  </outline>
</glyph>
<glyph name="X" format="2">
  <advance width="779.6488167724608"/>
  <unicode hex="0058"/>
  <anchor x="389.82440804230214" y="999.4372101567753" name="top" identifier="top"/>
  <outline>
    <contour>
      <point x="764.2758167724609" y="0" type="line"/>
      <point x="485.81181988525384" y="444.42537689208984" type="line"/>
      <point x="740.4138630371093" y="850" type="line"/>
      <point x="570.9807194213867" y="850" type="line"/>
      <point x="393.6588047485351" y="563.2446670532227" type="line"/>
      <point x="216.587973449707" y="850" type="line"/>
      <point x="38.23760113525387" y="850" type="line"/>
      <point x="293.355078552246" y="443.0280456542969" type="line"/>
      <point x="15.372999999999962" y="0" type="line"/>
      <point x="184.88732037353512" y="0" type="line"/>
      <point x="385.50788769531243" y="324.28136444091797" type="line"/>
      <point x="585.8443821411132" y="0" type="line"/>
    </contour>
  </outline>
</glyph>
<glyph name="Y" format="2">
  <advance width="761.976239868164"/>
  <unicode hex="0059"/>
  <anchor x="380.98811904761897" y="999.4372101567753" name="top" identifier="top"/>
  <anchor x="380.98811904761897" y="-174.34341184957125" name="below" identifier="below"/>
  <outline>
    <contour>
      <point x="304.420622680664" y="0" type="line"/>
      <point x="457.5556171875" y="0" type="line"/>
      <point x="457.5556171875" y="348.2091979980469" type="line"/>
      <point x="751.6032398681641" y="850" type="line"/>
      <point x="585.1167820434571" y="850" type="line"/>
      <point x="385.3995350341796" y="506.8954086303711" type="line"/>
      <point x="185.68228802490228" y="850" type="line"/>
      <point x="10.372999999999962" y="850" type="line"/>
      <point x="304.420622680664" y="348.2091979980469" type="line"/>
    </contour>
  </outline>
</glyph>
<glyph name="Z" format="2">
  <advance width="697.1230217895508"/>
  <unicode hex="005A"/>
  <anchor x="350.06151190476186" y="999.4372101567753" name="top" identifier="top"/>
  <anchor x="350.06151190476186" y="-174.34341184957125" name="below" identifier="below"/>
  <anchor x="350.06151190476186" y="425.0" name="stroke" identifier="stroke"/>
  <outline>
    <contour>
      <point x="293.46186718749993" y="145.4782485961914" type="line"/>
      <point x="652.7500217895508" y="850" type="line"/>
      <point x="62.37299999999996" y="850" type="line"/>
      <point x="62.37299999999996" y="704.5217514038086" type="line"/>
      <point x="406.6611546020507" y="704.5217514038086" type="line"/>
      <point x="47.37299999999996" y="0" type="line"/>
      <point x="647.7500217895508" y="0" type="line"/>
      <point x="647.7500217895508" y="145.4782485961914" type="line"/>
    </contour>
  </outline>
</glyph>
<glyph name="bracketleft" format="2">
  <advance width="419.88100213623034"/>
  <unicode hex="005B"/>
  <outline>
    <contour>
      <point x="89.37299999999996" y="-113.28375244140625" type="line"/>
      <point x="392.5080021362304" y="-113.28375244140625" type="line"/>
      <point x="392.5080021362304" y="32.19450378417969" type="line"/>
      <point x="242.5080021362304" y="32.19450378417969" type="line"/>
      <point x="242.5080021362304" y="817.8054962158203" type="line"/>
      <point x="392.5080021362304" y="817.8054962158203" type="line"/>
      <point x="392.5080021362304" y="963.2837524414062" type="line"/>
      <point x="89.37299999999996" y="963.2837524414062" type="line"/>
    </contour>
  </outline>
</glyph>
<glyph name="backslash" format="2">
  <advance width="436.52736444091784"/>
  <unicode hex="005C"/>
  <outline>
    <contour>
      <point x="0.37299999999996203" y="963.2837524414062" type="line"/>
      <point x="258.4841068725585" y="0" type="line"/>
      <point x="413.1543644409179" y="0" type="line"/>
      <point x="155.04325756835934" y="963.2837524414062" type="line"/>
    </contour>
  </outline>
</glyph>
<glyph name="bracketright" format="2">
  <advance width="419.88100213623034"/>
  <unicode hex="005D"/>
  <outline>
    <contour>
      <point x="330.5080021362304" y="-113.28375244140625" type="line"/>
      <point x="330.5080021362304" y="963.2837524414062" type="line"/>
      <point x="27.372999999999962" y="963.2837524414062" type="line"/>
      <point x="27.372999999999962" y="817.8054962158203" type="line"/>
      <point x="177.37299999999996" y="817.8054962158203" type="line"/>
      <point x="177.37299999999996" y="32.19450378417969" type="line"/>
      <point x="27.372999999999962" y="32.19450378417969" type="line"/>
      <point x="27.372999999999962" y="-113.28375244140625" type="line"/>
    </contour>
  </outline>
</glyph>
<glyph name="power" format="2">
  <advance width="483.0807396850586"/>
  <unicode hex="005E"/>
  <outline>
    <contour>
      <point x="28.372999999999962" y="527.288330078125" type="line"/>
      <point x="163.6902225952148" y="527.288330078125" type="line"/>
      <point x="241.540366027832" y="656.1992950439453" type="line"/>
      <point x="319.3905170898437" y="527.288330078125" type="line"/>
      <point x="454.70773968505864" y="527.288330078125" type="line"/>
      <point x="241.540366027832" y="877.0846633911133" type="line"/>
    </contour>
  </outline>
</glyph>
<glyph name="underscore" format="2">
  <advance width="757.5527857142857"/>
  <unicode hex="005F"/>
  <outline>
    <contour>
      <point x="89.37299999999996" y="-238.77300000000002" type="line"/>
      <point x="668.1797857142858" y="-238.77300000000002" type="line"/>
      <point x="668.1797857142858" y="-89.37300000000002" type="line"/>
      <point x="89.37299999999996" y="-89.37300000000002" type="line"/>
    </contour>
  </outline>
</glyph>
<glyph name="grave" format="2">
  <advance width="444.9416558227538"/>
  <unicode hex="0060"/>
  <anchor x="295.1064447712534" y="999.4372101567753" name="center" identifier="center"/>
  <anchor x="295.1064447712534" y="898.8102101567754" name="bottom" identifier="bottom"/>
  <outline>
    <contour>
      <point x="249.75978741455071" y="898.8102111816406" type="line"/>
      <point x="355.56865582275384" y="898.8102111816406" type="line"/>
      <point x="250.22694287109368" y="1097.9795455932617" type="line"/>
      <point x="89.37299999999996" y="1097.9795455932617" type="line"/>
    </contour>
  </outline>
</glyph>
<glyph name="c" format="2">
  <advance width="600.7153756103515"/>
  <unicode hex="0063"/>
  <anchor x="344.02139257788724" y="787.6271618495713" name="top" identifier="top"/>
  <anchor x="344.02139257788724" y="0" name="bottom" identifier="bottom"/>
  <outline>
    <contour>
      <point x="371.0564759220197" y="487.7471453279311" type="curve"/>
      <point x="436.7219988546955" y="487.74714589155644"/>
      <point x="497.0631334960637" y="464.844215073143"/>
      <point x="544.3423756103516" y="426.6656799316406" type="curve"/>
      <point x="544.3423756103516" y="580.8396835327148" type="line"/>
      <point x="493.2846858139041" y="611.1311344382477"/>
      <point x="432.7457000783698" y="628.28375"/>
      <point x="367.86092471696213" y="628.2837499999998" type="curve"/>
      <point x="186.56756184336484" y="628.28375"/>
      <point x="39.372999999999976" y="487.2540723888268"/>
      <point x="39.37299999999996" y="306.641875" type="curve" smooth="yes"/>
      <point x="39.372999999999976" y="126.02967761117324"/>
      <point x="186.56756184336479" y="-14.999999999999979"/>
      <point x="367.8609247169622" y="-15.0" type="curve"/>
      <point x="432.7457000783698" y="-15.0"/>
      <point x="493.2846858139041" y="2.1526155617522704"/>
      <point x="544.3423756103516" y="32.445091247558594" type="curve"/>
      <point x="544.3423756103516" y="186.6320037841797" type="line"/>
      <point x="497.0631440637714" y="148.43953943622583"/>
      <point x="436.7220034697885" y="125.53660467206893"/>
      <point x="371.0564759220195" y="125.5366046720689" type="curve"/>
      <point x="271.1598654042706" y="125.53660467206896"/>
      <point x="190.2518192809195" y="206.6766570727503"/>
      <point x="190.2518192809195" y="306.641875" type="curve" smooth="yes"/>
      <point x="190.2518192809195" y="406.6070929272498"/>
      <point x="271.1598654042706" y="487.7471453279311"/>
    </contour>
  </outline>
</glyph>
<glyph name="e" format="2">
  <advance width="713.9268114630954"/>
  <unicode hex="0065"/>
  <anchor x="356.96340573154765" y="787.6271618495713" name="top" identifier="top"/>
  <anchor x="356.96340573154765" y="-174.34341184957125" name="below" identifier="below"/>
  <anchor x="385.1906065503402" y="0" name="bottom" identifier="bottom"/>
  <outline>
    <contour>
      <point x="674.5538114630955" y="306.641875" type="curve"/>
      <point x="674.5538114630955" y="484.16085687346265"/>
      <point x="534.4823876050106" y="628.28375"/>
      <point x="356.96340573154765" y="628.28375" type="curve" smooth="yes"/>
      <point x="179.4444238580851" y="628.28375"/>
      <point x="39.372999999999976" y="484.16085687346265"/>
      <point x="39.37299999999996" y="306.641875" type="curve"/>
      <point x="39.372999999999976" y="121.99897064280862"/>
      <point x="195.02000748269148" y="-14.999999999999977"/>
      <point x="386.9634057315477" y="-15.0" type="curve"/>
      <point x="466.3439222674868" y="-15.0"/>
      <point x="539.8518695152927" y="5.0559835573869805"/>
      <point x="599.9416874389649" y="40.878868103027344" type="curve"/>
      <point x="599.9416874389649" y="187.81339263916016" type="line"/>
      <point x="544.3382302432245" y="145.18102838217536"/>
      <point x="471.880346347998" y="120.13454633873565"/>
      <point x="392.6562712487891" y="120.13454633873565" type="curve"/>
      <point x="298.60603953165486" y="120.13454633873559"/>
      <point x="218.84614080716227" y="168.84060348991113"/>
      <point x="191.39245495605462" y="246.0893325805664" type="curve"/>
      <point x="668.7278278808594" y="246.0893325805664" type="line"/>
      <point x="673.6512372784639" y="271.4382865659791"/>
      <point x="674.5538114630954" y="292.6033651710692"/>
    </contour>
    <contour>
      <point x="359.0888057315477" y="493.25171687965525" type="curve" smooth="yes"/>
      <point x="442.35648844830285" y="493.2517168796552"/>
      <point x="509.685317557245" y="435.95813054166945"/>
      <point x="530.393362854004" y="357.72576904296875" type="curve"/>
      <point x="187.78696331787103" y="357.72576904296875" type="line"/>
      <point x="208.49814930273453" y="435.9631130680389"/>
      <point x="275.8247437729946" y="493.2517168796552"/>
    </contour>
  </outline>
</glyph>
<glyph name="f" format="2">
  <advance width="518.7713295898437"/>
  <unicode hex="0066"/>
  <anchor x="310.53812324417703" y="1006.2179003442753" name="top" identifier="top"/>
  <outline>
    <contour>
      <point x="123.87069592285151" y="0" type="line"/>
      <point x="271.80396160888665" y="0" type="line"/>
      <point x="271.80396160888665" y="473.94058990478516" type="line"/>
      <point x="464.39832958984374" y="473.94058990478516" type="line"/>
      <point x="464.39832958984374" y="613.2837524414062" type="line"/>
      <point x="271.80396160888665" y="613.2837524414062" type="line"/>
      <point x="271.839567993164" y="678.2710876464844" type="line"/>
      <point x="273.6482057176407" y="723.4188031356624"/>
      <point x="308.3214326670989" y="758.9556119945979"/>
      <point x="352.4696273526077" y="758.9556119945978" type="curve"/>
      <point x="381.2515317671373" y="758.9556119945978"/>
      <point x="432.67696540759584" y="753.1179424002224"/>
      <point x="479.39832958984374" y="716.9151763916016" type="curve"/>
      <point x="479.39832958984374" y="864.1155776977539" type="line"/>
      <point x="428.08629067637" y="892.755565446643"/>
      <point x="373.66623104558226" y="898.2837499999999"/>
      <point x="339.51036068594095" y="898.28375" type="curve"/>
      <point x="286.44740474974503" y="898.28375"/>
      <point x="123.8707003970653" y="884.3667445220834"/>
      <point x="123.87069617021685" y="628.2710863095239" type="curve"/>
      <point x="123.87069592285151" y="613.2837524414062" type="line"/>
      <point x="29.372999999999962" y="613.2837524414062" type="line"/>
      <point x="29.372999999999962" y="473.94058990478516" type="line"/>
      <point x="123.87069592285151" y="473.94058990478516" type="line"/>
    </contour>
  </outline>
</glyph>
<glyph name="h" format="2">
  <advance width="713.095983215332"/>
  <unicode hex="0068"/>
  <anchor x="368.0479918154761" y="999.4372101567753" name="top" identifier="top"/>
  <anchor x="368.0479918154761" y="-174.34341184957125" name="below" identifier="below"/>
  <anchor x="163.33963403793098" y="999.4372101567753" name="stem" identifier="stem"/>
  <anchor x="163.33963403793098" y="758.28375" name="stroke" identifier="stroke"/>
  <anchor x="163.33963403793098" y="0" name="bottom" identifier="bottom"/>
  <outline>
    <contour>
      <point x="89.37299999999996" y="0" type="line"/>
      <point x="237.3062656860351" y="0" type="line"/>
      <point x="237.3062656860351" y="313.0880196584833" type="line"/>
      <point x="237.3062656860351" y="357.8269777114848"/>
      <point x="238.1992182985316" y="493.72669526385926"/>
      <point x="365.535472785887" y="493.72669526385926" type="curve" smooth="yes"/>
      <point x="492.8717300465788" y="493.72669526385926"/>
      <point x="493.76467749233024" y="357.82697237763193"/>
      <point x="493.7646775378554" y="313.08801333126536" type="curve"/>
      <point x="493.76467785644525" y="0" type="line"/>
      <point x="646.7229832153321" y="0" type="line"/>
      <point x="646.7229832153321" y="321.7483825683594" type="line"/>
      <point x="646.7229832153321" y="598.23865557012"/>
      <point x="472.49471387808154" y="628.28375"/>
      <point x="397.1935732333928" y="628.28375" type="curve"/>
      <point x="336.89447291854304" y="628.28375"/>
      <point x="281.3739708934339" y="607.6614125812105"/>
      <point x="237.3062656860351" y="573.0759658813477" type="curve"/>
      <point x="237.3062656860351" y="888.2837524414062" type="line"/>
      <point x="89.37299999999996" y="888.2837524414062" type="line"/>
    </contour>
  </outline>
</glyph>
<glyph name="i" format="2">
  <advance width="344.67926807586196"/>
  <unicode hex="0069"/>
  <anchor x="172.33963403793098" y="-174.34341184957125" name="below" identifier="below"/>
  <anchor x="249.17234135172407" y="0" name="ogonek" identifier="ogonek"/>
  <outline>
    <contour>
      <point x="266.306268075862" y="787.6271618495713" type="curve" smooth="yes"/>
      <point x="266.306268075862" y="839.4887585539486"/>
      <point x="224.20123074230838" y="881.5937958875023"/>
      <point x="172.33963403793098" y="881.5937958875023" type="curve" smooth="yes"/>
      <point x="120.47803733355362" y="881.5937958875023"/>
      <point x="78.37299999999996" y="839.4887585539486"/>
      <point x="78.37299999999996" y="787.6271618495713" type="curve" smooth="yes"/>
      <point x="78.37299999999996" y="735.7655651451939"/>
      <point x="120.47803733355359" y="693.6605278116402"/>
      <point x="172.33963403793098" y="693.6605278116402" type="curve" smooth="yes"/>
      <point x="224.20123074230833" y="693.6605278116402"/>
      <point x="266.30626807586196" y="735.7655651451939"/>
    </contour>
    <contour>
      <point x="95.5069267241379" y="0" type="line"/>
      <point x="249.17234135172407" y="0" type="line"/>
      <point x="249.17234135172407" y="613.28375" type="line"/>
      <point x="95.5069267241379" y="613.28375" type="line"/>
    </contour>
  </outline>
</glyph>
<glyph name="j" format="2">
  <advance width="364.66727466765883"/>
  <unicode hex="006A"/>
  <outline>
    <contour>
      <point x="288.2942746676589" y="787.6271618495713" type="curve" smooth="yes"/>
      <point x="288.2942746676589" y="839.4887585539486"/>
      <point x="246.1892373341053" y="881.5937958875023"/>
      <point x="194.32764062972788" y="881.5937958875023" type="curve" smooth="yes"/>
      <point x="142.46604392535048" y="881.5937958875023"/>
      <point x="100.36100659179684" y="839.4887585539486"/>
      <point x="100.36100659179684" y="787.6271618495713" type="curve" smooth="yes"/>
      <point x="100.36100659179684" y="735.7655651451939"/>
      <point x="142.46604392535048" y="693.6605278116402"/>
      <point x="194.32764062972782" y="693.6605278116402" type="curve" smooth="yes"/>
      <point x="246.18923733410523" y="693.6605278116402"/>
      <point x="288.2942746676589" y="735.7655651451939"/>
    </contour>
    <contour>
      <point x="29.532435381944595" y="-155.31799199459772" type="curve"/>
      <point x="1.723122505393377" y="-155.3179919945977"/>
      <point x="-46.48334316238646" y="-149.35353817243544"/>
      <point x="-92.62700000000004" y="-113.90240478515625" type="curve"/>
      <point x="-92.62700000000004" y="-259.17442321777344" type="line"/>
      <point x="-54.987571193692744" y="-282.3076303980647"/>
      <point x="-9.871336247065187" y="-295.78375"/>
      <point x="38.617102048611315" y="-295.78375" type="curve"/>
      <point x="126.38584819079509" y="-295.78375"/>
      <point x="268.2942753068721" y="-257.6327315849184"/>
      <point x="268.2942744937593" y="-23.84468082922821" type="curve"/>
      <point x="268.29427227783196" y="613.2837524414062" type="line"/>
      <point x="120.36100659179684" y="613.2837524414062" type="line"/>
      <point x="120.36100659179684" y="-17.70347209331277" type="line"/>
      <point x="120.36100659179684" y="-80.75843892829698"/>
      <point x="119.89251049567483" y="-155.31799199459772"/>
    </contour>
  </outline>
</glyph>
<glyph name="k" format="2">
  <advance width="662.2305275878906"/>
  <unicode hex="006B"/>
  <anchor x="329.67953450963716" y="999.4372101567753" name="top" identifier="top"/>
  <anchor x="336.74737375992055" y="0" name="bottom" identifier="bottom"/>
  <anchor x="336.74737375992055" y="-174.34341184957125" name="below" identifier="below"/>
  <anchor x="163.33963403793098" y="999.4372101567753" name="stem" identifier="stem"/>
  <outline>
    <contour>
      <point x="89.37299999999996" y="0" type="line"/>
      <point x="237.3062656860351" y="0" type="line"/>
      <point x="237.3062656860351" y="188.2306671142578" type="line"/>
      <point x="270.3446415405273" y="222.17681884765625" type="line"/>
      <point x="486.09634289550775" y="0" type="line"/>
      <point x="685.8575275878907" y="0" type="line"/>
      <point x="369.6094959716796" y="324.16912841796875" type="line"/>
      <point x="650.9926746826172" y="613.2837524414062" type="line"/>
      <point x="462.27813610839837" y="613.2837524414062" type="line"/>
      <point x="237.3062656860351" y="380.97589111328125" type="line"/>
      <point x="237.3062656860351" y="888.2837524414062" type="line"/>
      <point x="89.37299999999996" y="888.2837524414062" type="line"/>
    </contour>
  </outline>
</glyph>
<glyph name="l" format="2">
  <advance width="332.41141462758605"/>
  <unicode hex="006C"/>
  <anchor x="166.20570731379303" y="999.4372101567753" name="top" identifier="top"/>
  <anchor x="166.20570731379303" y="0" name="bottom" identifier="bottom"/>
  <anchor x="166.20570731379303" y="-174.34341184957125" name="below" identifier="below"/>
  <anchor x="350.96528862970166" y="850" name="right" identifier="right"/>
  <anchor x="166.20570731379303" y="444.141875" name="stroke" identifier="stroke"/>
  <anchor x="465.332402113793" y="444.141875" name="dotmiddle" identifier="dotmiddle"/>
  <outline>
    <contour>
      <point x="89.37299999999996" y="0" type="line"/>
      <point x="243.03841462758612" y="0" type="line"/>
      <point x="243.03841462758612" y="888.28375" type="line"/>
      <point x="89.37299999999996" y="888.28375" type="line"/>
    </contour>
  </outline>
</glyph>
<glyph name="p" format="2">
  <advance width="762.64049445537"/>
  <unicode hex="0070"/>
  <anchor x="412.4132893732681" y="787.6271618495713" name="top" identifier="top"/>
  <outline>
    <contour>
      <point x="84.37299999999996" y="-288.28375244140625" type="line"/>
      <point x="232.30627331542962" y="-288.28375244140625" type="line"/>
      <point x="232.30627331542962" y="41.40399169921875" type="line"/>
      <point x="280.05394773695957" y="5.964567118531747"/>
      <point x="339.1618113773763" y="-15.000000000000014"/>
      <point x="403.1275750875538" y="-15.000000000000021" type="curve"/>
      <point x="580.6465569610166" y="-15.0"/>
      <point x="723.2674944553701" y="129.12289312653743"/>
      <point x="723.2674944553701" y="306.641875" type="curve" smooth="yes"/>
      <point x="723.2674944553701" y="484.16085687346265"/>
      <point x="580.6465569610166" y="628.28375"/>
      <point x="403.12757508755385" y="628.28375" type="curve"/>
      <point x="337.24993077303697" y="628.28375"/>
      <point x="276.5249291002389" y="606.0472335327535"/>
      <point x="228.05547222900384" y="568.6637802124023" type="curve"/>
      <point x="228.05547222900384" y="613.2837524414062" type="line"/>
      <point x="84.37299999999996" y="613.2837524414062" type="line"/>
    </contour>
    <contour>
      <point x="571.8314164944505" y="306.641875" type="curve" smooth="yes"/>
      <point x="571.8314164944505" y="206.66297847347403"/>
      <point x="494.82488056546117" y="125.53660467206896"/>
      <point x="397.8228095703125" y="125.53660467206896" type="curve" smooth="yes"/>
      <point x="300.8207385751638" y="125.53660467206896"/>
      <point x="223.81420264617452" y="206.66297847347403"/>
      <point x="223.81420264617452" y="306.641875" type="curve" smooth="yes"/>
      <point x="223.81420264617452" y="406.620771526526"/>
      <point x="300.8207385751638" y="487.7471453279311"/>
      <point x="397.8228095703125" y="487.7471453279311" type="curve" smooth="yes"/>
      <point x="494.82488056546117" y="487.7471453279311"/>
      <point x="571.8314164944505" y="406.620771526526"/>
    </contour>
  </outline>
</glyph>
<glyph name="q" format="2">
  <advance width="762.6404892673817"/>
  <unicode hex="0071"/>
  <outline>
    <contour>
      <point x="530.3342235813466" y="-288.28375244140625" type="line"/>
      <point x="678.2674892673817" y="-288.28375244140625" type="line"/>
      <point x="678.2674892673817" y="613.2837524414062" type="line"/>
      <point x="534.5850246677724" y="613.2837524414062" type="line"/>
      <point x="534.5850246677724" y="566.7836074829102" type="line"/>
      <point x="486.61007065523376" y="605.2645110204813"/>
      <point x="425.7284986053666" y="628.28375"/>
      <point x="359.51291936781604" y="628.28375" type="curve"/>
      <point x="181.99393749435336" y="628.28375"/>
      <point x="39.372999999999976" y="484.16085687346265"/>
      <point x="39.37299999999996" y="306.641875" type="curve" smooth="yes"/>
      <point x="39.372999999999976" y="129.12289312653738"/>
      <point x="181.99393749435342" y="-14.999999999999979"/>
      <point x="359.51291936781604" y="-15.0" type="curve"/>
      <point x="423.7880949391186" y="-15.0"/>
      <point x="483.03730186631066" y="6.689879531750357"/>
      <point x="530.3342235813466" y="43.15843200683594" type="curve"/>
    </contour>
    <contour>
      <point x="538.8262918091955" y="306.641875" type="curve" smooth="yes"/>
      <point x="538.8262918091955" y="206.66297847347403"/>
      <point x="461.8197558802061" y="125.53660467206896"/>
      <point x="364.8176848850574" y="125.53660467206896" type="curve" smooth="yes"/>
      <point x="267.8156138899087" y="125.53660467206896"/>
      <point x="190.80907796091947" y="206.66297847347403"/>
      <point x="190.80907796091947" y="306.641875" type="curve" smooth="yes"/>
      <point x="190.80907796091947" y="406.620771526526"/>
      <point x="267.8156138899087" y="487.7471453279311"/>
      <point x="364.8176848850574" y="487.7471453279311" type="curve" smooth="yes"/>
      <point x="461.8197558802061" y="487.7471453279311"/>
      <point x="538.8262918091955" y="406.620771526526"/>
    </contour>
  </outline>
</glyph>
<glyph name="r" format="2">
  <advance width="487.90612573242174"/>
  <unicode hex="0072"/>
  <anchor x="279.4530643295045" y="787.6271618495713" name="top" identifier="top"/>
  <anchor x="164.33963403793098" y="0" name="bottom" identifier="bottom"/>
  <anchor x="238.30626807586202" y="-174.34341184957125" name="below" identifier="below"/>
  <outline>
    <contour>
      <point x="90.37299999999996" y="0" type="line"/>
      <point x="238.3062656860351" y="0" type="line"/>
      <point x="238.3062656860351" y="308.97029227323293" type="line"/>
      <point x="238.3062656860351" y="350.2373724159274"/>
      <point x="240.86072354195676" y="480.2471453279311"/>
      <point x="365.7518173820459" y="480.2471453279311" type="curve"/>
      <point x="394.62866234118076" y="480.2471453279311"/>
      <point x="431.35267095380556" y="474.59948027177626"/>
      <point x="468.5331257324218" y="454.7316436767578" type="curve"/>
      <point x="468.5331257324218" y="600.9696044921875" type="line"/>
      <point x="431.8025582537914" y="616.1285058047463"/>
      <point x="396.68947658092225" y="620.78375"/>
      <point x="367.81453380028734" y="620.7837500000002" type="curve"/>
      <point x="316.45017786038295" y="620.78375"/>
      <point x="269.5670354761739" y="601.4447948529207"/>
      <point x="234.0554645996093" y="569.6351776123047" type="curve"/>
      <point x="234.0554645996093" y="613.2837524414062" type="line"/>
      <point x="90.37299999999996" y="613.2837524414062" type="line"/>
    </contour>
  </outline>
</glyph>
<glyph name="v" format="2">
  <advance width="716.0983330688476"/>
  <unicode hex="0076"/>
  <anchor x="358.04916562499994" y="787.6271618495713" name="top" identifier="top"/>
  <anchor x="358.04916562499994" y="-174.34341184957125" name="below" identifier="below"/>
  <outline>
    <contour>
      <point x="689.7253330688477" y="613.2837524414062" type="line"/>
      <point x="533.6483295898438" y="613.2837524414062" type="line"/>
      <point x="362.18440899658196" y="280.0426788330078" type="line"/>
      <point x="190.72048840332025" y="613.2837524414062" type="line"/>
      <point x="26.372999999999962" y="613.2837524414062" type="line"/>
      <point x="358.0491627197265" y="-27.08466339111328" type="line"/>
    </contour>
  </outline>
</glyph>
<glyph name="w" format="2">
  <advance width="990.9627282104492"/>
  <unicode hex="0077"/>
  <anchor x="495.4813630952381" y="787.6271618495713" name="top" identifier="top"/>
  <anchor x="495.4813630952381" y="-174.34341184957125" name="below" identifier="below"/>
  <outline>
    <contour>
      <point x="964.5897282104493" y="613.2837524414062" type="line"/>
      <point x="813.3960407714844" y="613.2837524414062" type="line"/>
      <point x="676.6878345947266" y="287.1332473754883" type="line"/>
      <point x="499.4664600830078" y="609.0809097290039" type="line"/>
      <point x="322.24507794189446" y="287.1332473754883" type="line"/>
      <point x="185.53687176513665" y="613.2837524414062" type="line"/>
      <point x="26.372999999999962" y="613.2837524414062" type="line"/>
      <point x="296.56753430175775" y="-27.08466339111328" type="line"/>
      <point x="495.48136029052733" y="331.8901672363281" type="line"/>
      <point x="694.3951862792969" y="-27.08466339111328" type="line"/>
    </contour>
  </outline>
</glyph>
<glyph name="x" format="2">
  <advance width="666.7793328247069"/>
  <unicode hex="0078"/>
  <anchor x="333.3896661580403" y="787.6271618495713" name="top" identifier="top"/>
  <outline>
    <contour>
      <point x="644.406332824707" y="0" type="line"/>
      <point x="422.47712597656243" y="320.3056640625" type="line"/>
      <point x="626.2878635864257" y="613.2837524414062" type="line"/>
      <point x="459.8743122558593" y="613.2837524414062" type="line"/>
      <point x="334.0377872924804" y="428.7941589355469" type="line"/>
      <point x="208.64623150634762" y="613.2837524414062" type="line"/>
      <point x="33.58051953124996" y="613.2837524414062" type="line"/>
      <point x="240.87368664550777" y="314.2422332763672" type="line"/>
      <point x="22.372999999999962" y="0" type="line"/>
      <point x="188.8652485351562" y="0" type="line"/>
      <point x="329.31204113769525" y="205.81507873535156" type="line"/>
      <point x="469.2622059326171" y="0" type="line"/>
    </contour>
  </outline>
</glyph>
<glyph name="y" format="2">
  <advance width="735.795560546875"/>
  <unicode hex="0079"/>
  <anchor x="370.4454003807431" y="787.6271618495713" name="top" identifier="top"/>
  <anchor x="539.933981705148" y="-174.34341184957125" name="below" identifier="below"/>
  <outline>
    <contour>
      <point x="374.51219067382806" y="218.18688201904297" type="line"/>
      <point x="190.50329479980462" y="613.2837524414062" type="line"/>
      <point x="26.372999999999962" y="613.2837524414062" type="line"/>
      <point x="293.19209179687493" y="43.672698974609375" type="line"/>
      <point x="138.82329449462884" y="-288.28375244140625" type="line"/>
      <point x="293.3612507324218" y="-288.28375244140625" type="line"/>
      <point x="709.422560546875" y="613.2837524414062" type="line"/>
      <point x="555.7961643676758" y="613.2837524414062" type="line"/>
    </contour>
  </outline>
</glyph>
<glyph name="z" format="2">
  <advance width="633.956464477539"/>
  <unicode hex="007A"/>
  <anchor x="317.53252380952375" y="787.6271618495713" name="top" identifier="top"/>
  <anchor x="317.53252380952375" y="-174.34341184957125" name="below" identifier="below"/>
  <anchor x="317.53252380952375" y="306.641875" name="stroke" identifier="stroke"/>
  <outline>
    <contour>
      <point x="302.17939648437493" y="140.53660583496094" type="line"/>
      <point x="583.5834644775391" y="613.2837524414062" type="line"/>
      <point x="77.11110577392574" y="613.2837524414062" type="line"/>
      <point x="77.11110577392574" y="476.2894821166992" type="line"/>
      <point x="332.88564953613275" y="476.2894821166992" type="line"/>
      <point x="49.37299999999996" y="0" type="line"/>
      <point x="572.9539478759766" y="0" type="line"/>
      <point x="572.9539478759766" y="140.53660583496094" type="line"/>
    </contour>
  </outline>
</glyph>
<glyph name="braceleft" format="2">
  <advance width="363.25193647693436"/>
  <unicode hex="007B"/>
  <outline>
    <contour>
      <point x="310.87893566894525" y="17.610214233398438" type="line" smooth="yes"/>
      <point x="295.31762667582143" y="17.610214261250096"/>
      <point x="259.0432006653765" y="24.665104622118292"/>
      <point x="259.04320158791563" y="91.9706929226972" type="curve"/>
      <point x="259.04320355045206" y="235.1512496465989" type="line"/>
      <point x="259.0432044613815" y="301.6098269048791"/>
      <point x="259.04319945044654" y="372.81236896037746"/>
      <point x="181.83596691894527" y="425.0003890991211" type="curve"/>
      <point x="259.04320172503265" y="477.18712061500986"/>
      <point x="259.0432010591077" y="548.3905080101529"/>
      <point x="259.0432019700323" y="614.8487391250375" type="curve"/>
      <point x="259.0432039325689" y="758.0293029999876" type="line"/>
      <point x="259.0432048446065" y="824.5687367749737"/>
      <point x="294.49442925719825" y="832.3897857142857"/>
      <point x="310.8789364769344" y="832.3897857142857" type="curve"/>
      <point x="310.87893566894525" y="963.2837524414062" type="line"/>
      <point x="305.87893566894525" y="963.2837524414062" type="line"/>
      <point x="112.31796244739755" y="963.2837524414062"/>
      <point x="105.90820128576317" y="796.8886692825076"/>
      <point x="105.90820152123126" y="724.8114880952381" type="curve"/>
      <point x="105.90820195983002" y="590.5556433740859" type="line"/>
      <point x="105.9082022411217" y="504.45177145364613"/>
      <point x="55.51960535362906" y="492.73912499999994"/>
      <point x="30.37300195312497" y="492.73912499999994" type="curve"/>
      <point x="30.372999999999962" y="357.26087188720703" type="line" smooth="yes"/>
      <point x="55.51960340050398" y="357.26087375555"/>
      <point x="105.90820114313229" y="345.54823135106466"/>
      <point x="105.90820142442399" y="259.4443624321101" type="curve"/>
      <point x="105.90820186940425" y="123.23512695913738" type="line"/>
      <point x="105.90820261489327" y="-104.96035872514756"/>
      <point x="246.87930669496163" y="-113.28374297088759"/>
      <point x="305.87893566894536" y="-113.28375170151769" type="curve" smooth="yes"/>
      <point x="310.87893566894525" y="-113.28375244140625" type="line"/>
    </contour>
  </outline>
</glyph>
<glyph name="bar" format="2">
  <advance width="328.14599999999996"/>
  <unicode hex="007C"/>
  <outline>
    <contour>
      <point x="89.37299999999996" y="-113.28375" type="line"/>
      <point x="238.77299999999997" y="-113.28375" type="line"/>
      <point x="238.77299999999997" y="963.28375" type="line"/>
      <point x="89.37299999999996" y="963.28375" type="line"/>
    </contour>
  </outline>
</glyph>
<glyph name="braceright" format="2">
  <advance width="363.25193647693436"/>
  <unicode hex="007D"/>
  <outline>
    <contour>
      <point x="52.37299999999996" y="17.610214285714278" type="curve"/>
      <point x="52.37300080798914" y="-113.28375244140625" type="line"/>
      <point x="57.37300080798914" y="-113.28375244140625" type="line"/>
      <point x="250.93397402953687" y="-113.28375244140625"/>
      <point x="257.34373519117116" y="53.111330717492365"/>
      <point x="257.3437349557031" y="125.18851190476187" type="curve"/>
      <point x="257.3437345171044" y="259.44435662591417" type="line"/>
      <point x="257.3437342358127" y="345.5482285463539"/>
      <point x="307.73233112330536" y="357.26087500000006"/>
      <point x="332.87893452380945" y="357.26087500000006" type="curve"/>
      <point x="332.8789364769344" y="492.73912811279297" type="line" smooth="yes"/>
      <point x="307.73233307643045" y="492.73912624445"/>
      <point x="257.3437353338021" y="504.45176864893534"/>
      <point x="257.3437350525104" y="590.5556375678899" type="curve"/>
      <point x="257.3437346075301" y="726.7648730408625" type="line"/>
      <point x="257.3437338620412" y="954.9603587251474"/>
      <point x="116.37262978197282" y="963.2837429708876"/>
      <point x="57.37300080798909" y="963.2837517015176" type="curve" smooth="yes"/>
      <point x="52.37300080798914" y="963.2837524414062" type="line"/>
      <point x="52.37300080798914" y="832.3897857666016" type="line" smooth="yes"/>
      <point x="67.93430980111296" y="832.3897857387499"/>
      <point x="104.208735811558" y="825.3348953778816"/>
      <point x="104.20873488901881" y="758.0293070773027" type="curve"/>
      <point x="104.20873292648236" y="614.8487503534012" type="line"/>
      <point x="104.20873201555293" y="548.3901730951209"/>
      <point x="104.20873702648791" y="477.18763103962254"/>
      <point x="181.41596955798914" y="424.9996109008789" type="curve"/>
      <point x="104.20873475190174" y="372.81287938499014"/>
      <point x="104.2087354178268" y="301.609491989847"/>
      <point x="104.20873450690212" y="235.1512608749623" type="curve"/>
      <point x="104.20873254436555" y="91.97069700001234" type="line"/>
      <point x="104.20873163232784" y="25.431263225026342"/>
      <point x="68.7575072197362" y="17.610214285714278"/>
    </contour>
  </outline>
</glyph>
<glyph name="tilde" format="2">
  <advance width="766.3135048828125"/>
  <unicode hex="007E"/>
  <outline>
    <contour>
      <point x="253.39228710937502" y="400.79074391836735" type="curve"/>
      <point x="287.88064266174536" y="400.79074391836724"/>
      <point x="303.03338698251207" y="389.8809935357247"/>
      <point x="336.9515952984617" y="368.61556489120767" type="curve"/>
      <point x="341.18784703676806" y="365.9595959136599" type="line"/>
      <point x="401.5131027563127" y="328.1379512968073"/>
      <point x="449.7307242677683" y="299.80925608163267"/>
      <point x="521.9212156808037" y="299.80925608163267" type="curve"/>
      <point x="590.2307117098755" y="299.80925608163267"/>
      <point x="652.7686206720063" y="324.7168981807644"/>
      <point x="700.9405048828125" y="365.9523391723633" type="curve"/>
      <point x="700.9405048828125" y="539.6307754516602" type="line"/>
      <point x="660.3942192378496" y="484.78373389393676"/>
      <point x="595.279367574679" y="449.2092560816326"/>
      <point x="521.9212156808036" y="449.2092560816326" type="curve"/>
      <point x="487.4328601284333" y="449.20925608163276"/>
      <point x="472.280117836342" y="460.1190065043748"/>
      <point x="438.36190952039226" y="481.38443514889184" type="curve"/>
      <point x="434.1256577820859" y="484.0404041264396" type="line"/>
      <point x="373.80040206254125" y="521.8620487432921"/>
      <point x="325.5827785224104" y="550.1907439183674"/>
      <point x="253.39228710937496" y="550.1907439183674" type="curve"/>
      <point x="185.08279108030308" y="550.1907439183674"/>
      <point x="122.54488709492023" y="525.283106079363"/>
      <point x="74.37299999999996" y="484.04766845703125" type="curve"/>
      <point x="74.37299999999996" y="310.36922454833984" type="line"/>
      <point x="114.91928429182721" y="365.21626710638384"/>
      <point x="180.03413521549965" y="400.7907439183673"/>
    </contour>
  </outline>
</glyph>
<glyph name="inv_exclamation" format="2">
  <advance width="341.928559142857"/>
  <unicode hex="00A1"/>
  <outline>
    <contour>
      <point x="69.37299999999996" y="526.6924704285715" type="curve" smooth="yes"/>
      <point x="69.37299999999996" y="470.6227173320809"/>
      <point x="114.89452647493793" y="425.1011908571429"/>
      <point x="170.9642795714285" y="425.1011908571429" type="curve" smooth="yes"/>
      <point x="227.03403266791912" y="425.1011908571429"/>
      <point x="272.5555591428571" y="470.62271733208087"/>
      <point x="272.5555591428571" y="526.6924704285715" type="curve" smooth="yes"/>
      <point x="272.55555914285713" y="582.762223525062"/>
      <point x="227.03403266791918" y="628.28375"/>
      <point x="170.96427957142856" y="628.28375" type="curve" smooth="yes"/>
      <point x="114.89452647493796" y="628.28375"/>
      <point x="69.37299999999999" y="582.7622235250622"/>
    </contour>
    <contour>
      <point x="108.16430703724886" y="362.7887191772461" type="line"/>
      <point x="78.47415200795199" y="-251.71624755859375" type="line"/>
      <point x="263.4544071349051" y="-251.71624755859375" type="line"/>
      <point x="233.76425210560825" y="362.7887191772461" type="line"/>
    </contour>
  </outline>
</glyph>
<glyph name="cent" format="2">
  <advance width="563.0334832153319"/>
  <unicode hex="00A2"/>
  <outline>
    <contour>
      <point x="262.4983280639648" y="0" type="line"/>
      <point x="415.63333020019525" y="0" type="line"/>
      <point x="415.63333020019525" y="107.92204284667969" type="line"/>
      <point x="457.9498689897454" y="114.72554980380727"/>
      <point x="497.50653815000925" y="128.96950643960633"/>
      <point x="532.660483215332" y="149.38961791992188" type="curve"/>
      <point x="532.660483215332" y="307.93299865722656" type="line"/>
      <point x="485.7239305051019" y="270.94212941635766"/>
      <point x="426.31479479308297" y="248.83637499999998"/>
      <point x="361.75004017857145" y="248.83637499999998" type="curve"/>
      <point x="259.1092192822992" y="248.83637499999998"/>
      <point x="185.80033333333319" y="326.83516339297256"/>
      <point x="185.80033333333319" y="425.0" type="curve" smooth="yes"/>
      <point x="185.80033333333319" y="523.1648366070274"/>
      <point x="259.10921928229925" y="601.163625"/>
      <point x="361.75003861345556" y="601.1636224975587" type="curve"/>
      <point x="426.31477698434384" y="601.1636227898438"/>
      <point x="485.7238996651792" y="579.0578808558347"/>
      <point x="532.660483215332" y="542.0616455078125" type="curve"/>
      <point x="532.660483215332" y="700.6201553344727" type="line"/>
      <point x="497.5065381740939" y="721.0318815879198"/>
      <point x="457.94986899577276" y="735.27635882631"/>
      <point x="415.63333020019525" y="742.0805816650391" type="curve"/>
      <point x="415.63333020019525" y="850" type="line"/>
      <point x="262.4983280639648" y="850" type="line"/>
      <point x="262.4983280639648" y="733.0525741577148" type="line"/>
      <point x="127.62780523883414" y="693.6712409065492"/>
      <point x="29.372999999999976" y="572.7300767126934"/>
      <point x="29.372999999999962" y="425.0000000000001" type="curve" smooth="yes"/>
      <point x="29.372999999999934" y="277.2699232873068"/>
      <point x="127.62780523883409" y="156.32875909345097"/>
      <point x="262.4983280639648" y="116.94609069824219" type="curve"/>
    </contour>
  </outline>
</glyph>
<glyph name="pound" format="2">
  <advance width="668.6964165649414"/>
  <unicode hex="00A3"/>
  <outline>
    <contour>
      <point x="30.372999999999962" y="0" type="line"/>
      <point x="610.3234165649415" y="0" type="line"/>
      <point x="610.3234165649415" y="145.4782485961914" type="line"/>
      <point x="243.5737217407226" y="145.4782485961914" type="line"/>
      <point x="283.5079996638564" y="191.87755206391847"/>
      <point x="283.5079997732939" y="242.6153327294873"/>
      <point x="283.5080009077904" y="295.25850927907834" type="curve"/>
      <point x="283.5080021362304" y="352.26087188720703" type="line"/>
      <point x="498.80748638916015" y="352.26087188720703" type="line"/>
      <point x="498.80748638916015" y="497.73912811279297" type="line"/>
      <point x="283.5080021362304" y="497.73912811279297" type="line"/>
      <point x="283.5080021362304" y="535.5392773855777" type="line"/>
      <point x="283.5080021362304" y="691.388961682025"/>
      <point x="361.7788072105175" y="719.52175"/>
      <point x="422.0466221264368" y="719.52175" type="curve"/>
      <point x="490.54023398241674" y="719.52175"/>
      <point x="552.2557370413488" y="689.2474751684664"/>
      <point x="595.3234165649415" y="640.9558944702148" type="curve"/>
      <point x="595.3234165649415" y="806.1986312866211" type="line"/>
      <point x="546.6768668372847" y="843.101987130489"/>
      <point x="486.04963618674145" y="865.0"/>
      <point x="420.3482083333333" y="865.0" type="curve"/>
      <point x="322.31849124164324" y="865.0"/>
      <point x="130.373" y="815.1909759970629"/>
      <point x="130.37299999999993" y="525.0247916666666" type="curve"/>
      <point x="130.37299999999993" y="497.73912811279297" type="line"/>
      <point x="30.372999999999962" y="497.73912811279297" type="line"/>
      <point x="30.372999999999962" y="352.26087188720703" type="line"/>
      <point x="130.37299999999993" y="352.26087188720703" type="line"/>
      <point x="130.37299999999993" y="284.16375409205386" type="line"/>
      <point x="130.37299999999993" y="250.88005678531803"/>
      <point x="129.303402230006" y="145.47825"/>
      <point x="30.372999999999962" y="145.47825" type="curve"/>
    </contour>
  </outline>
</glyph>
<glyph name="currency" format="2">
  <advance width="766.6680275878906"/>
  <unicode hex="00A4"/>
  <outline>
    <contour>
      <point x="170.0147541503906" y="106.03898620605469" type="line"/>
      <point x="248.00216564941402" y="184.02639770507812" type="line"/>
      <point x="288.01117808858953" y="161.47916174255357"/>
      <point x="334.18285373658125" y="148.62101190476187"/>
      <point x="383.33401379394525" y="148.62101190476187" type="curve" smooth="yes"/>
      <point x="432.48532638902395" y="148.62101190476187"/>
      <point x="478.6571360813949" y="161.47924155169065"/>
      <point x="518.6664265136719" y="184.0258331298828" type="curve"/>
      <point x="596.6532734375" y="106.03898620605469" type="line"/>
      <point x="702.2950275878907" y="211.6807403564453" type="line"/>
      <point x="624.3076160888672" y="289.66815185546875" type="line"/>
      <point x="646.8495042915807" y="329.65796342124725"/>
      <point x="659.7130018891835" y="375.83861991574827"/>
      <point x="659.7130018891835" y="424.99999999999994" type="curve" smooth="yes"/>
      <point x="659.7130018891835" y="474.16092247110754"/>
      <point x="646.8497437672901" y="520.3411768436627"/>
      <point x="624.3081806640625" y="560.3324127197266" type="curve"/>
      <point x="702.2950275878907" y="638.3192596435547" type="line"/>
      <point x="596.6532734375" y="743.9610137939453" type="line"/>
      <point x="518.6658619384766" y="665.9736022949219" type="line"/>
      <point x="478.6568494993011" y="688.5208382574465"/>
      <point x="432.48517385130936" y="701.3789880952381"/>
      <point x="383.33401379394525" y="701.3789880952381" type="curve" smooth="yes"/>
      <point x="334.18270119886654" y="701.3789880952381"/>
      <point x="288.0108915064957" y="688.5207584483094"/>
      <point x="248.0016010742187" y="665.9741668701172" type="curve"/>
      <point x="170.0147541503906" y="743.9610137939453" type="line"/>
      <point x="64.37299999999996" y="638.3192596435547" type="line"/>
      <point x="142.3604114990234" y="560.3318481445312" type="line"/>
      <point x="119.8185232963099" y="520.3420365787528"/>
      <point x="106.95502569870715" y="474.16138008425173"/>
      <point x="106.95502569870715" y="425.0" type="curve" smooth="yes"/>
      <point x="106.95502569870715" y="375.8390775288925"/>
      <point x="119.8182838206005" y="329.65882315633746"/>
      <point x="142.3598469238281" y="289.66758728027344" type="curve"/>
      <point x="64.37299999999996" y="211.6807403564453" type="line"/>
    </contour>
    <contour>
      <point x="510.3130018891834" y="425.0" type="curve" smooth="yes"/>
      <point x="510.3130018891834" y="354.91838924583686"/>
      <point x="453.4156245481083" y="298.02101190476185"/>
      <point x="383.33401379394525" y="298.02101190476185" type="curve" smooth="yes"/>
      <point x="313.25240303978217" y="298.0210119047619"/>
      <point x="256.3550256987071" y="354.9183892458369"/>
      <point x="256.3550256987072" y="425.0" type="curve" smooth="yes"/>
      <point x="256.3550256987072" y="495.08161075416314"/>
      <point x="313.25240303978217" y="551.9789880952382"/>
      <point x="383.33401379394525" y="551.9789880952382" type="curve" smooth="yes"/>
      <point x="453.41562454810844" y="551.9789880952382"/>
      <point x="510.3130018891834" y="495.0816107541631"/>
    </contour>
  </outline>
</glyph>
<glyph name="yen" format="2">
  <advance width="771.976239868164"/>
  <unicode hex="00A5"/>
  <outline>
    <contour>
      <point x="121.26303753662104" y="217.22664642333984" type="line"/>
      <point x="309.420622680664" y="217.22664642333984" type="line"/>
      <point x="309.420622680664" y="0" type="line"/>
      <point x="462.5556171875" y="0" type="line"/>
      <point x="462.5556171875" y="217.22664642333984" type="line"/>
      <point x="650.713202331543" y="217.22664642333984" type="line"/>
      <point x="650.713202331543" y="336.15626525878906" type="line"/>
      <point x="462.5556171875" y="336.15626525878906" type="line"/>
      <point x="462.5556171875" y="348.2091979980469" type="line"/>
      <point x="476.60069927978515" y="372.17706298828125" type="line"/>
      <point x="650.713202331543" y="372.17706298828125" type="line"/>
      <point x="650.713202331543" y="491.10668182373047" type="line"/>
      <point x="546.293036315918" y="491.10668182373047" type="line"/>
      <point x="756.6032398681641" y="850" type="line"/>
      <point x="590.1167820434571" y="850" type="line"/>
      <point x="390.3995350341796" y="506.8954086303711" type="line"/>
      <point x="190.68228802490228" y="850" type="line"/>
      <point x="15.372999999999962" y="850" type="line"/>
      <point x="225.68320355224603" y="491.10668182373047" type="line"/>
      <point x="121.26303753662104" y="491.10668182373047" type="line"/>
      <point x="121.26303753662104" y="372.17706298828125" type="line"/>
      <point x="295.37554058837884" y="372.17706298828125" type="line"/>
      <point x="309.420622680664" y="348.2091979980469" type="line"/>
      <point x="309.420622680664" y="336.15626525878906" type="line"/>
      <point x="121.26303753662104" y="336.15626525878906" type="line"/>
    </contour>
  </outline>
</glyph>
<glyph name="brokenbar" format="2">
  <advance width="328.1460015258788"/>
  <unicode hex="00A6"/>
  <outline>
    <contour>
      <point x="238.77300152587884" y="963.2837524414062" type="line"/>
      <point x="89.37299999999996" y="963.2837524414062" type="line"/>
      <point x="89.37299999999996" y="461.71624755859375" type="line"/>
      <point x="238.77300152587884" y="461.71624755859375" type="line"/>
    </contour>
    <contour>
      <point x="89.37299999999996" y="-113.28375244140625" type="line"/>
      <point x="238.77300152587884" y="-113.28375244140625" type="line"/>
      <point x="238.77300152587884" y="388.28375244140625" type="line"/>
      <point x="89.37299999999996" y="388.28375244140625" type="line"/>
    </contour>
  </outline>
</glyph>
<glyph name="section" format="2">
  <advance width="573.1335952380952"/>
  <unicode hex="00A7"/>
  <outline>
    <contour>
      <point x="515.2182619047619" y="23.361945844959024" type="curve"/>
      <point x="515.2182619047619" y="79.02582491196017"/>
      <point x="491.59357503314584" y="128.6647907029864"/>
      <point x="452.7986493733723" y="165.73809051513672" type="curve"/>
      <point x="508.5514966424955" y="205.881235432249"/>
      <point x="543.7605952380952" y="266.1390830393576"/>
      <point x="543.7605952380952" y="337.3244833333333" type="curve"/>
      <point x="543.7605952380952" y="472.11728553010624"/>
      <point x="435.9102383372465" y="522.3402917947825"/>
      <point x="359.98432006054827" y="555.0243971894555" type="curve"/>
      <point x="275.0672475582056" y="591.5789573510998" type="line"/>
      <point x="238.92311848565456" y="607.1380516738151"/>
      <point x="209.22195833333328" y="619.6676436823175"/>
      <point x="209.22195833333328" y="652.5841216666666" type="curve"/>
      <point x="209.22195833333328" y="691.0373174267379"/>
      <point x="249.75522190595117" y="718.84056"/>
      <point x="318.75649761904754" y="718.84056" type="curve"/>
      <point x="383.1629036420652" y="718.8405604760054"/>
      <point x="441.6948442188599" y="699.367728082627"/>
      <point x="485.21825844319665" y="667.6055679321289" type="curve"/>
      <point x="485.21825844319665" y="823.5019454956055" type="line"/>
      <point x="438.3731143553398" y="851.4481412963012"/>
      <point x="376.5695572871988" y="865.0000000000001"/>
      <point x="308.8379642857142" y="865.0000000000001" type="curve"/>
      <point x="171.33686095547662" y="865.0"/>
      <point x="59.915333333333294" y="771.7865288364558"/>
      <point x="59.91533333333328" y="648.5077833333334" type="curve"/>
      <point x="59.915333333333294" y="592.8439042663322"/>
      <point x="83.54002020494934" y="543.2049384753059"/>
      <point x="122.33495003255203" y="506.1316375732422" type="curve"/>
      <point x="66.58210082360759" y="465.9884953502528"/>
      <point x="31.372999999999962" y="405.73064613893473"/>
      <point x="31.372999999999962" y="334.5452458449591" type="curve"/>
      <point x="31.37300000000006" y="199.75244364818616"/>
      <point x="139.2233552606819" y="149.5294370490559"/>
      <point x="215.1492733080464" y="116.84533112163548" type="curve"/>
      <point x="300.06634387426755" y="80.29077108719224" type="line"/>
      <point x="336.2104728376455" y="64.73167651086537"/>
      <point x="365.91163690476185" y="52.20208549597497"/>
      <point x="365.91163690476185" y="19.285607511625756" type="curve"/>
      <point x="365.91163690476185" y="-19.167588248445455"/>
      <point x="325.37837333214395" y="-46.97083082170758"/>
      <point x="256.3770976190476" y="-46.97083082170758" type="curve"/>
      <point x="182.55419799889947" y="-46.97083125398712"/>
      <point x="116.19838141687794" y="-23.400787426392924"/>
      <point x="69.91533679489856" y="14.166871207101025" type="curve"/>
      <point x="69.91533333333328" y="-144.78514862060547" type="line"/>
      <point x="119.81809293952512" y="-177.8784437771672"/>
      <point x="189.3716687012643" y="-193.1302708217076"/>
      <point x="266.295630952381" y="-193.1302708217076" type="curve"/>
      <point x="403.79673428261856" y="-193.1302708217076"/>
      <point x="515.2182619047619" y="-99.91679965816337"/>
    </contour>
    <contour>
      <point x="180.67962500000002" y="343.5808508449591" type="curve"/>
      <point x="180.67962500000004" y="365.4136810226951"/>
      <point x="189.4747406890225" y="409.29466425191583"/>
      <point x="252.7910428670247" y="433.79187774658203" type="curve"/>
      <point x="322.3690613846295" y="403.5990865134379" type="line"/>
      <point x="355.73295763708825" y="389.12110660344837"/>
      <point x="394.45397023809517" y="374.0987525812989"/>
      <point x="394.45397023809517" y="328.2888783333333" type="curve"/>
      <point x="394.45397023809517" y="306.45604815559733"/>
      <point x="385.65884877662006" y="262.5750577194648"/>
      <point x="322.3425412801106" y="238.0778579711914" type="curve"/>
      <point x="252.76453015029998" y="268.2706427641239" type="line"/>
      <point x="219.40063333147972" y="282.7486213689572"/>
      <point x="180.67962500000002" y="297.7709765969935"/>
    </contour>
  </outline>
</glyph>
<glyph name="diaeresis" format="2">
  <advance width="584.9640252699096"/>
  <unicode hex="00A8"/>
  <anchor x="292.4820126349548" y="999.4372101567753" name="center" identifier="center"/>
  <anchor x="292.4820126349548" y="1197.0325967938456" name="top" identifier="top"/>
  <outline>
    <contour>
      <point x="268.71002526990964" y="999.4372101567753" type="curve" smooth="yes"/>
      <point x="268.71002526990964" y="1048.9266091010668"/>
      <point x="228.53091157924615" y="1089.1057227917302"/>
      <point x="179.0415126349548" y="1089.1057227917302" type="curve" smooth="yes"/>
      <point x="129.55211369066345" y="1089.1057227917302"/>
      <point x="89.37299999999996" y="1048.9266091010668"/>
      <point x="89.37299999999996" y="999.4372101567753" type="curve" smooth="yes"/>
      <point x="89.37299999999996" y="949.947811212484"/>
      <point x="129.55211369066342" y="909.7686975218205"/>
      <point x="179.04151263495478" y="909.7686975218205" type="curve" smooth="yes"/>
      <point x="228.53091157924615" y="909.7686975218205"/>
      <point x="268.71002526990964" y="949.947811212484"/>
    </contour>
    <contour>
      <point x="495.5910252699096" y="999.4372101567753" type="curve" smooth="yes"/>
      <point x="495.5910252699096" y="1048.9266091010668"/>
      <point x="455.4119115792461" y="1089.1057227917302"/>
      <point x="405.9225126349548" y="1089.1057227917302" type="curve" smooth="yes"/>
      <point x="356.43311369066345" y="1089.1057227917302"/>
      <point x="316.25399999999996" y="1048.9266091010668"/>
      <point x="316.25399999999996" y="999.4372101567753" type="curve" smooth="yes"/>
      <point x="316.25399999999996" y="949.947811212484"/>
      <point x="356.43311369066345" y="909.7686975218205"/>
      <point x="405.9225126349548" y="909.7686975218205" type="curve" smooth="yes"/>
      <point x="455.4119115792461" y="909.7686975218205"/>
      <point x="495.5910252699096" y="949.947811212484"/>
    </contour>
  </outline>
</glyph>
<glyph name="copyright" format="2">
  <advance width="928.746"/>
  <unicode hex="00A9"/>
  <outline>
    <contour>
      <point x="904.373" y="425.0" type="curve" smooth="yes"/>
      <point x="904.373" y="667.8426088"/>
      <point x="707.2156087999999" y="865.0"/>
      <point x="464.37300000000005" y="865.0" type="curve" smooth="yes"/>
      <point x="221.53039119999997" y="865.0"/>
      <point x="24.372999999999962" y="667.8426088000001"/>
      <point x="24.372999999999962" y="425.0" type="curve" smooth="yes"/>
      <point x="24.372999999999905" y="182.15739120000003"/>
      <point x="221.5303911999999" y="-14.999999999999943"/>
      <point x="464.37299999999993" y="-15.0" type="curve" smooth="yes"/>
      <point x="707.2156087999999" y="-15.000000000000057"/>
      <point x="904.373" y="182.1573911999999"/>
    </contour>
    <contour>
      <point x="800.4834060104679" y="425.0" type="curve" smooth="yes"/>
      <point x="800.4834060104679" y="239.49561854452438"/>
      <point x="649.8773814554754" y="88.88959398953199"/>
      <point x="464.37299999999993" y="88.88959398953205" type="curve" smooth="yes"/>
      <point x="278.86861854452434" y="88.88959398953205"/>
      <point x="128.262593989532" y="239.49561854452446"/>
      <point x="128.262593989532" y="425.0" type="curve" smooth="yes"/>
      <point x="128.262593989532" y="610.5043814554756"/>
      <point x="278.86861854452445" y="761.110406010468"/>
      <point x="464.37300000000005" y="761.110406010468" type="curve" smooth="yes"/>
      <point x="649.8773814554756" y="761.110406010468"/>
      <point x="800.4834060104679" y="610.5043814554756"/>
    </contour>
    <contour>
      <point x="481.6532406359662" y="542.550681459544" type="curve"/>
      <point x="510.6366648943491" y="542.5506809910971"/>
      <point x="557.340005076462" y="536.4408671271212"/>
      <point x="603.1487432902908" y="503.9823272264169" type="curve"/>
      <point x="603.1487432902908" y="636.839534497002" type="line"/>
      <point x="561.00082859308" y="659.2774055590558"/>
      <point x="516.6898543874756" y="667.415633289544"/>
      <point x="477.91533333333336" y="667.415633289544" type="curve"/>
      <point x="340.5408370016505" y="667.415633289544"/>
      <point x="229.0104783838889" y="562.359759423377"/>
      <point x="229.0104783838889" y="425.0" type="curve" smooth="yes"/>
      <point x="229.0104783838889" y="287.64024057662306"/>
      <point x="340.5408370016504" y="182.58436671045604"/>
      <point x="477.91533333333336" y="182.584366710456" type="curve"/>
      <point x="516.6686635734217" y="182.584366710456"/>
      <point x="560.9839828947877" y="190.71385131594798"/>
      <point x="603.1487432902908" y="213.15890330606445" type="curve"/>
      <point x="603.1487432902908" y="346.0293531397312" type="line"/>
      <point x="558.0083400704152" y="314.02898779742446"/>
      <point x="511.7191719528364" y="307.44931854045603"/>
      <point x="481.6532406359661" y="307.44931854045603" type="curve"/>
      <point x="416.716859913716" y="307.44931854045603"/>
      <point x="363.99675663187054" y="360.0790599596205"/>
      <point x="363.99675663187054" y="425.0" type="curve" smooth="yes"/>
      <point x="363.99675663187054" y="489.9209400403795"/>
      <point x="416.7168599137161" y="542.550681459544"/>
    </contour>
  </outline>
</glyph>
<glyph name="ordinal_a" format="2">
  <advance width="500.2796265010611"/>
  <unicode hex="00AA"/>
  <outline>
    <contour>
      <point x="316.5196614384949" y="462.94214285714287" type="line"/>
      <point x="419.9066241875589" y="462.94214285714287" type="line"/>
      <point x="419.9066241875589" y="657.0506231863078" type="line"/>
      <point x="419.9066241875589" y="742.3775131753464"/>
      <point x="411.3324907299825" y="859.4668542206489"/>
      <point x="238.67944004825222" y="859.4668542206489" type="curve"/>
      <point x="183.1569954164334" y="859.4668542206489"/>
      <point x="132.79298059327118" y="847.3159788425583"/>
      <point x="95.69448649262492" y="825.0883768155966" type="curve"/>
      <point x="95.69448649262492" y="713.3645557843976" type="line"/>
      <point x="125.9815990867467" y="740.7360971140185"/>
      <point x="175.40663024238842" y="757.5805116537448"/>
      <point x="231.30802148315468" y="757.5805116537448" type="curve"/>
      <point x="312.2144468235354" y="757.5805116537448"/>
      <point x="312.4388873587029" y="719.2828372303846"/>
      <point x="312.4388873587029" y="707.0506246924192" type="curve"/>
      <point x="312.43888621498553" y="699.4857491925943" type="line"/>
      <point x="282.16613450923984" y="705.1295841022763"/>
      <point x="254.36971090553624" y="706.413804886696"/>
      <point x="236.2647481594356" y="706.413804886696" type="curve"/>
      <point x="140.1404218156905" y="706.413804886696"/>
      <point x="63.37299999999996" y="664.6422012541425"/>
      <point x="63.37299999999996" y="579.944546761595" type="curve"/>
      <point x="63.37299999999996" y="500.89765677655186"/>
      <point x="134.59327940209107" y="453.475288636494"/>
      <point x="218.3004013807581" y="453.475288636494" type="curve"/>
      <point x="258.9282298147643" y="453.475288636494"/>
      <point x="294.81456799672156" y="465.45136963042717"/>
      <point x="316.5196614384949" y="486.77999264701515" type="curve"/>
    </contour>
    <contour>
      <point x="176.65875510028712" y="583.7752446381201" type="curve"/>
      <point x="176.65875510028712" y="612.7353967746818"/>
      <point x="205.0961452582019" y="628.2229358080841"/>
      <point x="243.7347832626259" y="628.2229358080841" type="curve"/>
      <point x="255.34411833562382" y="628.2229358080841"/>
      <point x="283.72416560523953" y="627.3515712835122"/>
      <point x="312.43888621498553" y="619.9855286679712" type="curve"/>
      <point x="312.4388873587029" y="574.8090278408467"/>
      <point x="274.69390472838893" y="541.5238284944603"/>
      <point x="228.16014157637892" y="541.5238284944603" type="curve"/>
      <point x="199.7161593657545" y="541.5238284944603"/>
      <point x="176.65875510028712" y="557.855993978998"/>
    </contour>
    <contour>
      <point x="72.83985422064879" y="308.65714018928577" type="line"/>
      <point x="419.90662650106117" y="308.65714018928577" type="line"/>
      <point x="419.90662650106117" y="417.2271455250001" type="line"/>
      <point x="72.83985422064879" y="417.2271455250001" type="line"/>
    </contour>
  </outline>
</glyph>
<glyph name="angleleft_dbl" format="2">
  <advance width="681.8416268310547"/>
  <unicode hex="00AB"/>
  <outline>
    <contour>
      <point x="196.61651501464837" y="306.6418762207031" type="line"/>
      <point x="345.90586743164056" y="553.5575332641602" type="line"/>
      <point x="207.8449619750976" y="553.5575332641602" type="line"/>
      <point x="28.372999999999962" y="306.6418762207031" type="line"/>
      <point x="207.84495434570306" y="59.726219177246094" type="line"/>
      <point x="345.90586743164056" y="59.726219177246094" type="line"/>
    </contour>
    <contour>
      <point x="483.1792744140625" y="306.6418762207031" type="line"/>
      <point x="632.4686268310547" y="553.5575332641602" type="line"/>
      <point x="494.4077213745117" y="553.5575332641602" type="line"/>
      <point x="314.935759399414" y="306.6418762207031" type="line"/>
      <point x="494.4077137451172" y="59.726219177246094" type="line"/>
      <point x="632.4686268310547" y="59.726219177246094" type="line"/>
    </contour>
  </outline>
</glyph>
<glyph name="logicalnot" format="2">
  <advance width="671.9852883300781"/>
  <unicode hex="00AC"/>
  <outline>
    <contour>
      <point x="429.4772861938476" y="82.06440734863281" type="line"/>
      <point x="582.6122883300782" y="82.06440734863281" type="line"/>
      <point x="582.6122883300782" y="501.56749725341797" type="line"/>
      <point x="30.372999999999962" y="501.56749725341797" type="line"/>
      <point x="30.372999999999962" y="356.08924865722656" type="line"/>
      <point x="429.4772861938476" y="356.08924865722656" type="line"/>
    </contour>
  </outline>
</glyph>
<glyph name="registered" format="2">
  <advance width="928.746"/>
  <unicode hex="00AE"/>
  <outline>
    <contour>
      <point x="904.373" y="425.0" type="curve" smooth="yes"/>
      <point x="904.373" y="667.8426088"/>
      <point x="707.2156087999999" y="865.0"/>
      <point x="464.37300000000005" y="865.0" type="curve" smooth="yes"/>
      <point x="221.53039119999997" y="865.0"/>
      <point x="24.372999999999962" y="667.8426088000001"/>
      <point x="24.372999999999962" y="425.0" type="curve" smooth="yes"/>
      <point x="24.372999999999905" y="182.15739120000003"/>
      <point x="221.5303911999999" y="-14.999999999999943"/>
      <point x="464.37299999999993" y="-15.0" type="curve" smooth="yes"/>
      <point x="707.2156087999999" y="-15.000000000000057"/>
      <point x="904.3729999999998" y="182.1573911999999"/>
    </contour>
    <contour>
      <point x="802.5733875871306" y="425.0" type="curve" smooth="yes"/>
      <point x="802.5733875871304" y="238.34212632084103"/>
      <point x="651.0308736791588" y="86.79961241286941"/>
      <point x="464.37299999999993" y="86.79961241286946" type="curve" smooth="yes"/>
      <point x="277.715126320841" y="86.79961241286946"/>
      <point x="126.17261241286943" y="238.34212632084112"/>
      <point x="126.17261241286943" y="425.0" type="curve" smooth="yes"/>
      <point x="126.17261241286943" y="611.6578736791589"/>
      <point x="277.71512632084114" y="763.2003875871305"/>
      <point x="464.37300000000005" y="763.2003875871305" type="curve" smooth="yes"/>
      <point x="651.030873679159" y="763.2003875871305"/>
      <point x="802.5733875871306" y="611.6578736791589"/>
    </contour>
    <contour>
      <point x="304.8229518166572" y="184.29961241286946" type="line"/>
      <point x="435.60952632672377" y="184.29961241286946" type="line"/>
      <point x="435.60952632672377" y="336.3457499934046" type="line"/>
      <point x="447.57207062994803" y="336.3457499934046" type="line"/>
      <point x="541.4153468305803" y="184.29961241286946" type="line"/>
      <point x="683.3254649875962" y="184.29961241286946" type="line"/>
      <point x="571.970338563481" y="362.51375489353103" type="line"/>
      <point x="617.4520309120635" y="391.83161770812984"/>
      <point x="647.5926517670928" y="442.93525821401033"/>
      <point x="647.5926517670928" y="501.0230691533711" type="curve" smooth="yes"/>
      <point x="647.5926517670928" y="564.4863397852965"/>
      <point x="619.7499093928553" y="665.7003875871305"/>
      <point x="440.93468955417734" y="665.7003875871305" type="curve"/>
      <point x="304.8229518166572" y="665.7003875871305" type="line"/>
    </contour>
    <contour>
      <point x="435.60952632672377" y="456.6689984239006" type="line"/>
      <point x="435.60952632672377" y="541.453140722333" type="line"/>
      <point x="466.04822991131414" y="541.453140722333" type="line"/>
      <point x="502.5392606274503" y="541.453140722333"/>
      <point x="515.695428243715" y="518.5641753897621"/>
      <point x="515.695428243715" y="499.0610698548349" type="curve" smooth="yes"/>
      <point x="515.695428243715" y="479.5579651048912"/>
      <point x="502.5392617105226" y="456.6689982151406"/>
      <point x="466.0482301865503" y="456.6689983289595" type="curve"/>
    </contour>
  </outline>
</glyph>
<glyph name="macron" format="2">
  <advance width="542.4067738095237"/>
  <unicode hex="00AF"/>
  <anchor x="271.2033869047618" y="999.4372101567753" name="center" identifier="center"/>
  <anchor x="271.2033869047618" y="1185.6588721350406" name="top" identifier="top"/>
  <outline>
    <contour>
      <point x="89.37299999999996" y="937.7465566424896" type="line"/>
      <point x="453.0337738095237" y="937.7465566424896" type="line"/>
      <point x="453.0337738095237" y="1061.127863671061" type="line"/>
      <point x="89.37299999999996" y="1061.127863671061" type="line"/>
    </contour>
  </outline>
</glyph>
<glyph name="degree" format="2">
  <advance width="496.0701666666665"/>
  <unicode hex="00B0"/>
  <outline>
    <contour>
      <point x="435.6971666666666" y="677.3379166666666" type="curve" smooth="yes"/>
      <point x="435.6971666666666" y="780.911439142825"/>
      <point x="351.60860580949156" y="865.0"/>
      <point x="248.03508333333326" y="865.0" type="curve" smooth="yes"/>
      <point x="144.46156085717496" y="865.0"/>
      <point x="60.37299999999996" y="780.911439142825"/>
      <point x="60.37299999999996" y="677.3379166666666" type="curve" smooth="yes"/>
      <point x="60.37299999999996" y="573.7643941905083"/>
      <point x="144.4615608571749" y="489.6758333333333"/>
      <point x="248.03508333333326" y="489.6758333333333" type="curve" smooth="yes"/>
      <point x="351.60860580949156" y="489.67583333333323"/>
      <point x="435.6971666666666" y="573.7643941905083"/>
    </contour>
    <contour>
      <point x="309.32940142238084" y="677.3379166666666" type="curve" smooth="yes"/>
      <point x="309.32940142238084" y="640.019526010276"/>
      <point x="282.37251877069" y="609.7252103154048"/>
      <point x="248.03508333333326" y="609.7252103154048" type="curve" smooth="yes"/>
      <point x="213.6976478959765" y="609.7252103154048"/>
      <point x="186.74076524428568" y="640.019526010276"/>
      <point x="186.74076524428568" y="677.3379166666666" type="curve" smooth="yes"/>
      <point x="186.74076524428568" y="714.6563073230573"/>
      <point x="213.6976478959765" y="744.9506230179285"/>
      <point x="248.03508333333326" y="744.9506230179285" type="curve" smooth="yes"/>
      <point x="282.37251877069" y="744.9506230179285"/>
      <point x="309.32940142238084" y="714.6563073230573"/>
    </contour>
  </outline>
</glyph>
<glyph name="plusminus" format="2">
  <advance width="622.1654901785714"/>
  <unicode hex="00B1"/>
  <outline>
    <contour>
      <point x="237.3164967041015" y="306.39746856689453" type="line"/>
      <point x="384.8489979248046" y="306.39746856689453" type="line"/>
      <point x="384.8489979248046" y="449.3409652709961" type="line"/>
      <point x="527.7924869995118" y="449.3409652709961" type="line"/>
      <point x="527.7924869995118" y="596.8734664916992" type="line"/>
      <point x="384.8489979248046" y="596.8734664916992" type="line"/>
      <point x="384.8489979248046" y="739.8169555664062" type="line"/>
      <point x="237.3164967041015" y="739.8169555664062" type="line"/>
      <point x="237.3164967041015" y="596.8734664916992" type="line"/>
      <point x="94.37299999999996" y="596.8734664916992" type="line"/>
      <point x="94.37299999999996" y="449.3409652709961" type="line"/>
      <point x="237.3164967041015" y="449.3409652709961" type="line"/>
    </contour>
    <contour>
      <point x="94.37299999999996" y="110.18304062499999" type="line"/>
      <point x="527.7924901785715" y="110.18304062499999" type="line"/>
      <point x="527.7924901785715" y="257.715540625" type="line"/>
      <point x="94.37299999999996" y="257.715540625" type="line"/>
    </contour>
  </outline>
</glyph>
<glyph name="sup_two" format="2">
  <advance width="512.2447792968749"/>
  <unicode hex="00B2"/>
  <outline>
    <contour>
      <point x="64.37299999999996" y="303.57142639160156" type="line"/>
      <point x="438.87177929687493" y="303.57142639160156" type="line"/>
      <point x="438.87177929687493" y="418.1643981933594" type="line"/>
      <point x="289.6458652954101" y="418.1643981933594" type="line"/>
      <point x="353.1593251672903" y="505.8441058876975" type="line"/>
      <point x="397.2062496154383" y="566.6504525776543"/>
      <point x="426.0146383935283" y="616.966940874645"/>
      <point x="426.0146383935283" y="680.611298265394" type="curve"/>
      <point x="426.0146383935283" y="779.4157845300388"/>
      <point x="344.993793914924" y="859.6428571428571"/>
      <point x="245.05450808749373" y="859.6428571428571" type="curve"/>
      <point x="185.54976396951173" y="859.6428571428571"/>
      <point x="131.89051945712134" y="840.4254625649197"/>
      <point x="94.10616955566402" y="807.0509719848633" type="curve"/>
      <point x="94.10616955566402" y="680.2028198242188" type="line"/>
      <point x="144.13440890971685" y="740.7798801877309"/>
      <point x="215.2913212251176" y="745.4254801836823"/>
      <point x="237.44146781778932" y="745.4254801836823" type="curve"/>
      <point x="276.18062331128726" y="745.4254801836823"/>
      <point x="307.63770563300073" y="721.7406954326879"/>
      <point x="307.63770563300073" y="682.621701189963" type="curve"/>
      <point x="307.6377056330007" y="649.1903964058214"/>
      <point x="287.98636152876486" y="620.6394053653353"/>
      <point x="272.29985759397135" y="598.3970488900102" type="curve"/>
    </contour>
  </outline>
</glyph>
<glyph name="sup_three" format="2">
  <advance width="485.03320365251807"/>
  <unicode hex="00B3"/>
  <outline>
    <contour>
      <point x="302.26731257083765" y="489.6897968750967" type="curve"/>
      <point x="302.25670217291963" y="486.9291171439457"/>
      <point x="302.15697716178414" y="485.3820216228139"/>
      <point x="302.0938736964634" y="484.6193389892578" type="curve"/>
      <point x="422.8914887477329" y="484.6193389892578" type="line"/>
      <point x="422.8914880449756" y="567.0363044249539"/>
      <point x="375.5446154616338" y="627.0827978941711"/>
      <point x="306.14747782243995" y="655.972038269043" type="curve"/>
      <point x="430.6602036525181" y="850" type="line"/>
      <point x="77.93263407243997" y="850" type="line"/>
      <point x="77.93263407243997" y="735.4070358276367" type="line"/>
      <point x="234.63156290544777" y="735.4070358276367" type="line"/>
      <point x="122.56540842546731" y="564.1674423217773" type="line"/>
      <point x="141.29017647025057" y="569.5865140517265"/>
      <point x="164.3127311728893" y="571.6929304897601"/>
      <point x="190.11766561402908" y="571.6929304897601" type="curve"/>
      <point x="252.0720861090669" y="571.6929304897601"/>
      <point x="302.26731257083765" y="543.4836843695657"/>
    </contour>
    <contour>
      <point x="203.51642016944777" y="407.6866632604333" type="curve"/>
      <point x="149.23598236177156" y="407.68666326043336"/>
      <point x="100.83854377637114" y="428.7992208806438"/>
      <point x="69.37299999999996" y="461.71376582554404" type="curve"/>
      <point x="69.37300272478372" y="334.5518569946289" type="line"/>
      <point x="121.06327795577347" y="298.96313647626596"/>
      <point x="183.77567126468853" y="293.92857142857133"/>
      <point x="214.78411240713245" y="293.92857142857133" type="curve"/>
      <point x="329.7045297572637" y="293.92857142857133"/>
      <point x="422.8914880449756" y="379.1332334088097"/>
      <point x="422.8914880449756" y="484.6193353681386" type="curve"/>
      <point x="302.0938736964634" y="484.6193313598633" type="line"/>
      <point x="299.0403930053138" y="436.8122942562293"/>
      <point x="256.0517178998217" y="407.6866632604333"/>
    </contour>
  </outline>
</glyph>
<glyph name="acute" format="2">
  <advance width="444.9416558227538"/>
  <unicode hex="00B4"/>
  <anchor x="149.83521290714606" y="999.4372101567753" name="center" identifier="center"/>
  <anchor x="149.83521290714606" y="898.8102101567754" name="bottom" identifier="bottom"/>
  <anchor x="149.83521290714606" y="1242.9129536682085" name="top" identifier="top"/>
  <outline>
    <contour>
      <point x="195.1818760375976" y="898.8102111816406" type="line"/>
      <point x="355.56865582275384" y="1097.9795455932617" type="line"/>
      <point x="194.7147129516601" y="1097.9795455932617" type="line"/>
      <point x="89.37299999999996" y="898.8102111816406" type="line"/>
    </contour>
  </outline>
</glyph>
<glyph name="micron" format="2">
  <advance width="749.3797356567383"/>
  <unicode hex="00B5"/>
  <outline>
    <contour>
      <point x="89.37299999999996" y="-288.28375244140625" type="line"/>
      <point x="237.3062656860351" y="-288.28375244140625" type="line"/>
      <point x="237.3062656860351" y="27.487716674804688" type="line"/>
      <point x="274.89314879228084" y="0.730244254471355"/>
      <point x="320.8459881767335" y="-14.999999999999984"/>
      <point x="370.4438323327175" y="-15.0" type="curve" smooth="yes"/>
      <point x="423.8427046761491" y="-15.000000000000012"/>
      <point x="473.0164801202394" y="3.2336678252208824"/>
      <point x="512.0734623413086" y="33.826171875" type="curve"/>
      <point x="512.0734623413086" y="0" type="line"/>
      <point x="660.0067356567383" y="0" type="line"/>
      <point x="660.0067356567383" y="613.2837524414062" type="line"/>
      <point x="512.0734623413086" y="613.2837524414062" type="line"/>
      <point x="512.0734623413086" y="310.7836971490737" type="line"/>
      <point x="512.0734623413086" y="263.87981799782295"/>
      <point x="508.7735016210501" y="125.53660467206896"/>
      <point x="374.6898668154761" y="125.53660467206896" type="curve" smooth="yes"/>
      <point x="240.60622785381537" y="125.53660467206898"/>
      <point x="237.3062681207159" y="263.8798303908225"/>
      <point x="237.30626779388513" y="310.783704572184" type="curve"/>
      <point x="237.3062656860351" y="613.2837524414062" type="line"/>
      <point x="89.37299999999996" y="613.2837524414062" type="line"/>
    </contour>
  </outline>
</glyph>
<glyph name="pilcrow" format="2">
  <advance width="806.0814852876209"/>
  <unicode hex="00B6"/>
  <outline>
    <contour>
      <point x="305.75198809523806" y="-185.71428680419922" type="line"/>
      <point x="451.23023669142947" y="-185.71428680419922" type="line"/>
      <point x="451.23023669142947" y="704.5217514038086" type="line"/>
      <point x="571.2302366914296" y="704.5217514038086" type="line"/>
      <point x="571.2302366914296" y="-185.71428680419922" type="line"/>
      <point x="716.708485287621" y="-185.71428680419922" type="line"/>
      <point x="716.708485287621" y="850" type="line"/>
      <point x="355.75198809523806" y="850.0" type="line"/>
      <point x="72.70874403069931" y="850.0"/>
      <point x="29.372999999999962" y="663.4560083431167"/>
      <point x="29.372999999999962" y="573.6210119047619" type="curve" smooth="yes"/>
      <point x="29.372999999999976" y="421.08329716259874"/>
      <point x="153.21427335307484" y="297.24202380952374"/>
      <point x="305.75198809523806" y="297.24202380952374" type="curve"/>
    </contour>
  </outline>
</glyph>
<glyph name="interpunct" format="2">
  <advance width="349.928559142857"/>
  <unicode hex="00B7"/>
  <outline>
    <contour>
      <point x="276.5555591428571" y="425.0" type="curve" smooth="yes"/>
      <point x="276.5555591428571" y="481.0697530964906"/>
      <point x="231.03403266791912" y="526.5912795714286"/>
      <point x="174.96427957142853" y="526.5912795714286" type="curve" smooth="yes"/>
      <point x="118.89452647493795" y="526.5912795714286"/>
      <point x="73.37299999999996" y="481.0697530964906"/>
      <point x="73.37299999999996" y="425.0" type="curve" smooth="yes"/>
      <point x="73.37299999999996" y="368.93024690350944"/>
      <point x="118.89452647493792" y="323.4087204285714"/>
      <point x="174.96427957142853" y="323.4087204285714" type="curve" smooth="yes"/>
      <point x="231.0340326679191" y="323.4087204285714"/>
      <point x="276.5555591428571" y="368.9302469035094"/>
    </contour>
  </outline>
</glyph>
<glyph name="cedilla" format="2">
  <advance width="281.6817585751565"/>
  <unicode hex="00B8"/>
  <anchor x="137.53112410888667" y="0" name="top" identifier="top"/>
  <outline>
    <contour>
      <point x="150.2285956499432" y="-160.70982519647688" type="curve"/>
      <point x="150.2285956499432" y="-189.99597763898254"/>
      <point x="124.1404188590918" y="-208.62345149274458"/>
      <point x="91.9668241088867" y="-208.62345149274458" type="curve"/>
      <point x="77.82747739164276" y="-208.62345149274458"/>
      <point x="40.65797480101402" y="-206.44389279200144"/>
      <point x="8.372999999999962" y="-186.74388122558594" type="curve"/>
      <point x="8.372999999999962" y="-285.5450668334961" type="line"/>
      <point x="40.561959028661406" y="-300.2315815435347"/>
      <point x="71.54800144871407" y="-303.28375000000005"/>
      <point x="91.96682410888667" y="-303.28375000000005" type="curve"/>
      <point x="180.47350939922515" y="-303.28375"/>
      <point x="252.30875857515653" y="-239.45091850360123"/>
      <point x="252.30875857515653" y="-160.93720623095965" type="curve"/>
      <point x="252.3087591810747" y="-105.88534764948108"/>
      <point x="221.01179438834995" y="-59.47114743249685"/>
      <point x="174.86527905273434" y="-35.7115478515625" type="curve"/>
      <point x="191.15121350097652" y="1.4157562255859375" type="line"/>
      <point x="92.3136585693359" y="1.4157562255859375" type="line"/>
      <point x="39.000151489257775" y="-120.12386322021484" type="line"/>
      <point x="59.78944951931982" y="-111.98043871929133"/>
      <point x="79.4487708140662" y="-110.67079890020915"/>
      <point x="89.46682410888673" y="-110.67079890020915" type="curve"/>
      <point x="124.35109183890492" y="-110.67079890020918"/>
      <point x="150.2285956499432" y="-131.22469556354298"/>
    </contour>
  </outline>
</glyph>
<glyph name="sup_one" format="2">
  <advance width="522.0932976684569"/>
  <unicode hex="00B9"/>
  <outline>
    <contour>
      <point x="227.1165607910156" y="303.57142639160156" type="line"/>
      <point x="352.72029766845696" y="303.57142639160156" type="line"/>
      <point x="352.72029766845696" y="850" type="line"/>
      <point x="158.4244755249023" y="850" type="line"/>
      <point x="100.37299999999996" y="735.4070358276367" type="line"/>
      <point x="227.1165607910156" y="735.4070358276367" type="line"/>
    </contour>
  </outline>
</glyph>
<glyph name="ordinal_o" format="2">
  <advance width="543.4445162376771"/>
  <unicode hex="00BA"/>
  <outline>
    <contour>
      <point x="478.0715162376772" y="656.4710714285715" type="curve" smooth="yes"/>
      <point x="478.0715162376772" y="770.3583263502154"/>
      <point x="385.60951304048257" y="859.4668542206489"/>
      <point x="271.72225811883857" y="859.4668542206489" type="curve" smooth="yes"/>
      <point x="157.83500319719457" y="859.4668542206489"/>
      <point x="65.37299999999996" y="770.3583263502154"/>
      <point x="65.37299999999996" y="656.4710714285715" type="curve" smooth="yes"/>
      <point x="65.37299999999996" y="542.5838165069274"/>
      <point x="157.83500319719457" y="453.475288636494"/>
      <point x="271.72225811883857" y="453.475288636494" type="curve" smooth="yes"/>
      <point x="385.60951304048257" y="453.475288636494"/>
      <point x="478.0715162376772" y="542.5838165069274"/>
    </contour>
    <contour>
      <point x="360.5960303419505" y="656.4710714285715" type="curve" smooth="yes"/>
      <point x="360.5960303419505" y="604.27647510506"/>
      <point x="321.5483658173502" y="561.8911986770113"/>
      <point x="271.72225811883857" y="561.8911986770113" type="curve" smooth="yes"/>
      <point x="221.89615042032693" y="561.8911986770113"/>
      <point x="182.84848589572664" y="604.27647510506"/>
      <point x="182.84848589572664" y="656.4710714285715" type="curve" smooth="yes"/>
      <point x="182.84848589572664" y="708.6656677520829"/>
      <point x="221.89615042032693" y="751.0509441801316"/>
      <point x="271.72225811883857" y="751.0509441801316" type="curve" smooth="yes"/>
      <point x="321.5483658173502" y="751.0509441801316"/>
      <point x="360.5960303419505" y="708.6656677520829"/>
    </contour>
    <contour>
      <point x="78.19332954741" y="308.65714018928577" type="line"/>
      <point x="465.2511866902671" y="308.65714018928577" type="line"/>
      <point x="465.2511866902671" y="417.2271455250001" type="line"/>
      <point x="78.19332954741" y="417.2271455250001" type="line"/>
    </contour>
  </outline>
</glyph>
<glyph name="angleright_dbl" format="2">
  <advance width="682.8416268310547"/>
  <unicode hex="00BB"/>
  <outline>
    <contour>
      <point x="654.4686268310547" y="306.6418762207031" type="line"/>
      <point x="474.9966648559571" y="553.5575332641602" type="line"/>
      <point x="336.935759399414" y="553.5575332641602" type="line"/>
      <point x="486.2251118164063" y="306.6418762207031" type="line"/>
      <point x="336.935759399414" y="59.726219177246094" type="line"/>
      <point x="474.9966724853516" y="59.726219177246094" type="line"/>
    </contour>
    <contour>
      <point x="367.90586743164056" y="306.6418762207031" type="line"/>
      <point x="188.43390545654293" y="553.5575332641602" type="line"/>
      <point x="50.37299999999996" y="553.5575332641602" type="line"/>
      <point x="199.66235241699215" y="306.6418762207031" type="line"/>
      <point x="50.37299999999996" y="59.726219177246094" type="line"/>
      <point x="188.43391308593746" y="59.726219177246094" type="line"/>
    </contour>
  </outline>
</glyph>
<glyph name="one_over_four" format="2">
  <advance width="1080.6542299578796"/>
  <unicode hex="00BC"/>
  <outline>
    <contour>
      <point x="156.2641008264484" y="0" type="line"/>
      <point x="303.40637377566713" y="0" type="line"/>
      <point x="897.1976106531085" y="850" type="line"/>
      <point x="750.0553377038898" y="850" type="line"/>
    </contour>
    <contour>
      <point x="192.1165607910156" y="303.57142639160156" type="line"/>
      <point x="317.72029766845696" y="303.57142639160156" type="line"/>
      <point x="317.72029766845696" y="850" type="line"/>
      <point x="123.4244755249023" y="850" type="line"/>
      <point x="65.37299999999996" y="735.4070358276367" type="line"/>
      <point x="192.1165607910156" y="735.4070358276367" type="line"/>
    </contour>
    <contour>
      <point x="562.5488920062194" y="118.80440521240234" type="line"/>
      <point x="850.117518410028" y="118.80440521240234" type="line"/>
      <point x="850.117518410028" y="0" type="line"/>
      <point x="969.953211769403" y="0" type="line"/>
      <point x="969.953211769403" y="118.80440521240234" type="line"/>
      <point x="1041.2812299578795" y="118.80440521240234" type="line"/>
      <point x="1041.2812299578795" y="227.16835021972656" type="line"/>
      <point x="969.953211769403" y="227.16835021972656" type="line"/>
      <point x="969.953211769403" y="362.1368942260742" type="line"/>
      <point x="850.117518410028" y="362.1368942260742" type="line"/>
      <point x="850.117518410028" y="227.16835021972656" type="line"/>
      <point x="752.0625409930358" y="227.16835021972656" type="line"/>
      <point x="938.0824613421569" y="546.4285736083984" type="line"/>
      <point x="808.2136411517272" y="546.4285736083984" type="line"/>
    </contour>
  </outline>
</glyph>
<glyph name="one_over_two" format="2">
  <advance width="1130.537450630487"/>
  <unicode hex="00BD"/>
  <outline>
    <contour>
      <point x="156.2641008264484" y="0" type="line"/>
      <point x="303.40637377566713" y="0" type="line"/>
      <point x="897.1976106531085" y="850" type="line"/>
      <point x="750.0553377038898" y="850" type="line"/>
    </contour>
    <contour>
      <point x="192.1165607910156" y="303.57142639160156" type="line"/>
      <point x="317.72029766845696" y="303.57142639160156" type="line"/>
      <point x="317.72029766845696" y="850" type="line"/>
      <point x="123.4244755249023" y="850" type="line"/>
      <point x="65.37299999999996" y="735.4070358276367" type="line"/>
      <point x="192.1165607910156" y="735.4070358276367" type="line"/>
    </contour>
    <contour>
      <point x="684.665671333612" y="0" type="line"/>
      <point x="1059.164450630487" y="0" type="line"/>
      <point x="1059.164450630487" y="114.59296417236328" type="line"/>
      <point x="909.9385366290221" y="114.59296417236328" type="line"/>
      <point x="973.4519976460065" y="202.272678666605" type="line"/>
      <point x="1017.4988895240328" y="263.07898401329885"/>
      <point x="1046.3073097271404" y="313.39549380028546"/>
      <point x="1046.3073097271404" y="377.03986969396556" type="curve"/>
      <point x="1046.3073097271404" y="475.8443559586103"/>
      <point x="965.2864652485359" y="556.0714285714287"/>
      <point x="865.3471794211057" y="556.0714285714287" type="curve"/>
      <point x="805.8424353031237" y="556.0714285714287"/>
      <point x="752.1831918723071" y="536.8540349488331"/>
      <point x="714.398840889276" y="503.4795455932617" type="curve"/>
      <point x="714.398840889276" y="376.6313934326172" type="line"/>
      <point x="764.4270818810696" y="437.20845244358287"/>
      <point x="835.5839925587297" y="441.8540516122537"/>
      <point x="857.7341391514015" y="441.8540516122537" type="curve"/>
      <point x="896.4732946448994" y="441.8540516122538"/>
      <point x="927.9303769666128" y="418.1692668612593"/>
      <point x="927.9303769666128" y="379.0502726185345" type="curve"/>
      <point x="927.9303769666128" y="345.61896915073646"/>
      <point x="908.2790344108668" y="317.067981169383"/>
      <point x="892.5925300695444" y="294.8256241176289" type="curve"/>
    </contour>
  </outline>
</glyph>
<glyph name="three_over_four" format="2">
  <advance width="1143.4039999861302"/>
  <unicode hex="00BE"/>
  <outline>
    <contour>
      <point x="219.01387085469898" y="0" type="line"/>
      <point x="366.15614380391776" y="0" type="line"/>
      <point x="959.9473806813592" y="850" type="line"/>
      <point x="812.8051077321404" y="850" type="line"/>
    </contour>
    <contour>
      <point x="302.2673125708377" y="489.6897968750967" type="curve"/>
      <point x="302.25670217291963" y="486.9291171439457"/>
      <point x="302.1569771617842" y="485.3820216228139"/>
      <point x="302.09387369646345" y="484.6193389892578" type="curve"/>
      <point x="422.891488747733" y="484.6193389892578" type="line"/>
      <point x="422.89148804497563" y="567.0363044249539"/>
      <point x="375.54461546163384" y="627.0827978941711"/>
      <point x="306.14747782244" y="655.972038269043" type="curve"/>
      <point x="430.66020365251813" y="850" type="line"/>
      <point x="77.93263407243998" y="850" type="line"/>
      <point x="77.93263407243998" y="735.4070358276367" type="line"/>
      <point x="234.6315629054478" y="735.4070358276367" type="line"/>
      <point x="122.56540842546733" y="564.1674423217773" type="line"/>
      <point x="141.29017647025057" y="569.5865140517265"/>
      <point x="164.3127311728893" y="571.6929304897601"/>
      <point x="190.1176656140291" y="571.6929304897601" type="curve"/>
      <point x="252.07208610906693" y="571.6929304897601"/>
      <point x="302.2673125708377" y="543.4836843695657"/>
    </contour>
    <contour>
      <point x="625.29866203447" y="118.80440521240234" type="line"/>
      <point x="912.8672884382786" y="118.80440521240234" type="line"/>
      <point x="912.8672884382786" y="0" type="line"/>
      <point x="1032.7029817976536" y="0" type="line"/>
      <point x="1032.7029817976536" y="118.80440521240234" type="line"/>
      <point x="1104.0309999861302" y="118.80440521240234" type="line"/>
      <point x="1104.0309999861302" y="227.16835021972656" type="line"/>
      <point x="1032.7029817976536" y="227.16835021972656" type="line"/>
      <point x="1032.7029817976536" y="362.1368942260742" type="line"/>
      <point x="912.8672884382786" y="362.1368942260742" type="line"/>
      <point x="912.8672884382786" y="227.16835021972656" type="line"/>
      <point x="814.8123110212864" y="227.16835021972656" type="line"/>
      <point x="1000.8322313704075" y="546.4285736083984" type="line"/>
      <point x="870.9634111799778" y="546.4285736083984" type="line"/>
    </contour>
    <contour>
      <point x="203.5164201694478" y="407.6866632604333" type="curve"/>
      <point x="149.23598236177156" y="407.68666326043336"/>
      <point x="100.83854377637114" y="428.7992208806438"/>
      <point x="69.37299999999996" y="461.71376582554404" type="curve"/>
      <point x="69.37300272478373" y="334.5518569946289" type="line"/>
      <point x="121.06327795577349" y="298.96313647626596"/>
      <point x="183.77567126468855" y="293.92857142857133"/>
      <point x="214.78411240713248" y="293.92857142857133" type="curve"/>
      <point x="329.7045297572637" y="293.92857142857133"/>
      <point x="422.89148804497563" y="379.1332334088097"/>
      <point x="422.89148804497563" y="484.6193353681386" type="curve"/>
      <point x="302.09387369646345" y="484.6193313598633" type="line"/>
      <point x="299.04039300531383" y="436.8122942562293"/>
      <point x="256.0517178998217" y="407.6866632604333"/>
    </contour>
  </outline>
</glyph>
<glyph name="inv_question" format="2">
  <advance width="496.54495347958505"/>
  <unicode hex="00BF"/>
  <outline>
    <contour>
      <point x="237.73960097044326" y="526.6924704285715" type="curve" smooth="yes"/>
      <point x="237.73960097044326" y="470.6227173320809"/>
      <point x="283.26112744538125" y="425.1011908571429"/>
      <point x="339.3308805418718" y="425.1011908571429" type="curve" smooth="yes"/>
      <point x="395.40063363836236" y="425.1011908571429"/>
      <point x="440.9221601133004" y="470.6227173320809"/>
      <point x="440.9221601133004" y="526.6924704285715" type="curve" smooth="yes"/>
      <point x="440.9221601133004" y="582.762223525062"/>
      <point x="395.4006336383625" y="628.28375"/>
      <point x="339.3308805418718" y="628.28375" type="curve" smooth="yes"/>
      <point x="283.26112744538125" y="628.28375"/>
      <point x="237.73960097044332" y="582.7622235250622"/>
    </contour>
    <contour>
      <point x="321.71297619047607" y="148.2753857142858" type="curve"/>
      <point x="346.5245565059022" y="148.2753856189434"/>
      <point x="376.74150903605766" y="144.84755255480366"/>
      <point x="409.09710911923355" y="133.51841735839844" type="curve"/>
      <point x="401.6000998418898" y="362.7887191772461" type="line"/>
      <point x="277.06166295224136" y="362.7887191772461" type="line"/>
      <point x="272.2868369024367" y="289.7779541015625" type="line"/>
      <point x="135.0488078149949" y="271.5483778452857"/>
      <point x="29.372999999999976" y="157.96491169248054"/>
      <point x="29.372999999999962" y="20.310226190476328" type="curve"/>
      <point x="29.372999999999877" y="-129.81096598209086"/>
      <point x="148.89787034662655" y="-251.71624999999992"/>
      <point x="296.085976190476" y="-251.71624999999995" type="curve"/>
      <point x="357.7441791351821" y="-251.71624999999995"/>
      <point x="414.9648067462674" y="-234.50294017892853"/>
      <point x="462.1719534795851" y="-204.6912612915039" type="curve"/>
      <point x="462.1719534795851" y="-45.60467529296875" type="line"/>
      <point x="422.667917546339" y="-83.40759336061939"/>
      <point x="369.2133004573561" y="-106.5922333333333"/>
      <point x="310.2553095238094" y="-106.59223333333328" type="curve"/>
      <point x="239.39664751976815" y="-106.5922333333333"/>
      <point x="182.5079999999999" y="-50.025182832373815"/>
      <point x="182.5079999999999" y="20.310226190476214" type="curve"/>
      <point x="182.5079999999999" y="93.14956429800341"/>
      <point x="244.85879771238004" y="148.2753857142858"/>
    </contour>
  </outline>
</glyph>
<glyph name="A_with_grave" format="2">
  <advance width="812.83730859375"/>
  <unicode hex="00C0"/>
  <outline>
    <contour>
      <point x="361.07199740520207" y="898.8102111816406" type="line"/>
      <point x="466.88086581340525" y="898.8102111816406" type="line"/>
      <point x="361.53915286174504" y="1097.9795455932617" type="line"/>
      <point x="200.6852099906513" y="1097.9795455932617" type="line"/>
    </contour>
    <contour>
      <point x="-11.627000000000038" y="0" type="line"/>
      <point x="143.6398151855468" y="0" type="line"/>
      <point x="211.47270855712884" y="143.1786651611328" type="line"/>
      <point x="593.141898010254" y="143.1786651611328" type="line"/>
      <point x="660.974791381836" y="0" type="line"/>
      <point x="824.46430859375" y="0" type="line"/>
      <point x="406.41865429687493" y="877.0846633911133" type="line"/>
    </contour>
    <contour>
      <point x="402.30730328369134" y="545.9838485717773" type="line"/>
      <point x="528.9018848876954" y="278.77362060546875" type="line"/>
      <point x="275.71272167968743" y="278.77362060546875" type="line"/>
    </contour>
  </outline>
</glyph>
<glyph name="A_with_acute" format="2">
  <advance width="812.83730859375"/>
  <unicode hex="00C1"/>
  <outline>
    <contour>
      <point x="451.7653178923562" y="898.8102111816406" type="line"/>
      <point x="612.1520976775125" y="1097.9795455932617" type="line"/>
      <point x="451.2981548064187" y="1097.9795455932617" type="line"/>
      <point x="345.95644185475857" y="898.8102111816406" type="line"/>
    </contour>
    <contour>
      <point x="-11.627000000000038" y="0" type="line"/>
      <point x="143.6398151855468" y="0" type="line"/>
      <point x="211.47270855712884" y="143.1786651611328" type="line"/>
      <point x="593.141898010254" y="143.1786651611328" type="line"/>
      <point x="660.974791381836" y="0" type="line"/>
      <point x="824.46430859375" y="0" type="line"/>
      <point x="406.41865429687493" y="877.0846633911133" type="line"/>
    </contour>
    <contour>
      <point x="402.30730328369134" y="545.9838485717773" type="line"/>
      <point x="528.9018848876954" y="278.77362060546875" type="line"/>
      <point x="275.71272167968743" y="278.77362060546875" type="line"/>
    </contour>
  </outline>
</glyph>
<glyph name="A_with_tildeabove" format="2">
  <advance width="812.83730859375"/>
  <unicode hex="00C3"/>
  <outline>
    <contour>
      <point x="322.5615138888888" y="969.228132938523" type="curve"/>
      <point x="339.0729968196905" y="969.228132938523"/>
      <point x="347.01776294944625" y="964.5448056908451"/>
      <point x="366.65245712793444" y="951.4963658317992" type="curve"/>
      <point x="370.81675241056126" y="948.7289401690049" type="line"/>
      <point x="406.2668856681036" y="925.1701860778411"/>
      <point x="443.1214482215466" y="903.7644101707587"/>
      <point x="490.2757956349207" y="903.7644101707587" type="curve"/>
      <point x="531.9790902004964" y="903.7644101707587"/>
      <point x="568.9590082064921" y="924.1484225671757"/>
      <point x="591.7870693088107" y="955.5308303833008" type="curve"/>
      <point x="591.7870693088107" y="1072.4385604858398" type="line"/>
      <point x="557.912239978091" y="1020.8269344877083"/>
      <point x="504.0807665675183" y="1017.5536782607419"/>
      <point x="490.2757956349206" y="1017.5536782607419" type="curve"/>
      <point x="473.7643127041188" y="1017.5536782607419"/>
      <point x="465.81954414544447" y="1022.2370087897775"/>
      <point x="446.1848499669563" y="1035.2854486488236" type="curve"/>
      <point x="442.0205546843295" y="1038.0528743116179" type="line"/>
      <point x="406.57042142678705" y="1061.6116284027814"/>
      <point x="369.7158613022629" y="1083.0174010285064"/>
      <point x="322.56151388888884" y="1083.0174010285064" type="curve"/>
      <point x="280.85821932331316" y="1083.0174010285064"/>
      <point x="243.87829840419067" y="1062.6333846273283"/>
      <point x="221.0502376437716" y="1031.2509765625" type="curve"/>
      <point x="221.0502376437716" y="914.3432540893555" type="line"/>
      <point x="254.92507219739196" y="965.9548766594825"/>
      <point x="308.75654295629107" y="969.228132938523"/>
    </contour>
    <contour>
      <point x="-11.627000000000038" y="0" type="line"/>
      <point x="143.6398151855468" y="0" type="line"/>
      <point x="211.47270855712884" y="143.1786651611328" type="line"/>
      <point x="593.141898010254" y="143.1786651611328" type="line"/>
      <point x="660.974791381836" y="0" type="line"/>
      <point x="824.46430859375" y="0" type="line"/>
      <point x="406.41865429687493" y="877.0846633911133" type="line"/>
    </contour>
    <contour>
      <point x="402.30730328369134" y="545.9838485717773" type="line"/>
      <point x="528.9018848876954" y="278.77362060546875" type="line"/>
      <point x="275.71272167968743" y="278.77362060546875" type="line"/>
    </contour>
  </outline>
</glyph>
<glyph name="A_with_ring" format="2">
  <advance width="812.83730859375"/>
  <unicode hex="00C5"/>
  <outline>
    <contour>
      <point x="548.9735714285714" y="1029.4372101567753" type="curve" smooth="yes"/>
      <point x="548.9735714285714" y="1108.115409839957"/>
      <point x="485.0968544450864" y="1171.992126823442"/>
      <point x="406.4186547619047" y="1171.992126823442" type="curve" smooth="yes"/>
      <point x="327.740455078723" y="1171.992126823442"/>
      <point x="263.86373809523803" y="1108.115409839957"/>
      <point x="263.86373809523803" y="1029.4372101567753" type="curve" smooth="yes"/>
      <point x="263.86373809523803" y="950.7590104735937"/>
      <point x="327.740455078723" y="886.8822934901086"/>
      <point x="406.4186547619047" y="886.8822934901086" type="curve" smooth="yes"/>
      <point x="485.0968544450863" y="886.8822934901086"/>
      <point x="548.9735714285714" y="950.7590104735937"/>
    </contour>
    <contour>
      <point x="453.14182787330236" y="1029.4372101567753" type="curve" smooth="yes"/>
      <point x="453.14182787330236" y="1003.6499891345348"/>
      <point x="432.20587578414523" y="982.7140370453777"/>
      <point x="406.4186547619047" y="982.7140370453777" type="curve" smooth="yes"/>
      <point x="380.6314337396642" y="982.7140370453777"/>
      <point x="359.6954816505071" y="1003.6499891345348"/>
      <point x="359.6954816505071" y="1029.4372101567753" type="curve" smooth="yes"/>
      <point x="359.6954816505071" y="1055.224431179016"/>
      <point x="380.6314337396642" y="1076.160383268173"/>
      <point x="406.4186547619047" y="1076.160383268173" type="curve" smooth="yes"/>
      <point x="432.20587578414523" y="1076.160383268173"/>
      <point x="453.14182787330236" y="1055.224431179016"/>
    </contour>
    <contour>
      <point x="-11.627000000000038" y="0" type="line"/>
      <point x="143.6398151855468" y="0" type="line"/>
      <point x="211.47270855712884" y="143.1786651611328" type="line"/>
      <point x="593.141898010254" y="143.1786651611328" type="line"/>
      <point x="660.974791381836" y="0" type="line"/>
      <point x="824.46430859375" y="0" type="line"/>
      <point x="406.41865429687493" y="877.0846633911133" type="line"/>
    </contour>
    <contour>
      <point x="402.30730328369134" y="545.9838485717773" type="line"/>
      <point x="528.9018848876954" y="278.77362060546875" type="line"/>
      <point x="275.71272167968743" y="278.77362060546875" type="line"/>
    </contour>
  </outline>
</glyph>
<glyph name="E_with_grave" format="2">
  <advance width="655.9087349853515"/>
  <unicode hex="00C8"/>
  <outline>
    <contour>
      <point x="299.89318044091635" y="898.8102111816406" type="line"/>
      <point x="405.7020488491195" y="898.8102111816406" type="line"/>
      <point x="300.3603358974593" y="1097.9795455932617" type="line"/>
      <point x="139.50639302636557" y="1097.9795455932617" type="line"/>
    </contour>
    <contour>
      <point x="89.37299999999996" y="0" type="line"/>
      <point x="591.5357349853516" y="0" type="line"/>
      <point x="591.5357349853516" y="145.4782485961914" type="line"/>
      <point x="242.5080021362304" y="145.4782485961914" type="line"/>
      <point x="242.5080021362304" y="359.1453628540039" type="line"/>
      <point x="561.5357349853516" y="359.1453628540039" type="line"/>
      <point x="561.5357349853516" y="497.3123092651367" type="line"/>
      <point x="242.5080021362304" y="497.3123092651367" type="line"/>
      <point x="242.5080021362304" y="704.5217514038086" type="line"/>
      <point x="591.5357349853516" y="704.5217514038086" type="line"/>
      <point x="591.5357349853516" y="850" type="line"/>
      <point x="89.37299999999996" y="850" type="line"/>
    </contour>
  </outline>
</glyph>
<glyph name="E_with_acute" format="2">
  <advance width="655.9087349853515"/>
  <unicode hex="00C9"/>
  <outline>
    <contour>
      <point x="390.58650092807056" y="898.8102111816406" type="line"/>
      <point x="550.9732807132269" y="1097.9795455932617" type="line"/>
      <point x="390.11933784213306" y="1097.9795455932617" type="line"/>
      <point x="284.7776248904729" y="898.8102111816406" type="line"/>
    </contour>
    <contour>
      <point x="89.37299999999996" y="0" type="line"/>
      <point x="591.5357349853516" y="0" type="line"/>
      <point x="591.5357349853516" y="145.4782485961914" type="line"/>
      <point x="242.5080021362304" y="145.4782485961914" type="line"/>
      <point x="242.5080021362304" y="359.1453628540039" type="line"/>
      <point x="561.5357349853516" y="359.1453628540039" type="line"/>
      <point x="561.5357349853516" y="497.3123092651367" type="line"/>
      <point x="242.5080021362304" y="497.3123092651367" type="line"/>
      <point x="242.5080021362304" y="704.5217514038086" type="line"/>
      <point x="591.5357349853516" y="704.5217514038086" type="line"/>
      <point x="591.5357349853516" y="850" type="line"/>
      <point x="89.37299999999996" y="850" type="line"/>
    </contour>
  </outline>
</glyph>
<glyph name="E_with_circumflex" format="2">
  <advance width="655.9087349853515"/>
  <unicode hex="00CA"/>
  <outline>
    <contour>
      <point x="137.92034970238092" y="914.7825393676758" type="line"/>
      <point x="285.0439992995489" y="914.7825393676758" type="line"/>
      <point x="345.23983822777154" y="973.961181640625" type="line"/>
      <point x="405.4356771559942" y="914.7825393676758" type="line"/>
      <point x="552.5593267531623" y="914.7825393676758" type="line"/>
      <point x="345.23983822777154" y="1112.2296752929688" type="line"/>
    </contour>
    <contour>
      <point x="89.37299999999996" y="0" type="line"/>
      <point x="591.5357349853516" y="0" type="line"/>
      <point x="591.5357349853516" y="145.4782485961914" type="line"/>
      <point x="242.5080021362304" y="145.4782485961914" type="line"/>
      <point x="242.5080021362304" y="359.1453628540039" type="line"/>
      <point x="561.5357349853516" y="359.1453628540039" type="line"/>
      <point x="561.5357349853516" y="497.3123092651367" type="line"/>
      <point x="242.5080021362304" y="497.3123092651367" type="line"/>
      <point x="242.5080021362304" y="704.5217514038086" type="line"/>
      <point x="591.5357349853516" y="704.5217514038086" type="line"/>
      <point x="591.5357349853516" y="850" type="line"/>
      <point x="89.37299999999996" y="850" type="line"/>
    </contour>
  </outline>
</glyph>
<glyph name="E_with_diaeresis" format="2">
  <advance width="655.9087349853515"/>
  <unicode hex="00CB"/>
  <outline>
    <contour>
      <point x="321.46785043257387" y="999.4372101567753" type="curve" smooth="yes"/>
      <point x="321.46785043257387" y="1048.9266091010668"/>
      <point x="281.2887367419104" y="1089.1057227917302"/>
      <point x="231.799337797619" y="1089.1057227917302" type="curve" smooth="yes"/>
      <point x="182.30993885332765" y="1089.1057227917302"/>
      <point x="142.13082516266417" y="1048.9266091010668"/>
      <point x="142.13082516266417" y="999.4372101567753" type="curve" smooth="yes"/>
      <point x="142.13082516266417" y="949.947811212484"/>
      <point x="182.30993885332765" y="909.7686975218205"/>
      <point x="231.799337797619" y="909.7686975218205" type="curve" smooth="yes"/>
      <point x="281.2887367419103" y="909.7686975218205"/>
      <point x="321.4678504325738" y="949.947811212484"/>
    </contour>
    <contour>
      <point x="548.348850432574" y="999.4372101567753" type="curve" smooth="yes"/>
      <point x="548.348850432574" y="1048.9266091010668"/>
      <point x="508.16973674191036" y="1089.1057227917302"/>
      <point x="458.680337797619" y="1089.1057227917302" type="curve" smooth="yes"/>
      <point x="409.1909388533277" y="1089.1057227917302"/>
      <point x="369.0118251626642" y="1048.9266091010668"/>
      <point x="369.0118251626642" y="999.4372101567753" type="curve" smooth="yes"/>
      <point x="369.0118251626642" y="949.947811212484"/>
      <point x="409.1909388533276" y="909.7686975218205"/>
      <point x="458.680337797619" y="909.7686975218205" type="curve" smooth="yes"/>
      <point x="508.16973674191036" y="909.7686975218205"/>
      <point x="548.348850432574" y="949.947811212484"/>
    </contour>
    <contour>
      <point x="89.37299999999996" y="0" type="line"/>
      <point x="591.5357349853516" y="0" type="line"/>
      <point x="591.5357349853516" y="145.4782485961914" type="line"/>
      <point x="242.5080021362304" y="145.4782485961914" type="line"/>
      <point x="242.5080021362304" y="359.1453628540039" type="line"/>
      <point x="561.5357349853516" y="359.1453628540039" type="line"/>
      <point x="561.5357349853516" y="497.3123092651367" type="line"/>
      <point x="242.5080021362304" y="497.3123092651367" type="line"/>
      <point x="242.5080021362304" y="704.5217514038086" type="line"/>
      <point x="591.5357349853516" y="704.5217514038086" type="line"/>
      <point x="591.5357349853516" y="850" type="line"/>
      <point x="89.37299999999996" y="850" type="line"/>
    </contour>
  </outline>
</glyph>
<glyph name="I_with_grave" format="2">
  <advance width="334.9576602884947"/>
  <unicode hex="00CC"/>
  <outline>
    <contour>
      <point x="121.75978741455074" y="898.8102111816406" type="line"/>
      <point x="227.5686558227539" y="898.8102111816406" type="line"/>
      <point x="122.22694287109371" y="1097.9795455932617" type="line"/>
      <point x="-38.62700000000004" y="1097.9795455932617" type="line"/>
    </contour>
    <contour>
      <point x="88.62822925401201" y="0" type="line"/>
      <point x="245.58466028849477" y="0" type="line"/>
      <point x="245.58466028849477" y="850" type="line"/>
      <point x="88.62822925401201" y="850" type="line"/>
    </contour>
  </outline>
</glyph>
<glyph name="I_with_acute" format="2">
  <advance width="334.95765843284903"/>
  <unicode hex="00CD"/>
  <outline>
    <contour>
      <point x="213.1978786476929" y="898.8102111816406" type="line"/>
      <point x="373.5846584328491" y="1097.9795455932617" type="line"/>
      <point x="212.7307155617554" y="1097.9795455932617" type="line"/>
      <point x="107.38900261009523" y="898.8102111816406" type="line"/>
    </contour>
    <contour>
      <point x="89.37299999999996" y="0" type="line"/>
      <point x="246.3294310344827" y="0" type="line"/>
      <point x="246.3294310344827" y="850" type="line"/>
      <point x="89.37299999999996" y="850" type="line"/>
    </contour>
  </outline>
</glyph>
<glyph name="I_with_circumflex" format="2">
  <advance width="335.3849770507811"/>
  <unicode hex="00CE"/>
  <outline>
    <contour>
      <point x="-39.62700000000004" y="914.7825393676758" type="line"/>
      <point x="107.49664959716793" y="914.7825393676758" type="line"/>
      <point x="167.69248852539062" y="973.961181640625" type="line"/>
      <point x="227.88832745361327" y="914.7825393676758" type="line"/>
      <point x="375.0119770507812" y="914.7825393676758" type="line"/>
      <point x="167.69248852539062" y="1112.2296752929688" type="line"/>
    </contour>
    <contour>
      <point x="89.21427257799667" y="0" type="line"/>
      <point x="246.17070361247943" y="0" type="line"/>
      <point x="246.17070361247943" y="850" type="line"/>
      <point x="89.21427257799667" y="850" type="line"/>
    </contour>
  </outline>
</glyph>
<glyph name="I_with_diaeresis" format="2">
  <advance width="334.9640252699096"/>
  <unicode hex="00CF"/>
  <outline>
    <contour>
      <point x="143.71002526990964" y="999.4372101567753" type="curve" smooth="yes"/>
      <point x="143.71002526990964" y="1048.9266091010668"/>
      <point x="103.53091157924615" y="1089.1057227917302"/>
      <point x="54.04151263495481" y="1089.1057227917302" type="curve" smooth="yes"/>
      <point x="4.552113690663447" y="1089.1057227917302"/>
      <point x="-35.62700000000004" y="1048.9266091010668"/>
      <point x="-35.62700000000004" y="999.4372101567753" type="curve" smooth="yes"/>
      <point x="-35.62700000000004" y="949.947811212484"/>
      <point x="4.552113690663418" y="909.7686975218205"/>
      <point x="54.041512634954785" y="909.7686975218205" type="curve" smooth="yes"/>
      <point x="103.53091157924615" y="909.7686975218205"/>
      <point x="143.71002526990964" y="949.947811212484"/>
    </contour>
    <contour>
      <point x="370.5910252699096" y="999.4372101567753" type="curve" smooth="yes"/>
      <point x="370.5910252699096" y="1048.9266091010668"/>
      <point x="330.4119115792461" y="1089.1057227917302"/>
      <point x="280.9225126349548" y="1089.1057227917302" type="curve" smooth="yes"/>
      <point x="231.43311369066345" y="1089.1057227917302"/>
      <point x="191.25399999999996" y="1048.9266091010668"/>
      <point x="191.25399999999996" y="999.4372101567753" type="curve" smooth="yes"/>
      <point x="191.25399999999996" y="949.947811212484"/>
      <point x="231.43311369066345" y="909.7686975218205"/>
      <point x="280.9225126349548" y="909.7686975218205" type="curve" smooth="yes"/>
      <point x="330.4119115792461" y="909.7686975218205"/>
      <point x="370.5910252699096" y="949.947811212484"/>
    </contour>
    <contour>
      <point x="89.00379711771342" y="0" type="line"/>
      <point x="245.96022815219618" y="0" type="line"/>
      <point x="245.96022815219618" y="850" type="line"/>
      <point x="89.00379711771342" y="850" type="line"/>
    </contour>
  </outline>
</glyph>
<glyph name="ETH" format="2">
  <advance width="829.9165352347238"/>
  <unicode hex="00D0"/>
  <outline>
    <contour>
      <point x="103.98910854299442" y="0" type="line"/>
      <point x="330.36809871633426" y="0.0" type="line"/>
      <point x="699.7561901238246" y="0.0"/>
      <point x="805.3680966382326" y="256.7957197583929"/>
      <point x="805.3680966382326" y="425.0" type="curve" smooth="yes"/>
      <point x="805.3680966382326" y="593.2042802416071"/>
      <point x="699.7561880457229" y="850.0"/>
      <point x="330.36809663823254" y="850.0" type="curve"/>
      <point x="103.98910854299442" y="850" type="line"/>
      <point x="103.98910854299442" y="494.0834732055664" type="line"/>
      <point x="8.530894736842072" y="494.0834732055664" type="line"/>
      <point x="8.530894736842072" y="355.9165267944336" type="line"/>
      <point x="103.98910854299442" y="355.9165267944336" type="line"/>
    </contour>
    <contour>
      <point x="257.1241106792249" y="145.4782485961914" type="line"/>
      <point x="257.1241106792249" y="355.9165267944336" type="line"/>
      <point x="460.0983919902601" y="355.9165267944336" type="line"/>
      <point x="460.0983919902601" y="494.0834732055664" type="line"/>
      <point x="257.1241106792249" y="494.0834732055664" type="line"/>
      <point x="257.1241106792249" y="704.5217514038086" type="line"/>
      <point x="326.5397219463147" y="704.5217514038086" type="line"/>
      <point x="607.2024857790967" y="704.5217514038086"/>
      <point x="649.6322306761635" y="519.6858606805637"/>
      <point x="649.6322306761635" y="425.0" type="curve" smooth="yes"/>
      <point x="649.6322306761635" y="330.31413931943626"/>
      <point x="607.2024854710146" y="145.47825271159164"/>
      <point x="326.53972163823255" y="145.4782494122173" type="curve"/>
    </contour>
  </outline>
</glyph>
<glyph name="O_with_acute" format="2">
  <advance width="941.3468659620689"/>
  <unicode hex="00D3"/>
  <outline>
    <contour>
      <point x="516.020096111486" y="898.8102111816406" type="line"/>
      <point x="676.4068758966423" y="1097.9795455932617" type="line"/>
      <point x="515.5529330255486" y="1097.9795455932617" type="line"/>
      <point x="410.2112200738883" y="898.8102111816406" type="line"/>
    </contour>
    <contour>
      <point x="916.973865962069" y="425.0" type="curve" smooth="yes"/>
      <point x="916.973865962069" y="671.3199123947363"/>
      <point x="716.9933453757708" y="865.0"/>
      <point x="470.6734329810344" y="865.0" type="curve" smooth="yes"/>
      <point x="224.3535205862981" y="865.0"/>
      <point x="24.372999999999962" y="671.3199123947363"/>
      <point x="24.372999999999962" y="425.0" type="curve" smooth="yes"/>
      <point x="24.372999999999962" y="178.68008760526368"/>
      <point x="224.3535205862981" y="-15.0"/>
      <point x="470.6734329810344" y="-15.0" type="curve" smooth="yes"/>
      <point x="716.9933453757708" y="-15.0"/>
      <point x="916.973865962069" y="178.68008760526368"/>
    </contour>
    <contour>
      <point x="755.753675" y="425.0" type="curve" smooth="yes"/>
      <point x="755.753675" y="262.4509059285789"/>
      <point x="632.9625484511616" y="130.47825"/>
      <point x="470.6734329810344" y="130.47825" type="curve" smooth="yes"/>
      <point x="308.3843175109073" y="130.47825"/>
      <point x="185.5931909620689" y="262.4509059285789"/>
      <point x="185.5931909620689" y="425.0" type="curve" smooth="yes"/>
      <point x="185.5931909620689" y="587.5490940714211"/>
      <point x="308.3843175109073" y="719.52175"/>
      <point x="470.6734329810344" y="719.52175" type="curve" smooth="yes"/>
      <point x="632.9625484511616" y="719.52175"/>
      <point x="755.753675" y="587.5490940714211"/>
    </contour>
  </outline>
</glyph>
<glyph name="O_with_tildeabove" format="2">
  <advance width="941.3468659620689"/>
  <unicode hex="00D5"/>
  <outline>
    <contour>
      <point x="386.8162921080185" y="969.228132938523" type="curve"/>
      <point x="403.3277750388202" y="969.228132938523"/>
      <point x="411.27254116857597" y="964.5448056908451"/>
      <point x="430.90723534706416" y="951.4963658317992" type="curve"/>
      <point x="435.071530629691" y="948.7289401690049" type="line"/>
      <point x="470.5216638872334" y="925.1701860778411"/>
      <point x="507.37622644067636" y="903.7644101707587"/>
      <point x="554.5305738540504" y="903.7644101707587" type="curve"/>
      <point x="596.2338684196261" y="903.7644101707587"/>
      <point x="633.2137864256218" y="924.1484225671757"/>
      <point x="656.0418475279405" y="955.5308303833008" type="curve"/>
      <point x="656.0418475279405" y="1072.4385604858398" type="line"/>
      <point x="622.1670181972206" y="1020.8269344877084"/>
      <point x="568.3355447866481" y="1017.5536782607419"/>
      <point x="554.5305738540504" y="1017.5536782607419" type="curve"/>
      <point x="538.0190909232487" y="1017.5536782607419"/>
      <point x="530.074322364574" y="1022.2370087897777"/>
      <point x="510.4396281860857" y="1035.2854486488238" type="curve"/>
      <point x="506.27533290345895" y="1038.052874311618" type="line"/>
      <point x="470.8251996459165" y="1061.6116284027817"/>
      <point x="433.97063952139257" y="1083.0174010285064"/>
      <point x="386.8162921080185" y="1083.0174010285064" type="curve"/>
      <point x="345.1129975424428" y="1083.0174010285064"/>
      <point x="308.1330766233204" y="1062.6333846273283"/>
      <point x="285.3050158629013" y="1031.2509765625" type="curve"/>
      <point x="285.3050158629013" y="914.3432540893555" type="line"/>
      <point x="319.1798504165217" y="965.9548766594825"/>
      <point x="373.0113211754208" y="969.228132938523"/>
    </contour>
    <contour>
      <point x="916.973865962069" y="425.0" type="curve" smooth="yes"/>
      <point x="916.973865962069" y="671.3199123947363"/>
      <point x="716.9933453757708" y="865.0"/>
      <point x="470.6734329810344" y="865.0" type="curve" smooth="yes"/>
      <point x="224.3535205862981" y="865.0"/>
      <point x="24.372999999999962" y="671.3199123947363"/>
      <point x="24.372999999999962" y="425.0" type="curve" smooth="yes"/>
      <point x="24.372999999999962" y="178.68008760526368"/>
      <point x="224.3535205862981" y="-15.0"/>
      <point x="470.6734329810344" y="-15.0" type="curve" smooth="yes"/>
      <point x="716.9933453757708" y="-15.0"/>
      <point x="916.973865962069" y="178.68008760526368"/>
    </contour>
    <contour>
      <point x="755.753675" y="425.0" type="curve" smooth="yes"/>
      <point x="755.753675" y="262.4509059285789"/>
      <point x="632.9625484511616" y="130.47825"/>
      <point x="470.6734329810344" y="130.47825" type="curve" smooth="yes"/>
      <point x="308.3843175109073" y="130.47825"/>
      <point x="185.5931909620689" y="262.4509059285789"/>
      <point x="185.5931909620689" y="425.0" type="curve" smooth="yes"/>
      <point x="185.5931909620689" y="587.5490940714211"/>
      <point x="308.3843175109073" y="719.52175"/>
      <point x="470.6734329810344" y="719.52175" type="curve" smooth="yes"/>
      <point x="632.9625484511616" y="719.52175"/>
      <point x="755.753675" y="587.5490940714211"/>
    </contour>
  </outline>
</glyph>
<glyph name="multiply" format="2">
  <advance width="641.4378792724609"/>
  <unicode hex="00D7"/>
  <outline>
    <contour>
      <point x="152.01474652099603" y="150.65406036376953" type="line"/>
      <point x="320.7189396362304" y="319.3582458496094" type="line"/>
      <point x="489.4231251220703" y="150.65406036376953" type="line"/>
      <point x="595.064879272461" y="256.29581451416016" type="line"/>
      <point x="426.360693786621" y="425" type="line"/>
      <point x="595.064879272461" y="593.7041854858398" type="line"/>
      <point x="489.4231251220703" y="699.3459396362305" type="line"/>
      <point x="320.7189396362304" y="530.6417541503906" type="line"/>
      <point x="152.01474652099603" y="699.3459396362305" type="line"/>
      <point x="46.37299999999996" y="593.7041854858398" type="line"/>
      <point x="215.07718548583978" y="425" type="line"/>
      <point x="46.37299999999996" y="256.29581451416016" type="line"/>
    </contour>
  </outline>
</glyph>
<glyph name="O_with_stroke" format="2">
  <advance width="975.8383913857978"/>
  <unicode hex="00D8"/>
  <outline>
    <contour>
      <point x="936.1603066400351" y="425.0" type="curve" smooth="yes"/>
      <point x="936.1603066400351" y="557.4765142438742"/>
      <point x="878.3152252643715" y="674.7267707521421"/>
      <point x="786.5268326457395" y="754.8001174926758" type="curve"/>
      <point x="870.0477829631224" y="877.0846633911133" type="line"/>
      <point x="727.2241135295286" y="877.0846633911133" type="line"/>
      <point x="688.1332245524778" y="819.8509826660156" type="line"/>
      <point x="628.3876267502415" y="848.8175996954552"/>
      <point x="561.0596296163487" y="864.9999999999999"/>
      <point x="489.85987365900064" y="865.0" type="curve" smooth="yes"/>
      <point x="243.5399612642642" y="865.0"/>
      <point x="43.559440677966066" y="671.3199123947363"/>
      <point x="43.559440677966066" y="425.0" type="curve" smooth="yes"/>
      <point x="43.559440677966066" y="292.52348575612575"/>
      <point x="101.40452205362959" y="175.27322924785784"/>
      <point x="193.19291693529027" y="95.19988250732422" type="curve"/>
      <point x="109.67196661790746" y="-27.08466339111328" type="line"/>
      <point x="252.4956360515012" y="-27.08466339111328" type="line"/>
      <point x="291.586525028552" y="30.149017333984375" type="line"/>
      <point x="351.33212056775966" y="1.1824003045447427"/>
      <point x="418.66011770165244" y="-14.999999999999961"/>
      <point x="489.85987365900064" y="-14.999999999999957" type="curve" smooth="yes"/>
      <point x="736.1797860537368" y="-15.0"/>
      <point x="936.1603066400351" y="178.68008760526368"/>
    </contour>
    <contour>
      <point x="204.779631640035" y="425.0" type="curve" smooth="yes"/>
      <point x="204.779631640035" y="587.5490940714211"/>
      <point x="327.5707581888734" y="719.52175"/>
      <point x="489.8598736590005" y="719.52175" type="curve" smooth="yes"/>
      <point x="530.7090177575244" y="719.52175"/>
      <point x="569.0557308075489" y="711.160502230988"/>
      <point x="603.5716248210325" y="696.0428009033203" type="curve"/>
      <point x="280.57728583177465" y="223.14092254638672" type="line"/>
      <point x="233.12483974864716" y="275.8619406147668"/>
      <point x="204.779631640035" y="346.90182481153903"/>
    </contour>
    <contour>
      <point x="774.9401156779662" y="425.0" type="curve" smooth="yes"/>
      <point x="774.9401156779661" y="262.4509059285789"/>
      <point x="652.1489891291277" y="130.47825"/>
      <point x="489.8598736590005" y="130.47825" type="curve" smooth="yes"/>
      <point x="449.0107295604767" y="130.47825"/>
      <point x="410.6640165104522" y="138.8394977690121"/>
      <point x="376.1481247599973" y="153.9571990966797" type="curve"/>
      <point x="699.1424637492552" y="626.8590774536133" type="line"/>
      <point x="746.594907569354" y="574.1380593852332"/>
      <point x="774.9401156779661" y="503.09817518846097"/>
    </contour>
  </outline>
</glyph>
<glyph name="Y_with_acute" format="2">
  <advance width="761.976239868164"/>
  <unicode hex="00DD"/>
  <outline>
    <contour>
      <point x="426.3347821780705" y="898.8102111816406" type="line"/>
      <point x="586.7215619632268" y="1097.9795455932617" type="line"/>
      <point x="425.867619092133" y="1097.9795455932617" type="line"/>
      <point x="320.52590614047284" y="898.8102111816406" type="line"/>
    </contour>
    <contour>
      <point x="304.420622680664" y="0" type="line"/>
      <point x="457.5556171875" y="0" type="line"/>
      <point x="457.5556171875" y="348.2091979980469" type="line"/>
      <point x="751.6032398681641" y="850" type="line"/>
      <point x="585.1167820434571" y="850" type="line"/>
      <point x="385.3995350341796" y="506.8954086303711" type="line"/>
      <point x="185.68228802490228" y="850" type="line"/>
      <point x="10.372999999999962" y="850" type="line"/>
      <point x="304.420622680664" y="348.2091979980469" type="line"/>
    </contour>
  </outline>
</glyph>
